SplineFontDB: 3.2
FontName: ATM436-Regular
FullName: ATM436-Regular
FamilyName: ATM 436
Weight: Book
Version: 1.001
ItalicAngle: -11
UnderlinePosition: -271
UnderlineWidth: 102
Ascent: 1600
Descent: 400
InvalidEm: 0
sfntRevision: 0x00010042
LayerCount: 2
Layer: 0 1 "Back" 1
Layer: 1 1 "Fore" 0
XUID: [1021 192 2086997156 16802]
StyleMap: 0x0040
FSType: 8
OS2Version: 3
OS2_WeightWidthSlopeOnly: 0
OS2_UseTypoMetrics: 0
CreationTime: 1537350915
ModificationTime: 1545659588
PfmFamily: 17
TTFWeight: 400
TTFWidth: 5
LineGap: 0
VLineGap: 0
Panose: 2 0 5 5 0 0 0 2 0 2
OS2TypoAscent: 2000
OS2TypoAOffset: 0
OS2TypoDescent: -1320
OS2TypoDOffset: 0
OS2TypoLinegap: 0
OS2WinAscent: 2000
OS2WinAOffset: 0
OS2WinDescent: 744
OS2WinDOffset: 0
HheadAscent: 2000
HheadAOffset: 0
HheadDescent: -1320
HheadDOffset: 0
OS2SubXSize: 1400
OS2SubYSize: 1300
OS2SubXOff: 0
OS2SubYOff: 0
OS2SupXSize: 1400
OS2SupYSize: 1300
OS2SupXOff: 0
OS2SupYOff: 0
OS2StrikeYSize: 100
OS2StrikeYPos: 518
OS2CapHeight: 1586
OS2XHeight: -200
OS2Vendor: '    '
OS2CodePages: 00000001.00000000
OS2UnicodeRanges: 00100003.00000000.00000000.00000000
Lookup: 4 0 0 "'akhn' Akhand in Tamil2 lookup 0" { "'akhn' Akhand in Tamil2 lookup 0 subtable"  } ['akhn' ('tml2' <'dflt' > ) ]
Lookup: 4 0 0 "'akhn' Akhand in Tamil lookup 1" { "'akhn' Akhand in Tamil lookup 1 subtable"  } ['akhn' ('taml' <'dflt' > ) ]
Lookup: 4 0 0 "'half' Half Forms in Tamil lookup 2" { "'half' Half Forms in Tamil lookup 2 subtable"  } ['half' ('taml' <'dflt' > ) ]
Lookup: 4 0 0 "'haln' Halant Forms in Tamil2 lookup 3" { "'haln' Halant Forms in Tamil2 lookup 3 subtable"  } ['haln' ('tml2' <'dflt' > ) ]
Lookup: 4 0 0 "'haln' Halant Forms in Tamil lookup 4" { "'haln' Halant Forms in Tamil lookup 4 subtable"  } ['haln' ('taml' <'dflt' > ) ]
Lookup: 4 0 0 "'abvs' Above Base Substitutions lookup 5" { "'abvs' Above Base Substitutions lookup 5 subtable"  } ['abvs' ('taml' <'dflt' > 'tml2' <'dflt' > ) ]

StartChar: exclam
Encoding: 33 33 4
Width: 444
GlyphClass: 2
Flags: W
LayerCount: 2
Fore
SplineSet
344 1028 m 2,0,-1
 250 246 l 1,1,-1
 194 246 l 1,2,-1
 98 1028 l 2,3,4
 96 1052 96 1052 122 1084 c 0,5,6
 156 1128 156 1128 222 1128 c 0,7,8
 286 1128 286 1128 322 1084 c 0,9,10
 346 1052 346 1052 344 1028 c 2,0,-1
324 78 m 0,11,12
 324 34 324 34 295 3 c 128,-1,13
 266 -28 266 -28 224 -28 c 0,14,15
 180 -28 180 -28 150 2 c 128,-1,16
 120 32 120 32 120 78 c 0,17,18
 120 118 120 118 151 147 c 128,-1,19
 182 176 182 176 222 176 c 256,20,21
 262 176 262 176 293 147 c 128,-1,22
 324 118 324 118 324 78 c 0,11,12
EndSplineSet
EndChar

StartChar: quotedbl
Encoding: 34 34 5
Width: 606
GlyphClass: 2
Flags: W
LayerCount: 2
Fore
SplineSet
109 647 m 1,0,-1
 63 912 l 1,1,-1
 63 1140 l 1,2,-1
 257 1140 l 1,3,-1
 257 912 l 1,4,-1
 214 647 l 1,5,-1
 109 647 l 1,0,-1
423 647 m 1,6,-1
 378 912 l 1,7,-1
 378 1140 l 1,8,-1
 572 1140 l 1,9,-1
 572 912 l 1,10,-1
 527 647 l 1,11,-1
 423 647 l 1,6,-1
EndSplineSet
EndChar

StartChar: numbersign
Encoding: 35 35 6
Width: 1203
GlyphClass: 2
Flags: W
LayerCount: 2
Fore
SplineSet
179 22 m 1,0,-1
 264 356 l 1,1,-1
 103 356 l 1,2,-1
 103 473 l 1,3,-1
 288 473 l 1,4,-1
 358 761 l 1,5,-1
 103 761 l 1,6,-1
 103 876 l 1,7,-1
 386 876 l 1,8,-1
 471 1218 l 1,9,-1
 609 1218 l 1,10,-1
 526 876 l 1,11,-1
 817 876 l 1,12,-1
 903 1218 l 1,13,-1
 1041 1218 l 1,14,-1
 962 876 l 1,15,-1
 1124 876 l 1,16,-1
 1124 761 l 1,17,-1
 932 761 l 1,18,-1
 861 473 l 1,19,-1
 1124 473 l 1,20,-1
 1124 356 l 1,21,-1
 832 356 l 1,22,-1
 755 22 l 1,23,-1
 611 22 l 1,24,-1
 688 356 l 1,25,-1
 401 356 l 1,26,-1
 322 22 l 1,27,-1
 179 22 l 1,0,-1
435 473 m 1,28,-1
 724 473 l 1,29,-1
 792 761 l 1,30,-1
 501 761 l 1,31,-1
 435 473 l 1,28,-1
EndSplineSet
EndChar

StartChar: dollar
Encoding: 36 36 7
Width: 908
GlyphClass: 2
Flags: W
LayerCount: 2
Fore
SplineSet
766 302 m 0,0,1
 744 187 744 187 654 120 c 0,2,3
 572 60 572 60 456 60 c 1,4,-1
 456 -52 l 1,5,-1
 383 -52 l 1,6,-1
 383 60 l 1,7,8
 372 60 372 60 357 60 c 0,9,10
 336 65 336 65 330 71 c 2,11,-1
 264 92 l 2,12,13
 242 95 242 95 229.5 102.5 c 128,-1,14
 217 110 217 110 188 131 c 2,15,-1
 146 156 l 1,16,-1
 180 232 l 1,17,-1
 217 204 l 2,18,19
 259 169 259 169 284 156 c 2,20,-1
 336 137 l 1,21,-1
 383 134 l 1,22,-1
 383 518 l 1,23,24
 230 560 230 560 169 630 c 0,25,26
 99 710 99 710 99 838 c 2,27,-1
 99 872 l 1,28,-1
 104 912 l 2,29,30
 119 1045 119 1045 217 1126 c 0,31,32
 299 1192 299 1192 383 1192 c 1,33,-1
 383 1289 l 1,34,-1
 456 1289 l 1,35,-1
 456 1197 l 1,36,-1
 510 1191 l 2,37,38
 531 1191 531 1191 541.5 1190 c 128,-1,39
 552 1189 552 1189 578 1176 c 1,40,41
 688 1140 688 1140 688 1126 c 1,42,-1
 659 1037 l 1,43,-1
 646 1048 l 2,44,45
 615 1079 615 1079 563 1101 c 0,46,47
 537 1112 537 1112 517.5 1116.5 c 128,-1,48
 498 1121 498 1121 491 1121 c 0,49,50
 466 1121 466 1121 456 1126 c 1,51,-1
 456 739 l 1,52,53
 561 717 561 717 615 686 c 0,54,55
 773 594 773 594 773 404 c 2,56,-1
 772 355 l 2,57,58
 772 330 772 330 766 302 c 0,0,1
383 770 m 1,59,-1
 383 1126 l 1,60,61
 330 1121 330 1121 281 1080 c 0,62,63
 219 1030 219 1030 219 964 c 0,64,65
 219 872 219 872 283 819 c 0,66,67
 297 807 297 807 322.5 796 c 128,-1,68
 348 785 348 785 383 770 c 1,59,-1
653 317 m 0,69,70
 653 404 653 404 573 448 c 1,71,-1
 456 493 l 1,72,-1
 456 134 l 1,73,74
 547 134 547 134 600 185 c 128,-1,75
 653 236 653 236 653 317 c 0,69,70
EndSplineSet
EndChar

StartChar: percent
Encoding: 37 37 8
Width: 1318
GlyphClass: 2
Flags: W
LayerCount: 2
Fore
SplineSet
642 826 m 256,0,1
 642 712 642 712 566 626 c 0,2,3
 480 528 480 528 334 528 c 0,4,5
 190 528 190 528 106 630 c 0,6,7
 32 716 32 716 32 826 c 0,8,9
 32 940 32 940 106 1026 c 0,10,11
 190 1126 190 1126 336 1126 c 0,12,13
 480 1126 480 1126 568 1026 c 0,14,15
 642 940 642 940 642 826 c 256,0,1
988 1062 m 1,16,-1
 416 -2 l 1,17,-1
 302 -2 l 1,18,-1
 874 1062 l 1,19,-1
 988 1062 l 1,16,-1
1292 278 m 256,20,21
 1292 164 1292 164 1216 78 c 0,22,23
 1130 -20 1130 -20 984 -20 c 0,24,25
 842 -20 842 -20 754 82 c 0,26,27
 680 168 680 168 680 278 c 0,28,29
 680 392 680 392 756 478 c 0,30,31
 842 576 842 576 986 576 c 256,32,33
 1130 576 1130 576 1218 478 c 0,34,35
 1292 392 1292 392 1292 278 c 256,20,21
456 586 m 1,36,-1
 456 1068 l 1,37,38
 412 1092 412 1092 336 1092 c 0,39,40
 252 1092 252 1092 218 1070 c 1,41,-1
 218 584 l 1,42,43
 266 560 266 560 334 560 c 0,44,45
 412 560 412 560 456 586 c 1,36,-1
1106 38 m 1,46,-1
 1106 520 l 1,47,48
 1062 544 1062 544 986 544 c 0,49,50
 904 544 904 544 870 522 c 1,51,-1
 870 36 l 1,52,53
 914 12 914 12 984 12 c 0,54,55
 1062 12 1062 12 1106 38 c 1,46,-1
EndSplineSet
EndChar

StartChar: ampersand
Encoding: 38 38 9
Width: 1182
GlyphClass: 2
Flags: W
LayerCount: 2
Fore
SplineSet
1068 0 m 1,0,-1
 870 0 l 1,1,-1
 784 100 l 1,2,3
 622 -28 622 -28 422 -28 c 0,4,5
 282 -28 282 -28 176 46 c 0,6,7
 46 138 46 138 46 306 c 0,8,9
 46 562 46 562 330 630 c 1,10,11
 204 778 204 778 204 888 c 0,12,13
 204 1006 204 1006 288 1076 c 0,14,15
 366 1142 366 1142 496 1142 c 0,16,17
 648 1142 648 1142 728 1072 c 0,18,19
 802 1008 802 1008 802 902 c 0,20,21
 802 760 802 760 708 694 c 0,22,23
 658 658 658 658 532 628 c 1,24,-1
 870 232 l 1,25,26
 966 368 966 368 986 502 c 1,27,-1
 1016 498 l 1,28,29
 998 344 998 344 890 208 c 1,30,-1
 1068 0 l 1,0,-1
580 672 m 1,31,-1
 580 1102 l 1,32,33
 548 1110 548 1110 496 1110 c 0,34,35
 298 1110 298 1110 252 974 c 0,36,37
 246 958 246 958 260 948 c 1,38,-1
 508 656 l 1,39,40
 516 658 516 658 545 665 c 128,-1,41
 574 672 574 672 580 672 c 1,31,-1
764 124 m 1,42,-1
 352 604 l 1,43,44
 318 594 318 594 278 580 c 1,45,-1
 278 32 l 1,46,47
 334 4 334 4 422 4 c 0,48,49
 622 4 622 4 764 124 c 1,42,-1
EndSplineSet
EndChar

StartChar: quotesingle
Encoding: 39 39 10
Width: 368
GlyphClass: 2
Flags: W
LayerCount: 2
Fore
SplineSet
137 647 m 1,0,-1
 91 912 l 1,1,-1
 91 1140 l 1,2,-1
 285 1140 l 1,3,-1
 285 912 l 1,4,-1
 242 647 l 1,5,-1
 137 647 l 1,0,-1
EndSplineSet
EndChar

StartChar: parenleft
Encoding: 40 40 11
Width: 592
GlyphClass: 2
Flags: W
LayerCount: 2
Fore
SplineSet
548 -294 m 1,0,1
 356 -232 356 -232 230 -76 c 0,2,3
 74 116 74 116 74 394 c 0,4,5
 74 676 74 676 230 868 c 0,6,7
 356 1024 356 1024 548 1084 c 1,8,-1
 548 1048 l 1,9,10
 422 1004 422 1004 374 954 c 1,11,-1
 374 -164 l 1,12,13
 424 -212 424 -212 548 -260 c 1,14,-1
 548 -294 l 1,0,1
EndSplineSet
EndChar

StartChar: parenright
Encoding: 41 41 12
Width: 614
GlyphClass: 2
Flags: W
LayerCount: 2
Fore
SplineSet
570 394 m 0,0,1
 570 116 570 116 414 -76 c 0,2,3
 286 -232 286 -232 96 -294 c 1,4,-1
 96 -260 l 1,5,6
 216 -214 216 -214 268 -164 c 1,7,-1
 268 954 l 1,8,9
 220 1004 220 1004 96 1048 c 1,10,-1
 96 1084 l 1,11,12
 288 1024 288 1024 414 868 c 0,13,14
 570 676 570 676 570 394 c 0,0,1
EndSplineSet
EndChar

StartChar: asterisk
Encoding: 42 42 13
Width: 705
GlyphClass: 2
Flags: W
LayerCount: 2
Fore
SplineSet
646 1169 m 1,0,-1
 414 1121 l 1,1,-1
 592 981 l 1,2,-1
 451 875 l 1,3,-1
 346 1073 l 1,4,-1
 267 873 l 1,5,-1
 114 954 l 1,6,-1
 280 1125 l 1,7,-1
 48 1154 l 1,8,-1
 99 1307 l 1,9,-1
 300 1207 l 1,10,-1
 261 1434 l 1,11,-1
 432 1434 l 1,12,-1
 390 1212 l 1,13,-1
 594 1317 l 1,14,-1
 646 1169 l 1,0,-1
EndSplineSet
EndChar

StartChar: plus
Encoding: 43 43 14
Width: 1064
GlyphClass: 2
Flags: W
LayerCount: 2
Fore
SplineSet
1032 408 m 1,0,-1
 606 408 l 1,1,-1
 606 -24 l 1,2,-1
 466 -26 l 1,3,-1
 466 408 l 1,4,-1
 32 406 l 1,5,-1
 30 548 l 1,6,-1
 466 550 l 1,7,-1
 466 978 l 1,8,-1
 604 978 l 1,9,-1
 604 550 l 1,10,-1
 1032 550 l 1,11,-1
 1032 408 l 1,0,-1
EndSplineSet
EndChar

StartChar: comma
Encoding: 44 44 15
Width: 368
GlyphClass: 2
Flags: W
LayerCount: 2
Fore
SplineSet
348 132 m 0,0,1
 348 40 348 40 302 -30 c 0,2,3
 248 -114 248 -114 144 -144 c 1,4,-1
 136 -112 l 1,5,6
 230 -92 230 -92 280 14 c 1,7,8
 236 -16 236 -16 188 -16 c 0,9,10
 124 -16 124 -16 80 29 c 128,-1,11
 36 74 36 74 36 138 c 256,12,13
 36 202 36 202 81 246 c 128,-1,14
 126 290 126 290 188 290 c 0,15,16
 256 290 256 290 302 244 c 128,-1,17
 348 198 348 198 348 132 c 0,0,1
EndSplineSet
EndChar

StartChar: hyphen
Encoding: 45 45 16
Width: 890
GlyphClass: 2
Flags: W
LayerCount: 2
Fore
SplineSet
850 404 m 1,0,-1
 38 404 l 1,1,-1
 38 548 l 1,2,-1
 850 548 l 1,3,-1
 850 404 l 1,0,-1
EndSplineSet
EndChar

StartChar: period
Encoding: 46 46 17
Width: 484
GlyphClass: 2
Flags: W
LayerCount: 2
Fore
SplineSet
372 114 m 0,0,1
 372 64 372 64 333 25 c 128,-1,2
 294 -14 294 -14 242 -14 c 0,3,4
 188 -14 188 -14 150 24 c 128,-1,5
 112 62 112 62 112 114 c 0,6,7
 112 168 112 168 150 207 c 128,-1,8
 188 246 188 246 242 246 c 0,9,10
 294 246 294 246 333 206 c 128,-1,11
 372 166 372 166 372 114 c 0,0,1
EndSplineSet
EndChar

StartChar: slash
Encoding: 47 47 18
Width: 498
GlyphClass: 2
Flags: W
LayerCount: 2
Fore
SplineSet
518 1080 m 1,0,-1
 152 -26 l 1,1,-1
 -22 -26 l 1,2,-1
 344 1080 l 1,3,-1
 518 1080 l 1,0,-1
EndSplineSet
EndChar

StartChar: zero
Encoding: 48 48 19
Width: 797
GlyphClass: 2
Flags: W
LayerCount: 2
Fore
SplineSet
758 431 m 0,0,1
 758 229 758 229 671 108 c 0,2,3
 576 -25 576 -25 396 -25 c 0,4,5
 219 -25 219 -25 123 108 c 0,6,7
 36 229 36 229 36 431 c 0,8,9
 36 640 36 640 122 757 c 0,10,11
 217 885 217 885 399 885 c 0,12,13
 578 885 578 885 673 757 c 0,14,15
 758 638 758 638 758 431 c 0,0,1
540 30 m 1,16,-1
 540 832 l 1,17,18
 471 860 471 860 399 860 c 0,19,20
 321 860 321 860 255 832 c 1,21,-1
 255 30 l 1,22,23
 316 0 316 0 396 0 c 0,24,25
 475 0 475 0 540 30 c 1,16,-1
EndSplineSet
EndChar

StartChar: one
Encoding: 49 49 20
Width: 797
GlyphClass: 2
Flags: W
LayerCount: 2
Fore
SplineSet
511 0 m 1,0,-1
 280 0 l 1,1,-1
 280 736 l 1,2,-1
 177 736 l 1,3,-1
 177 766 l 1,4,5
 304 773 304 773 396 870 c 1,6,-1
 511 870 l 1,7,-1
 511 0 l 1,0,-1
EndSplineSet
EndChar

StartChar: two
Encoding: 50 50 21
Width: 797
GlyphClass: 2
Flags: W
LayerCount: 2
Fore
SplineSet
729 173 m 0,0,1
 729 73 729 73 667 19 c 0,2,3
 612 -30 612 -30 533 -30 c 0,4,5
 463 -30 463 -30 357.5 11.5 c 128,-1,6
 252 53 252 53 221 53 c 0,7,8
 171 53 171 53 171 6 c 1,9,-1
 85 6 l 1,10,11
 81 98 81 98 81 98 c 1,12,13
 81 282 81 282 221 336 c 0,14,15
 274 357 274 357 366 369 c 0,16,17
 463 379 463 379 475 383 c 1,18,-1
 475 853 l 1,19,20
 448 860 448 860 386 860 c 0,21,22
 256 860 256 860 183 796.5 c 128,-1,23
 110 733 110 733 110 644 c 0,24,25
 110 597 110 597 125 563 c 1,26,-1
 104 552 l 1,27,28
 85 597 85 597 85 642 c 0,29,30
 85 745 85 745 162 812 c 0,31,32
 248 887 248 887 393 887 c 0,33,34
 520 887 520 887 602 831 c 0,35,36
 701 762 701 762 701 625 c 0,37,38
 701 483 701 483 602 408 c 0,39,40
 522 351 522 351 393 344 c 0,41,42
 131 332 131 332 111 156 c 1,43,-1
 111 152 l 1,44,45
 115 167 115 167 166.5 184 c 128,-1,46
 218 201 218 201 261 201 c 0,47,48
 387 201 387 201 513 146 c 0,49,50
 658 85 658 85 684 81 c 1,51,52
 704 125 704 125 704 173 c 0,53,54
 704 224 704 224 669.5 260.5 c 128,-1,55
 635 297 635 297 585 297 c 0,56,57
 543 297 543 297 522 270 c 1,58,-1
 503 285 l 1,59,60
 526 321 526 321 585 321 c 256,61,62
 644 321 644 321 686.5 277.5 c 128,-1,63
 729 234 729 234 729 173 c 0,0,1
EndSplineSet
EndChar

StartChar: three
Encoding: 51 51 22
Width: 797
GlyphClass: 2
Flags: W
LayerCount: 2
Fore
SplineSet
728 296 m 0,0,1
 728 158 728 158 642 74 c 0,2,3
 549 -19 549 -19 376 -19 c 0,4,5
 204 -19 204 -19 122 60 c 0,6,7
 62 116 62 116 57 198 c 1,8,-1
 82 198 l 1,9,10
 88 106 88 106 169 56 c 0,11,12
 244 6 244 6 366 6 c 0,13,14
 425 6 425 6 500 24 c 1,15,-1
 500 455 l 2,16,17
 500 492 500 492 411 492 c 2,18,-1
 241 492 l 1,19,-1
 241 528 l 1,20,-1
 418 528 l 2,21,22
 475 528 475 528 475 552 c 2,23,-1
 475 849 l 1,24,25
 424 860 424 860 378 860 c 0,26,27
 254 860 254 860 186 798 c 0,28,29
 130 749 130 749 130 684 c 0,30,31
 130 616 130 616 177 588 c 1,32,-1
 163 568 l 1,33,34
 106 605 106 605 106 691 c 0,35,36
 106 760 106 760 167 815 c 0,37,38
 241 885 241 885 376 885 c 0,39,40
 531 885 531 885 602 815 c 0,41,42
 657 763 657 763 657 680 c 0,43,44
 657 622 657 622 624 578 c 0,45,46
 604 554 604 554 581 531 c 1,47,48
 627 514 627 514 671 461 c 0,49,50
 728 388 728 388 728 296 c 0,0,1
EndSplineSet
EndChar

StartChar: four
Encoding: 52 52 23
Width: 797
GlyphClass: 2
Flags: W
LayerCount: 2
Fore
SplineSet
760 207 m 1,0,-1
 652 207 l 1,1,-1
 652 0 l 1,2,-1
 421 0 l 1,3,-1
 421 207 l 1,4,-1
 49 207 l 1,5,-1
 49 304 l 1,6,-1
 461 870 l 1,7,-1
 652 870 l 1,8,-1
 652 291 l 1,9,-1
 760 291 l 1,10,-1
 760 207 l 1,0,-1
421 291 m 1,11,-1
 421 770 l 1,12,-1
 69 291 l 1,13,-1
 421 291 l 1,11,-1
EndSplineSet
EndChar

StartChar: five
Encoding: 53 53 24
Width: 797
GlyphClass: 2
Flags: W
LayerCount: 2
Fore
SplineSet
729 296 m 0,0,1
 729 161 729 161 642 77 c 0,2,3
 546 -21 546 -21 361 -21 c 0,4,5
 214 -21 214 -21 125 76 c 0,6,7
 65 141 65 141 57 201 c 1,8,-1
 81 206 l 1,9,10
 98 136 98 136 154 82 c 0,11,12
 236 6 236 6 363 6 c 0,13,14
 452 6 452 6 504 25 c 1,15,-1
 504 541 l 1,16,17
 471 559 471 559 386 559 c 0,18,19
 294 559 294 559 221 507 c 0,20,21
 169 471 169 471 144 423 c 0,22,23
 142 421 142 421 121 428 c 1,24,-1
 173 870 l 1,25,-1
 676 870 l 1,26,-1
 676 733 l 1,27,-1
 182 733 l 1,28,-1
 153 483 l 1,29,30
 258 581 258 581 388 581 c 0,31,32
 561 581 561 581 652 496 c 0,33,34
 729 420 729 420 729 296 c 0,0,1
EndSplineSet
EndChar

StartChar: six
Encoding: 54 54 25
Width: 797
GlyphClass: 2
Flags: W
LayerCount: 2
Fore
SplineSet
745 300 m 0,0,1
 745 160 745 160 638 68 c 0,2,3
 539 -19 539 -19 404 -19 c 0,4,5
 237 -19 237 -19 143 92.5 c 128,-1,6
 49 204 49 204 49 399 c 0,7,8
 49 605 49 605 138 736 c 0,9,10
 237 883 237 883 418 883 c 0,11,12
 524 883 524 883 610 832 c 0,13,14
 682 789 682 789 695 740 c 1,15,-1
 695 740 l 1,16,-1
 675 729 l 1,17,18
 654 780 654 780 583 817 c 0,19,20
 509 858 509 858 418 858 c 0,21,22
 359 858 359 858 283 832 c 1,23,-1
 283 522 l 1,24,25
 353 569 353 569 446 569 c 0,26,27
 600 569 600 569 682 471 c 0,28,29
 745 398 745 398 745 300 c 0,0,1
524 28 m 1,30,-1
 524 535 l 1,31,32
 505 545 505 545 447 545 c 0,33,34
 333 545 333 545 283 486 c 1,35,-1
 283 26 l 1,36,37
 338 8 338 8 406 8 c 0,38,39
 471 8 471 8 524 28 c 1,30,-1
EndSplineSet
EndChar

StartChar: seven
Encoding: 55 55 26
Width: 797
GlyphClass: 2
Flags: W
LayerCount: 2
Fore
SplineSet
674 821 m 1,0,-1
 217 0 l 1,1,-1
 190 0 l 1,2,-1
 597 733 l 1,3,-1
 105 733 l 1,4,-1
 105 870 l 1,5,-1
 674 870 l 1,6,-1
 674 821 l 1,0,-1
EndSplineSet
EndChar

StartChar: eight
Encoding: 56 56 27
Width: 797
GlyphClass: 2
Flags: W
LayerCount: 2
Fore
SplineSet
721 244 m 0,0,1
 721 -17 721 -17 389 -17 c 0,2,3
 65 -17 65 -17 65 244 c 0,4,5
 65 411 65 411 218 454 c 1,6,-1
 218 464 l 1,7,8
 113 505 113 505 113 650 c 0,9,10
 113 757 113 757 195 819 c 0,11,12
 272 877 272 877 396 877 c 0,13,14
 517 877 517 877 595.5 817 c 128,-1,15
 674 757 674 757 674 650 c 0,16,17
 674 505 674 505 568 464 c 1,18,-1
 568 454 l 1,19,20
 721 411 721 411 721 244 c 0,0,1
481 522 m 2,21,-1
 481 780 l 2,22,23
 481 822 481 822 393 822 c 0,24,25
 302 822 302 822 302 780 c 2,26,-1
 302 522 l 2,27,28
 302 509 302 509 325 494 c 0,29,30
 351 475 351 475 393 475 c 0,31,32
 437 475 437 475 461 494 c 0,33,34
 481 507 481 507 481 522 c 2,21,-1
494 82 m 2,35,-1
 494 383 l 2,36,37
 494 396 494 396 469 407 c 0,38,39
 440 420 440 420 393 420 c 0,40,41
 348 420 348 420 319.5 408 c 128,-1,42
 291 396 291 396 291 383 c 2,43,-1
 291 82 l 2,44,45
 291 69 291 69 312 57 c 0,46,47
 340 42 340 42 391 42 c 256,48,49
 442 42 442 42 471 57 c 0,50,51
 494 69 494 69 494 82 c 2,35,-1
EndSplineSet
EndChar

StartChar: nine
Encoding: 57 57 28
Width: 797
GlyphClass: 2
Flags: W
LayerCount: 2
Fore
SplineSet
745 465 m 0,0,1
 745 261 745 261 658 130 c 0,2,3
 559 -17 559 -17 376 -17 c 0,4,5
 270 -17 270 -17 184 34 c 0,6,7
 111 77 111 77 96 125 c 1,8,-1
 98 125 l 1,9,-1
 119 136 l 1,10,11
 141 86 141 86 210 49 c 0,12,13
 285 9 285 9 376 9 c 0,14,15
 438 9 438 9 509 36 c 1,16,-1
 509 344 l 1,17,18
 446 297 446 297 349 297 c 0,19,20
 197 297 197 297 117 387 c 0,21,22
 49 464 49 464 49 588 c 0,23,24
 49 726 49 726 148 807 c 0,25,26
 243 885 243 885 388 885 c 0,27,28
 554 885 554 885 649.5 772 c 128,-1,29
 745 659 745 659 745 465 c 0,0,1
509 381 m 1,30,-1
 509 840 l 1,31,32
 454 860 454 860 388 860 c 0,33,34
 333 860 333 860 268 838 c 1,35,-1
 268 332 l 1,36,37
 291 321 291 321 349 321 c 0,38,39
 463 321 463 321 509 381 c 1,30,-1
EndSplineSet
EndChar

StartChar: colon
Encoding: 58 58 29
Width: 334
GlyphClass: 2
Flags: W
LayerCount: 2
Fore
SplineSet
294 512 m 0,0,1
 294 462 294 462 255 422 c 128,-1,2
 216 382 216 382 164 382 c 0,3,4
 110 382 110 382 72 421 c 128,-1,5
 34 460 34 460 34 512 c 256,6,7
 34 564 34 564 72 603 c 128,-1,8
 110 642 110 642 164 642 c 0,9,10
 216 642 216 642 255 603 c 128,-1,11
 294 564 294 564 294 512 c 0,0,1
294 108 m 0,12,13
 294 58 294 58 255 19 c 128,-1,14
 216 -20 216 -20 164 -20 c 0,15,16
 110 -20 110 -20 72 18 c 128,-1,17
 34 56 34 56 34 108 c 256,18,19
 34 160 34 160 72 199 c 128,-1,20
 110 238 110 238 164 238 c 0,21,22
 216 238 216 238 255 199 c 128,-1,23
 294 160 294 160 294 108 c 0,12,13
EndSplineSet
EndChar

StartChar: semicolon
Encoding: 59 59 30
Width: 398
GlyphClass: 2
Flags: W
LayerCount: 2
Fore
SplineSet
294 544 m 0,0,1
 294 492 294 492 255 453 c 128,-1,2
 216 414 216 414 164 414 c 0,3,4
 110 414 110 414 72 452 c 128,-1,5
 34 490 34 490 34 544 c 0,6,7
 34 596 34 596 72 634 c 128,-1,8
 110 672 110 672 164 672 c 0,9,10
 216 672 216 672 255 633 c 128,-1,11
 294 594 294 594 294 544 c 0,0,1
348 132 m 0,12,13
 348 40 348 40 302 -30 c 0,14,15
 248 -114 248 -114 144 -144 c 1,16,-1
 136 -112 l 1,17,18
 230 -92 230 -92 280 14 c 1,19,20
 236 -16 236 -16 188 -16 c 0,21,22
 124 -16 124 -16 80 29 c 128,-1,23
 36 74 36 74 36 138 c 256,24,25
 36 202 36 202 81 246 c 128,-1,26
 126 290 126 290 188 290 c 0,27,28
 256 290 256 290 302 244 c 128,-1,29
 348 198 348 198 348 132 c 0,12,13
EndSplineSet
EndChar

StartChar: less
Encoding: 60 60 31
Width: 1240
GlyphClass: 2
Flags: W
LayerCount: 2
Fore
SplineSet
993 0 m 1,0,-1
 4 471 l 1,1,-1
 4 589 l 1,2,-1
 993 1070 l 1,3,-1
 993 859 l 1,4,-1
 261 531 l 1,5,-1
 993 202 l 1,6,-1
 993 0 l 1,0,-1
EndSplineSet
EndChar

StartChar: equal
Encoding: 61 61 32
Width: 890
GlyphClass: 2
Flags: W
LayerCount: 2
Fore
SplineSet
850 502 m 1,0,-1
 38 502 l 1,1,-1
 38 644 l 1,2,-1
 850 644 l 1,3,-1
 850 502 l 1,0,-1
850 168 m 1,4,-1
 38 168 l 1,5,-1
 38 312 l 1,6,-1
 850 312 l 1,7,-1
 850 168 l 1,4,-1
EndSplineSet
EndChar

StartChar: greater
Encoding: 62 62 33
Width: 1306
GlyphClass: 2
Flags: W
LayerCount: 2
Fore
SplineSet
242 202 m 1,0,-1
 974 531 l 1,1,-1
 242 859 l 1,2,-1
 242 1070 l 1,3,-1
 1231 589 l 1,4,-1
 1231 471 l 1,5,-1
 242 0 l 1,6,-1
 242 202 l 1,0,-1
EndSplineSet
EndChar

StartChar: question
Encoding: 63 63 34
Width: 938
GlyphClass: 2
Flags: W
LayerCount: 2
Fore
SplineSet
894 848 m 0,0,1
 894 678 894 678 784 590 c 0,2,3
 688 512 688 512 536 512 c 0,4,5
 374 512 374 512 374 388 c 2,6,-1
 374 286 l 1,7,-1
 336 286 l 1,8,-1
 336 386 l 2,9,10
 336 524 336 524 450 538 c 0,11,12
 514 542 514 542 612 558 c 1,13,-1
 612 1092 l 1,14,15
 558 1112 558 1112 442 1112 c 0,16,17
 300 1112 300 1112 209 1038 c 128,-1,18
 118 964 118 964 118 846 c 0,19,20
 118 768 118 768 152 734 c 1,21,-1
 126 714 l 1,22,23
 88 772 88 772 88 850 c 0,24,25
 88 968 88 968 174 1048 c 0,26,27
 274 1144 274 1144 468 1144 c 0,28,29
 678 1144 678 1144 786 1065 c 128,-1,30
 894 986 894 986 894 848 c 0,0,1
484 114 m 0,31,32
 484 64 484 64 445 25 c 128,-1,33
 406 -14 406 -14 356 -14 c 0,34,35
 300 -14 300 -14 262 24 c 128,-1,36
 224 62 224 62 224 114 c 0,37,38
 224 168 224 168 262 207 c 128,-1,39
 300 246 300 246 356 246 c 0,40,41
 406 246 406 246 445 206 c 128,-1,42
 484 166 484 166 484 114 c 0,31,32
EndSplineSet
EndChar

StartChar: at
Encoding: 64 64 35
Width: 1619
GlyphClass: 2
Flags: W
LayerCount: 2
Fore
SplineSet
877 71 m 0,0,1
 870 83 870 83 867 104 c 1,2,3
 849 87 849 87 827.5 71 c 128,-1,4
 806 55 806 55 783 41 c 0,5,6
 711 -2 711 -2 640 -2 c 0,7,8
 564 -2 564 -2 495 41 c 128,-1,9
 426 84 426 84 381 178 c 0,10,11
 336 269 336 269 336 371 c 0,12,13
 336 493 336 493 401 626 c 0,14,15
 467 758 467 758 568 824 c 0,16,17
 668 890 668 890 764 890 c 0,18,19
 843 890 843 890 903 851 c 0,20,21
 929 837 929 837 950.5 818.5 c 128,-1,22
 972 800 972 800 991 774 c 1,23,24
 996 798 996 798 1002 821.5 c 128,-1,25
 1008 845 1008 845 1013 865 c 1,26,-1
 1190 865 l 1,27,-1
 1073 320 l 1,28,-1
 1050 195 l 2,29,30
 1051 190 1051 190 1054 185.5 c 128,-1,31
 1057 181 1057 181 1062 176 c 2,32,-1
 1060 178 l 2,33,34
 1072 168 1072 168 1085 168 c 0,35,36
 1122 168 1122 168 1181 210 c 0,37,38
 1263 267 1263 267 1316 371 c 0,39,40
 1370 474 1370 474 1370 583 c 0,41,42
 1370 702 1370 702 1304 813 c 0,43,44
 1272 869 1272 869 1223.5 913 c 128,-1,45
 1175 957 1175 957 1112 991 c 0,46,47
 1048 1021 1048 1021 977.5 1040.5 c 128,-1,48
 907 1060 907 1060 829 1060 c 0,49,50
 648 1060 648 1060 503 976 c 0,51,52
 429 934 429 934 372.5 874 c 128,-1,53
 316 814 316 814 274 733 c 0,54,55
 191 570 191 570 191 402 c 0,56,57
 191 311 191 311 211 230.5 c 128,-1,58
 231 150 231 150 271 83.5 c 128,-1,59
 311 17 311 17 369 -34 c 128,-1,60
 427 -85 427 -85 504 -118 c 0,61,62
 582 -152 582 -152 668 -168 c 128,-1,63
 754 -184 754 -184 849 -184 c 0,64,65
 1050 -184 1050 -184 1181 -119 c 0,66,67
 1315 -54 1315 -54 1393 54 c 1,68,-1
 1574 54 l 1,69,70
 1519 -65 1519 -65 1421 -148 c 0,71,72
 1374 -188 1374 -188 1310.5 -223.5 c 128,-1,73
 1247 -259 1247 -259 1181 -285 c 0,74,75
 1152 -295 1152 -295 1113 -305.5 c 128,-1,76
 1074 -316 1074 -316 1031 -324 c 0,77,78
 993 -331 993 -331 951 -334.5 c 128,-1,79
 909 -338 909 -338 852 -338 c 0,80,81
 716 -338 716 -338 599 -312 c 128,-1,82
 482 -286 482 -286 387 -235.5 c 128,-1,83
 292 -185 292 -185 220.5 -110.5 c 128,-1,84
 149 -36 149 -36 104 61 c 0,85,86
 37 219 37 219 37 388 c 0,87,88
 37 488 37 488 57.5 580 c 128,-1,89
 78 672 78 672 117 760 c 0,90,91
 217 973 217 973 394 1091 c 0,92,93
 575 1210 575 1210 835 1210 c 0,94,95
 935 1210 935 1210 1022 1190.5 c 128,-1,96
 1109 1171 1109 1171 1191 1129 c 0,97,98
 1272 1090 1272 1090 1335.5 1029 c 128,-1,99
 1399 968 1399 968 1448 883 c 0,100,101
 1523 740 1523 740 1523 581 c 0,102,103
 1523 464 1523 464 1480.5 359 c 128,-1,104
 1438 254 1438 254 1358 163 c 0,105,106
 1285 85 1285 85 1202.5 41.5 c 128,-1,107
 1120 -2 1120 -2 1033 -2 c 2,108,-1
 1012 -2 l 1,109,-1
 977 0 l 2,110,111
 954 4 954 4 933 18 c 1,112,-1
 934 18 l 1,113,114
 917 27 917 27 903.5 40.5 c 128,-1,115
 890 54 890 54 877 71 c 0,0,1
521 360 m 0,116,117
 521 261 521 261 566 207 c 0,118,119
 610 154 610 154 667 154 c 0,120,121
 707 154 707 154 753.5 178.5 c 128,-1,122
 800 203 800 203 839 251 c 0,123,124
 859 274 859 274 876.5 305.5 c 128,-1,125
 894 337 894 337 907 376 c 0,126,127
 936 455 936 455 936 530 c 0,128,129
 936 627 936 627 889 682 c 0,130,131
 844 735 844 735 774 735 c 0,132,133
 751 735 751 735 730 729.5 c 128,-1,134
 709 724 709 724 690 711 c 0,135,136
 646 687 646 687 611 636 c 128,-1,137
 576 585 576 585 545 500 c 1,138,-1
 545 501 l 1,139,140
 521 427 521 427 521 360 c 0,116,117
EndSplineSet
EndChar

StartChar: bracketleft
Encoding: 91 91 36
Width: 426
GlyphClass: 2
Flags: W
LayerCount: 2
Fore
SplineSet
89 1496 m 1,0,-1
 404 1496 l 1,1,-1
 404 1328 l 1,2,-1
 252 1328 l 1,3,-1
 252 -81 l 1,4,-1
 404 -81 l 1,5,-1
 404 -259 l 1,6,-1
 89 -259 l 1,7,-1
 89 1496 l 1,0,-1
EndSplineSet
EndChar

StartChar: backslash
Encoding: 92 92 37
Width: 865
GlyphClass: 2
Flags: W
LayerCount: 2
Fore
SplineSet
184 1239 m 1,0,-1
 838 -119 l 1,1,-1
 674 -119 l 1,2,-1
 16 1239 l 1,3,-1
 184 1239 l 1,0,-1
EndSplineSet
EndChar

StartChar: bracketright
Encoding: 93 93 38
Width: 428
GlyphClass: 2
Flags: W
LayerCount: 2
Fore
SplineSet
331 -259 m 1,0,-1
 16 -259 l 1,1,-1
 16 -81 l 1,2,-1
 169 -81 l 1,3,-1
 169 1328 l 1,4,-1
 16 1328 l 1,5,-1
 16 1496 l 1,6,-1
 331 1496 l 1,7,-1
 331 -259 l 1,0,-1
EndSplineSet
EndChar

StartChar: asciicircum
Encoding: 94 94 39
Width: 719
GlyphClass: 2
Flags: W
LayerCount: 2
Fore
SplineSet
180 450 m 1,0,-1
 43 450 l 1,1,-1
 306 1234 l 1,2,-1
 414 1234 l 1,3,-1
 674 450 l 1,4,-1
 540 450 l 1,5,-1
 358 1032 l 1,6,-1
 180 450 l 1,0,-1
EndSplineSet
EndChar

StartChar: underscore
Encoding: 95 95 40
Width: 1192
GlyphClass: 2
Flags: W
LayerCount: 2
Fore
SplineSet
108 -333 m 1,0,-1
 108 -226 l 1,1,-1
 1083 -226 l 1,2,-1
 1083 -333 l 1,3,-1
 108 -333 l 1,0,-1
EndSplineSet
EndChar

StartChar: braceleft
Encoding: 123 123 41
Width: 623
GlyphClass: 2
Flags: W
LayerCount: 2
Fore
SplineSet
124 705 m 1,0,1
 178 705 178 705 213.5 737.5 c 128,-1,2
 249 770 249 770 260 823 c 1,3,-1
 260 820 l 1,4,-1
 265 921 l 2,5,6
 267 948 267 948 269 977.5 c 128,-1,7
 271 1007 271 1007 273 1034 c 0,8,9
 273 1111 273 1111 274 1164.5 c 128,-1,10
 275 1218 275 1218 277 1247 c 0,11,12
 279 1277 279 1277 284.5 1305.5 c 128,-1,13
 290 1334 290 1334 299 1358 c 0,14,15
 318 1407 318 1407 345 1437.5 c 128,-1,16
 372 1468 372 1468 420 1485 c 0,17,18
 460 1500 460 1500 518 1500 c 2,19,-1
 578 1500 l 1,20,-1
 578 1319 l 1,21,-1
 533 1319 l 2,22,23
 473 1319 473 1319 451 1287 c 1,24,-1
 452 1288 l 1,25,26
 432 1259 432 1259 432 1151 c 2,27,-1
 432 960 l 1,28,-1
 429 892 l 2,29,30
 429 867 429 867 423 851 c 0,31,32
 417 804 417 804 404.5 764.5 c 128,-1,33
 392 725 392 725 376 698 c 0,34,35
 363 678 363 678 342 655.5 c 128,-1,36
 321 633 321 633 297 613 c 1,37,38
 363 567 363 567 394 494 c 0,39,40
 412 449 412 449 422 376 c 128,-1,41
 432 303 432 303 432 203 c 2,42,-1
 434 -5 l 2,43,44
 437 -58 437 -58 454 -78 c 1,45,-1
 482 -93 l 1,46,47
 501 -97 501 -97 533 -97 c 2,48,-1
 578 -97 l 1,49,-1
 578 -275 l 1,50,-1
 518 -275 l 2,51,52
 442 -275 442 -275 409 -261 c 0,53,54
 363 -237 363 -237 324 -189 c 1,55,56
 298 -148 298 -148 281 -64 c 0,57,58
 277 -29 277 -29 275 31.5 c 128,-1,59
 273 92 273 92 273 177 c 0,60,61
 273 258 273 258 270 313.5 c 128,-1,62
 267 369 267 369 260 399 c 0,63,64
 248 454 248 454 220 485 c 1,65,66
 200 499 200 499 176.5 507 c 128,-1,67
 153 515 153 515 124 515 c 1,68,-1
 124 705 l 1,0,1
EndSplineSet
EndChar

StartChar: bar
Encoding: 124 124 42
Width: 313
GlyphClass: 2
Flags: W
LayerCount: 2
Fore
SplineSet
70 -259 m 1,0,-1
 70 1586 l 1,1,-1
 242 1586 l 1,2,-1
 239 -259 l 1,3,-1
 70 -259 l 1,0,-1
EndSplineSet
EndChar

StartChar: braceright
Encoding: 125 125 43
Width: 547
GlyphClass: 2
Flags: W
LayerCount: 2
Fore
SplineSet
489 517 m 1,0,1
 458 517 458 517 435 510 c 128,-1,2
 412 503 412 503 395 489 c 0,3,4
 379 472 379 472 368 451 c 128,-1,5
 357 430 357 430 351 401 c 0,6,7
 339 341 339 341 339 179 c 0,8,9
 339 11 339 11 330 -59 c 0,10,11
 316 -146 316 -146 289 -187 c 0,12,13
 270 -210 270 -210 248.5 -228.5 c 128,-1,14
 227 -247 227 -247 203 -259 c 0,15,16
 170 -273 170 -273 94 -273 c 2,17,-1
 33 -273 l 1,18,-1
 33 -95 l 1,19,-1
 79 -95 l 2,20,21
 96 -95 96 -95 108 -93.5 c 128,-1,22
 120 -92 120 -92 131 -90 c 2,23,-1
 158 -76 l 1,24,25
 176 -55 176 -55 179 -2 c 0,26,27
 179 49 179 49 180 101 c 128,-1,28
 181 153 181 153 181 205 c 0,29,30
 181 306 181 306 190 378.5 c 128,-1,31
 199 451 199 451 218 496 c 0,32,33
 252 572 252 572 315 615 c 1,34,35
 290 635 290 635 269 657.5 c 128,-1,36
 248 680 248 680 235 700 c 0,37,38
 219 726 219 726 207.5 767 c 128,-1,39
 196 808 196 808 188 853 c 0,40,41
 185 861 185 861 184.5 870.5 c 128,-1,42
 184 880 184 880 184 894 c 2,43,-1
 181 962 l 1,44,-1
 181 1153 l 2,45,46
 181 1261 181 1261 161 1290 c 1,47,-1
 162 1289 l 1,48,49
 140 1321 140 1321 79 1321 c 2,50,-1
 33 1321 l 1,51,-1
 33 1502 l 1,52,-1
 94 1502 l 2,53,54
 153 1502 153 1502 191 1487 c 0,55,56
 237 1470 237 1470 265.5 1439 c 128,-1,57
 294 1408 294 1408 311 1360 c 0,58,59
 321 1336 321 1336 326.5 1307.5 c 128,-1,60
 332 1279 332 1279 334 1249 c 0,61,62
 336 1220 336 1220 337.5 1166 c 128,-1,63
 339 1112 339 1112 339 1037 c 1,64,-1
 348 923 l 1,65,-1
 352 825 l 1,66,67
 364 773 364 773 399 740 c 128,-1,68
 434 707 434 707 489 707 c 1,69,-1
 489 517 l 1,0,1
EndSplineSet
EndChar

StartChar: asciitilde
Encoding: 126 126 44
Width: 1161
GlyphClass: 2
Flags: W
LayerCount: 2
Fore
SplineSet
1045 747 m 1,0,-1
 1086 747 l 1,1,2
 1082 571 1082 571 1014 469.5 c 128,-1,3
 946 368 946 368 850 368 c 0,4,5
 807 368 807 368 757.5 389 c 128,-1,6
 708 410 708 410 503 535 c 0,7,8
 356 620 356 620 294 620 c 0,9,10
 229 620 229 620 183.5 562 c 128,-1,11
 138 504 138 504 118 371 c 1,12,-1
 75 371 l 1,13,14
 83 557 83 557 148.5 654.5 c 128,-1,15
 214 752 214 752 302 752 c 0,16,17
 342 752 342 752 387 732 c 0,18,19
 484 691 484 691 642.5 592.5 c 128,-1,20
 801 494 801 494 867 494 c 0,21,22
 936 494 936 494 985 559.5 c 128,-1,23
 1034 625 1034 625 1045 747 c 1,0,-1
EndSplineSet
EndChar

StartChar: cent
Encoding: 162 162 45
Width: 721
GlyphClass: 2
Flags: W
LayerCount: 2
Fore
SplineSet
598 156 m 1,0,1
 537 71 537 71 467 31 c 128,-1,2
 397 -9 397 -9 304 -17 c 1,3,-1
 228 -265 l 1,4,-1
 187 -265 l 1,5,-1
 262 -17 l 1,6,7
 177 -8 177 -8 128.5 47 c 128,-1,8
 80 102 80 102 80 188 c 0,9,10
 80 345 80 345 191.5 478.5 c 128,-1,11
 303 612 303 612 457 638 c 1,12,-1
 541 917 l 1,13,-1
 580 917 l 1,14,-1
 499 638 l 1,15,16
 580 638 580 638 616.5 607 c 128,-1,17
 653 576 653 576 653 523 c 0,18,19
 653 482 653 482 631.5 455.5 c 128,-1,20
 610 429 610 429 580 429 c 0,21,22
 557 429 557 429 544 442 c 128,-1,23
 531 455 531 455 531 476 c 0,24,25
 531 491 531 491 536 502 c 128,-1,26
 541 513 541 513 560.5 534.5 c 128,-1,27
 580 556 580 556 580 570 c 0,28,29
 580 578 580 578 575 585 c 0,30,31
 565 596 565 596 549.5 601 c 128,-1,32
 534 606 534 606 489 606 c 1,33,-1
 322 49 l 1,34,-1
 352 47 l 1,35,36
 470 47 470 47 580 173 c 1,37,-1
 598 156 l 1,0,1
284 57 m 1,38,-1
 445 598 l 1,39,40
 383 570 383 570 342 533 c 0,41,42
 274 467 274 467 237 380.5 c 128,-1,43
 200 294 200 294 200 205 c 0,44,45
 200 146 200 146 224 108 c 0,46,47
 243 81 243 81 284 57 c 1,38,-1
EndSplineSet
EndChar

StartChar: multiply
Encoding: 215 215 46
Width: 975
GlyphClass: 2
Flags: W
LayerCount: 2
Fore
SplineSet
267 230 m 1,0,-1
 515 479 l 1,1,-1
 267 728 l 1,2,-1
 308 768 l 1,3,-1
 556 520 l 1,4,-1
 805 768 l 1,5,-1
 844 728 l 1,6,-1
 595 480 l 1,7,-1
 845 230 l 1,8,-1
 805 190 l 1,9,-1
 555 439 l 1,10,-1
 307 190 l 1,11,-1
 267 230 l 1,0,-1
EndSplineSet
EndChar

StartChar: divide
Encoding: 247 247 47
Width: 890
GlyphClass: 2
Flags: W
LayerCount: 2
Fore
SplineSet
528 700 m 0,0,1
 528 648 528 648 489 609 c 128,-1,2
 450 570 450 570 398 570 c 0,3,4
 344 570 344 570 306 608 c 128,-1,5
 268 646 268 646 268 700 c 0,6,7
 268 752 268 752 306 790 c 128,-1,8
 344 828 344 828 398 828 c 0,9,10
 450 828 450 828 489 789 c 128,-1,11
 528 750 528 750 528 700 c 0,0,1
850 342 m 1,12,-1
 38 342 l 1,13,-1
 38 486 l 1,14,-1
 850 486 l 1,15,-1
 850 342 l 1,12,-1
528 108 m 0,16,17
 528 58 528 58 489 19 c 128,-1,18
 450 -20 450 -20 398 -20 c 0,19,20
 344 -20 344 -20 306 18 c 128,-1,21
 268 56 268 56 268 108 c 256,22,23
 268 160 268 160 306 199 c 128,-1,24
 344 238 344 238 398 238 c 0,25,26
 450 238 450 238 489 199 c 128,-1,27
 528 160 528 160 528 108 c 0,16,17
EndSplineSet
EndChar

StartChar: tm_visarga
Encoding: 2947 2947 48
Width: 1216
GlyphClass: 2
Flags: W
LayerCount: 2
Fore
SplineSet
808 682 m 0,0,1
 808 586 808 586 743 522 c 128,-1,2
 678 458 678 458 572 458 c 0,3,4
 500 458 500 458 437 524 c 128,-1,5
 374 590 374 590 374 676 c 0,6,7
 374 774 374 774 438 837 c 128,-1,8
 502 900 502 900 592 900 c 0,9,10
 690 900 690 900 754 826 c 0,11,12
 808 762 808 762 808 682 c 0,0,1
1148 216 m 0,13,14
 1148 120 1148 120 1084 55 c 128,-1,15
 1020 -10 1020 -10 914 -10 c 0,16,17
 840 -10 840 -10 777 56 c 128,-1,18
 714 122 714 122 714 210 c 0,19,20
 714 308 714 308 778 370 c 128,-1,21
 842 432 842 432 932 432 c 0,22,23
 1030 432 1030 432 1094 360 c 0,24,25
 1148 296 1148 296 1148 216 c 0,13,14
502 216 m 0,26,27
 502 120 502 120 437 55 c 128,-1,28
 372 -10 372 -10 266 -10 c 0,29,30
 194 -10 194 -10 131 56 c 128,-1,31
 68 122 68 122 68 210 c 0,32,33
 68 308 68 308 132 370 c 128,-1,34
 196 432 196 432 286 432 c 0,35,36
 384 432 384 432 448 360 c 0,37,38
 502 296 502 296 502 216 c 0,26,27
574 498 m 2,39,-1
 574 862 l 2,40,41
 574 870 574 870 560 870 c 0,42,43
 500 860 500 860 456 814 c 0,44,45
 400 758 400 758 400 676 c 0,46,47
 400 614 400 614 441 563 c 128,-1,48
 482 512 482 512 546 496 c 0,49,50
 558 494 558 494 564 494 c 0,51,52
 574 494 574 494 574 498 c 2,39,-1
914 32 m 2,53,-1
 914 394 l 2,54,55
 914 402 914 402 900 402 c 0,56,57
 842 394 842 394 796 348 c 0,58,59
 740 292 740 292 740 210 c 0,60,61
 740 146 740 146 781 96 c 128,-1,62
 822 46 822 46 886 30 c 0,63,64
 898 28 898 28 904 26 c 0,65,66
 914 26 914 26 914 32 c 2,53,-1
268 32 m 2,67,-1
 268 394 l 2,68,69
 268 402 268 402 254 402 c 0,70,71
 196 394 196 394 150 348 c 0,72,73
 94 292 94 292 94 210 c 0,74,75
 94 146 94 146 135 96 c 128,-1,76
 176 46 176 46 240 30 c 0,77,78
 252 28 252 28 258 26 c 0,79,80
 268 26 268 26 268 32 c 2,67,-1
EndSplineSet
EndChar

StartChar: tm_a
Encoding: 2949 2949 49
Width: 1772
GlyphClass: 2
Flags: W
LayerCount: 2
Fore
SplineSet
1716 -68 m 1,0,-1
 1418 -68 l 1,1,-1
 1418 270 l 1,2,-1
 1306 270 l 1,3,4
 1192 -122 1192 -122 642 -122 c 0,5,6
 408 -122 408 -122 234 14 c 0,7,8
 102 116 102 116 72 222 c 0,9,10
 62 254 62 254 62 272 c 0,11,12
 62 308 62 308 108 308 c 2,13,-1
 450 308 l 1,14,15
 388 370 388 370 388 470 c 0,16,17
 388 606 388 606 499 695 c 128,-1,18
 610 784 610 784 812 784 c 0,19,20
 1030 784 1030 784 1172 672 c 0,21,22
 1318 554 1318 554 1318 366 c 0,23,24
 1318 324 1318 324 1314 308 c 1,25,-1
 1418 308 l 1,26,-1
 1418 768 l 1,27,-1
 1716 768 l 1,28,-1
 1716 -68 l 1,0,-1
1056 342 m 2,29,-1
 1056 696 l 2,30,31
 1056 706 1056 706 990 726 c 0,32,33
 908 750 908 750 806 750 c 0,34,35
 634 750 634 750 527 675 c 128,-1,36
 420 600 420 600 420 472 c 0,37,38
 420 328 420 328 544 280 c 0,39,40
 548 280 548 280 548 282 c 0,41,42
 482 348 482 348 482 436 c 0,43,44
 482 516 482 516 541 580 c 128,-1,45
 600 644 600 644 692 644 c 0,46,47
 778 644 778 644 839 583 c 128,-1,48
 900 522 900 522 900 434 c 0,49,50
 900 352 900 352 856 308 c 1,51,-1
 1048 308 l 1,52,53
 1056 324 1056 324 1056 342 c 2,29,-1
686 266 m 2,54,-1
 686 602 l 2,55,56
 686 612 686 612 672 612 c 0,57,58
 620 612 620 612 572 566 c 0,59,60
 514 514 514 514 514 436 c 0,61,62
 514 350 514 350 580 298 c 0,63,64
 630 258 630 258 672 258 c 0,65,66
 686 258 686 258 686 266 c 2,54,-1
1052 14 m 2,67,-1
 1052 274 l 1,68,-1
 822 274 l 1,69,70
 760 226 760 226 664 226 c 0,71,72
 574 226 574 226 496 274 c 1,73,-1
 118 274 l 2,74,75
 94 274 94 274 104 242 c 0,76,77
 144 114 144 114 290 16 c 0,78,79
 448 -90 448 -90 636 -90 c 256,80,81
 824 -90 824 -90 956 -42 c 0,82,83
 1052 -4 1052 -4 1052 14 c 2,67,-1
EndSplineSet
EndChar

StartChar: tm_aa
Encoding: 2950 2950 50
Width: 2108
GlyphClass: 2
Flags: W
LayerCount: 2
Fore
SplineSet
2092 14 m 0,0,1
 2092 -158 2092 -158 1954 -246 c 0,2,3
 1840 -318 1840 -318 1666 -318 c 0,4,5
 1502 -318 1502 -318 1396 -260 c 0,6,7
 1316 -216 1316 -216 1292 -160 c 0,8,9
 1282 -136 1282 -136 1312 -136 c 2,10,-1
 1716 -136 l 1,11,-1
 1716 -168 l 1,12,-1
 1364 -168 l 2,13,14
 1334 -168 1334 -168 1352 -184 c 0,15,16
 1464 -286 1464 -286 1660 -286 c 0,17,18
 1824 -286 1824 -286 1824 -238 c 2,19,-1
 1824 224 l 2,20,21
 1824 244 1824 244 1784 244 c 0,22,23
 1770 244 1770 244 1716 224 c 1,24,-1
 1716 -68 l 1,25,-1
 1418 -68 l 1,26,-1
 1418 270 l 1,27,-1
 1306 270 l 1,28,29
 1192 -122 1192 -122 642 -122 c 0,30,31
 408 -122 408 -122 234 14 c 0,32,33
 102 116 102 116 72 222 c 0,34,35
 62 254 62 254 62 272 c 0,36,37
 62 308 62 308 108 308 c 2,38,-1
 450 308 l 1,39,40
 388 370 388 370 388 470 c 0,41,42
 388 606 388 606 499 695 c 128,-1,43
 610 784 610 784 812 784 c 0,44,45
 1030 784 1030 784 1172 672 c 0,46,47
 1318 554 1318 554 1318 366 c 0,48,49
 1318 324 1318 324 1314 308 c 1,50,-1
 1418 308 l 1,51,-1
 1418 768 l 1,52,-1
 1716 768 l 1,53,-1
 1716 260 l 1,54,55
 1782 286 1782 286 1816 286 c 0,56,57
 1936 286 1936 286 2012 218 c 0,58,59
 2092 144 2092 144 2092 14 c 0,0,1
1056 342 m 2,60,-1
 1056 696 l 2,61,62
 1056 706 1056 706 990 726 c 0,63,64
 908 750 908 750 806 750 c 0,65,66
 634 750 634 750 527 675 c 128,-1,67
 420 600 420 600 420 472 c 0,68,69
 420 328 420 328 544 280 c 0,70,71
 548 280 548 280 548 282 c 0,72,73
 482 348 482 348 482 436 c 0,74,75
 482 516 482 516 541 580 c 128,-1,76
 600 644 600 644 692 644 c 0,77,78
 778 644 778 644 839 583 c 128,-1,79
 900 522 900 522 900 434 c 0,80,81
 900 352 900 352 856 308 c 1,82,-1
 1048 308 l 1,83,84
 1056 324 1056 324 1056 342 c 2,60,-1
686 266 m 2,85,-1
 686 602 l 2,86,87
 686 612 686 612 672 612 c 0,88,89
 620 612 620 612 572 566 c 0,90,91
 514 514 514 514 514 436 c 0,92,93
 514 350 514 350 580 298 c 0,94,95
 630 258 630 258 672 258 c 0,96,97
 686 258 686 258 686 266 c 2,85,-1
1052 14 m 2,98,-1
 1052 274 l 1,99,-1
 822 274 l 1,100,101
 760 226 760 226 664 226 c 0,102,103
 574 226 574 226 496 274 c 1,104,-1
 118 274 l 2,105,106
 94 274 94 274 104 242 c 0,107,108
 144 114 144 114 290 16 c 0,109,110
 448 -90 448 -90 636 -90 c 256,111,112
 824 -90 824 -90 956 -42 c 0,113,114
 1052 -4 1052 -4 1052 14 c 2,98,-1
EndSplineSet
EndChar

StartChar: tm_i
Encoding: 2951 2951 51
Width: 1744
GlyphClass: 2
Flags: W
LayerCount: 2
Fore
SplineSet
1652 0 m 1,0,-1
 1618 0 l 1,1,-1
 1618 558 l 2,2,3
 1618 784 1618 784 1452 930 c 1,4,-1
 452 930 l 1,5,6
 252 764 252 764 252 510 c 0,7,8
 252 392 252 392 278 308 c 1,9,10
 334 328 334 328 450 344 c 1,11,12
 394 400 394 400 394 498 c 0,13,14
 394 634 394 634 502 720 c 0,15,16
 618 812 618 812 820 812 c 0,17,18
 1042 812 1042 812 1183 699 c 128,-1,19
 1324 586 1324 586 1324 420 c 0,20,21
 1324 376 1324 376 1318 316 c 1,22,23
 1570 252 1570 252 1570 76 c 0,24,25
 1570 -42 1570 -42 1402 -116 c 128,-1,26
 1234 -190 1234 -190 966 -190 c 0,27,28
 838 -190 838 -190 730 -156 c 1,29,30
 594 -184 594 -184 458 -184 c 0,31,32
 294 -184 294 -184 186 -118 c 0,33,34
 72 -46 72 -46 72 68 c 0,35,36
 72 222 72 222 246 294 c 1,37,38
 216 390 216 390 216 512 c 0,39,40
 216 774 216 774 424 954 c 128,-1,41
 632 1134 632 1134 940 1134 c 0,42,43
 1238 1134 1238 1134 1440 982 c 0,44,45
 1652 824 1652 824 1652 566 c 2,46,-1
 1652 0 l 1,0,-1
1024 364 m 2,47,-1
 1024 742 l 1,48,49
 946 778 946 778 814 778 c 0,50,51
 642 778 642 778 535 703 c 128,-1,52
 428 628 428 628 428 500 c 0,53,54
 428 352 428 352 552 310 c 0,55,56
 556 308 556 308 556 310 c 0,57,58
 490 376 490 376 490 464 c 0,59,60
 490 544 490 544 549 608 c 128,-1,61
 608 672 608 672 700 672 c 0,62,63
 786 672 786 672 846 611 c 128,-1,64
 906 550 906 550 906 462 c 0,65,66
 906 402 906 402 882 362 c 1,67,68
 924 362 924 362 1020 356 c 0,69,70
 1024 358 1024 358 1024 364 c 2,47,-1
694 294 m 2,71,-1
 694 630 l 2,72,73
 694 638 694 638 680 638 c 0,74,75
 628 638 628 638 580 594 c 0,76,77
 522 540 522 540 522 464 c 0,78,79
 522 378 522 378 588 324 c 0,80,81
 636 286 636 286 678 286 c 0,82,83
 694 286 694 286 694 294 c 2,71,-1
1024 -10 m 1,84,-1
 1024 316 l 2,85,86
 1024 324 1024 324 1018 324 c 0,87,88
 922 330 922 330 858 330 c 1,89,90
 802 254 802 254 672 254 c 0,91,92
 562 254 562 254 480 316 c 1,93,94
 360 302 360 302 308 280 c 1,95,-1
 308 230 l 1,96,97
 424 -28 424 -28 732 -124 c 1,98,99
 918 -84 918 -84 1024 -10 c 1,84,-1
1336 -110 m 1,100,-1
 1336 276 l 1,101,102
 1336 276 1336 276 1312 284 c 1,103,104
 1278 128 1278 128 1132 16 c 0,105,106
 1002 -88 1002 -88 802 -140 c 1,107,108
 876 -158 876 -158 964 -158 c 0,109,110
 1240 -158 1240 -158 1336 -110 c 1,100,-1
668 -136 m 1,111,112
 424 -42 424 -42 308 152 c 1,113,-1
 308 -132 l 1,114,115
 380 -152 380 -152 458 -152 c 0,116,117
 562 -152 562 -152 668 -136 c 1,111,112
EndSplineSet
EndChar

StartChar: tm_ii
Encoding: 2952 2952 52
Width: 988
GlyphClass: 2
Flags: W
LayerCount: 2
Fore
SplineSet
898 736 m 1,0,-1
 720 736 l 1,1,-1
 720 0 l 1,2,-1
 422 0 l 1,3,-1
 422 736 l 1,4,-1
 110 736 l 1,5,-1
 110 0 l 1,6,-1
 78 0 l 1,7,-1
 78 768 l 1,8,-1
 898 768 l 1,9,-1
 898 736 l 1,0,-1
950 376 m 0,10,11
 950 332 950 332 923 299 c 128,-1,12
 896 266 896 266 858 266 c 256,13,14
 820 266 820 266 793 298 c 128,-1,15
 766 330 766 330 766 376 c 256,16,17
 766 422 766 422 793 454 c 128,-1,18
 820 486 820 486 858 486 c 256,19,20
 896 486 896 486 923 454 c 128,-1,21
 950 422 950 422 950 376 c 0,10,11
364 376 m 0,22,23
 364 332 364 332 337 299 c 128,-1,24
 310 266 310 266 272 266 c 256,25,26
 234 266 234 266 207 298 c 128,-1,27
 180 330 180 330 180 376 c 256,28,29
 180 422 180 422 207 454 c 128,-1,30
 234 486 234 486 272 486 c 256,31,32
 310 486 310 486 337 454 c 128,-1,33
 364 422 364 422 364 376 c 0,22,23
EndSplineSet
EndChar

StartChar: tm_u
Encoding: 2953 2953 53
Width: 1968
GlyphClass: 2
Flags: W
LayerCount: 2
Fore
SplineSet
1924 0 m 1,0,-1
 74 0 l 1,1,-1
 74 82 l 2,2,3
 74 152 74 152 122 170 c 0,4,5
 154 184 154 184 264 184 c 2,6,-1
 584 186 l 2,7,8
 710 186 710 186 710 196 c 2,9,-1
 710 762 l 1,10,11
 600 784 600 784 498 784 c 0,12,13
 128 784 128 784 128 494 c 0,14,15
 128 368 128 368 230 312 c 0,16,17
 232 312 232 312 230 316 c 0,18,19
 170 368 170 368 170 466 c 0,20,21
 170 546 170 546 228 609 c 128,-1,22
 286 672 286 672 378 672 c 0,23,24
 474 672 474 672 536 600 c 0,25,26
 588 540 588 540 588 468 c 0,27,28
 588 376 588 376 530 318 c 0,29,30
 466 252 466 252 350 252 c 256,31,32
 234 252 234 252 165 318 c 128,-1,33
 96 384 96 384 96 498 c 0,34,35
 96 636 96 636 186 720 c 0,36,37
 292 816 292 816 500 816 c 0,38,39
 988 816 988 816 988 478 c 0,40,41
 988 282 988 282 846 202 c 0,42,43
 760 152 760 152 644 152 c 2,44,-1
 342 152 l 2,45,46
 330 152 330 152 330 146 c 2,47,-1
 330 32 l 1,48,-1
 1924 34 l 1,49,-1
 1924 0 l 1,0,-1
374 290 m 2,50,-1
 374 636 l 2,51,52
 372 640 372 640 368 640 c 0,53,54
 304 640 304 640 253 587 c 128,-1,55
 202 534 202 534 202 464 c 0,56,57
 202 388 202 388 260 334 c 0,58,59
 310 288 310 288 366 288 c 0,60,61
 372 288 372 288 374 290 c 2,50,-1
EndSplineSet
EndChar

StartChar: tm_uu
Encoding: 2954 2954 54
Width: 2116
GlyphClass: 2
Flags: W
LayerCount: 2
Fore
SplineSet
2062 734 m 1,0,-1
 2012 734 l 1,1,-1
 2012 146 l 1,2,-1
 1808 146 l 1,3,-1
 1808 734 l 1,4,-1
 1690 734 l 1,5,-1
 1690 146 l 1,6,-1
 1512 146 l 1,7,-1
 1512 694 l 2,8,9
 1512 708 1512 708 1478 722 c 0,10,11
 1436 738 1436 738 1368 738 c 0,12,13
 1242 738 1242 738 1165 652 c 128,-1,14
 1088 566 1088 566 1088 438 c 0,15,16
 1088 290 1088 290 1160 210 c 1,17,-1
 1164 210 l 1,18,19
 1116 270 1116 270 1116 358 c 0,20,21
 1116 458 1116 458 1168 521 c 128,-1,22
 1220 584 1220 584 1294 584 c 0,23,24
 1374 584 1374 584 1426 510 c 0,25,26
 1472 444 1472 444 1472 364 c 0,27,28
 1472 274 1472 274 1424 212 c 0,29,30
 1366 138 1366 138 1262 138 c 0,31,32
 1182 138 1182 138 1126 208 c 0,33,34
 1062 290 1062 290 1062 434 c 256,35,36
 1062 578 1062 578 1142 670 c 0,37,38
 1226 772 1226 772 1376 772 c 0,39,40
 1574 772 1574 772 1660 610 c 1,41,-1
 1660 610 l 1,42,-1
 1660 768 l 1,43,-1
 2062 768 l 1,44,-1
 2062 734 l 1,0,-1
2058 0 m 1,45,-1
 74 0 l 1,46,-1
 74 82 l 2,47,48
 74 152 74 152 122 170 c 0,49,50
 154 184 154 184 264 184 c 2,51,-1
 584 186 l 2,52,53
 710 186 710 186 710 196 c 2,54,-1
 710 762 l 1,55,56
 600 784 600 784 498 784 c 0,57,58
 128 784 128 784 128 494 c 0,59,60
 128 368 128 368 230 312 c 0,61,62
 232 312 232 312 230 316 c 0,63,64
 170 368 170 368 170 466 c 0,65,66
 170 546 170 546 228 609 c 128,-1,67
 286 672 286 672 378 672 c 0,68,69
 474 672 474 672 536 600 c 0,70,71
 588 540 588 540 588 468 c 0,72,73
 588 376 588 376 530 318 c 0,74,75
 466 252 466 252 350 252 c 256,76,77
 234 252 234 252 165 318 c 128,-1,78
 96 384 96 384 96 498 c 0,79,80
 96 636 96 636 186 720 c 0,81,82
 292 816 292 816 500 816 c 0,83,84
 988 816 988 816 988 478 c 0,85,86
 988 282 988 282 846 202 c 0,87,88
 760 152 760 152 644 152 c 2,89,-1
 342 152 l 2,90,91
 330 152 330 152 330 146 c 2,92,-1
 330 32 l 1,93,-1
 2058 34 l 1,94,-1
 2058 0 l 1,45,-1
374 290 m 2,95,-1
 374 636 l 2,96,97
 372 640 372 640 368 640 c 0,98,99
 304 640 304 640 253 587 c 128,-1,100
 202 534 202 534 202 464 c 0,101,102
 202 388 202 388 260 334 c 0,103,104
 310 288 310 288 366 288 c 0,105,106
 372 288 372 288 374 290 c 2,95,-1
1280 180 m 2,107,-1
 1280 536 l 2,108,109
 1280 546 1280 546 1268 544 c 0,110,111
 1224 536 1224 536 1188 492 c 0,112,113
 1148 438 1148 438 1148 360 c 0,114,115
 1148 298 1148 298 1178 245 c 128,-1,116
 1208 192 1208 192 1256 178 c 0,117,118
 1280 170 1280 170 1280 180 c 2,107,-1
EndSplineSet
EndChar

StartChar: tm_e
Encoding: 2958 2958 55
Width: 1246
GlyphClass: 2
Flags: W
LayerCount: 2
Fore
SplineSet
1194 736 m 1,0,-1
 1118 736 l 1,1,-1
 1118 0 l 1,2,-1
 820 0 l 1,3,-1
 820 736 l 1,4,-1
 528 736 l 2,5,6
 338 736 338 736 219 629 c 128,-1,7
 100 522 100 522 100 362 c 0,8,9
 100 168 100 168 216 76 c 0,10,11
 220 70 220 70 230 74 c 1,12,13
 150 150 150 150 150 260 c 0,14,15
 150 384 150 384 230 462 c 128,-1,16
 310 540 310 540 420 540 c 0,17,18
 546 540 546 540 624 448 c 0,19,20
 692 368 692 368 692 268 c 0,21,22
 692 156 692 156 620 80 c 0,23,24
 534 -10 534 -10 374 -10 c 0,25,26
 252 -10 252 -10 168 78 c 0,27,28
 68 178 68 178 68 356 c 0,29,30
 68 532 68 532 188 644 c 0,31,32
 320 768 320 768 558 768 c 2,33,-1
 1194 768 l 1,34,-1
 1194 736 l 1,0,-1
402 40 m 2,35,-1
 402 494 l 2,36,37
 402 506 402 506 380 502 c 0,38,39
 308 492 308 492 250 434 c 0,40,41
 182 364 182 364 182 262 c 0,42,43
 182 182 182 182 234 120 c 128,-1,44
 286 58 286 58 366 38 c 0,45,46
 380 34 380 34 388 34 c 0,47,48
 402 32 402 32 402 40 c 2,35,-1
EndSplineSet
EndChar

StartChar: tm_ee
Encoding: 2959 2959 56
Width: 1240
GlyphClass: 2
Flags: W
LayerCount: 2
Fore
SplineSet
1194 736 m 1,0,-1
 1118 736 l 1,1,-1
 1118 0 l 1,2,-1
 580 -324 l 1,3,-1
 580 -286 l 1,4,-1
 820 -142 l 1,5,-1
 820 736 l 1,6,-1
 528 736 l 2,7,8
 338 736 338 736 219 629 c 128,-1,9
 100 522 100 522 100 362 c 0,10,11
 100 168 100 168 216 76 c 0,12,13
 220 70 220 70 230 74 c 1,14,15
 150 150 150 150 150 260 c 0,16,17
 150 384 150 384 230 462 c 128,-1,18
 310 540 310 540 420 540 c 0,19,20
 546 540 546 540 624 448 c 0,21,22
 692 368 692 368 692 268 c 0,23,24
 692 156 692 156 620 80 c 0,25,26
 534 -10 534 -10 374 -10 c 0,27,28
 252 -10 252 -10 168 78 c 0,29,30
 68 178 68 178 68 356 c 0,31,32
 68 532 68 532 188 644 c 0,33,34
 320 768 320 768 558 768 c 2,35,-1
 1194 768 l 1,36,-1
 1194 736 l 1,0,-1
402 40 m 2,37,-1
 402 494 l 2,38,39
 402 506 402 506 380 502 c 0,40,41
 308 492 308 492 250 434 c 0,42,43
 182 364 182 364 182 262 c 0,44,45
 182 182 182 182 234 120 c 128,-1,46
 286 58 286 58 366 38 c 0,47,48
 380 34 380 34 388 34 c 0,49,50
 402 32 402 32 402 40 c 2,37,-1
EndSplineSet
EndChar

StartChar: tm_ai
Encoding: 2960 2960 57
Width: 1418
GlyphClass: 2
Flags: W
LayerCount: 2
Fore
SplineSet
1358 502 m 0,0,1
 1358 372 1358 372 1292 288 c 0,2,3
 1210 186 1210 186 1050 186 c 2,4,-1
 368 186 l 2,5,6
 358 186 358 186 358 178 c 2,7,-1
 358 -204 l 2,8,9
 358 -214 358 -214 440 -214 c 0,10,11
 516 -214 516 -214 558 -166 c 0,12,13
 594 -126 594 -126 594 -68 c 2,14,-1
 594 134 l 1,15,-1
 868 134 l 1,16,-1
 868 -196 l 1,17,18
 912 -216 912 -216 998 -216 c 0,19,20
 1090 -216 1090 -216 1132 -204 c 1,21,-1
 1132 98 l 1,22,-1
 1044 98 l 1,23,-1
 1044 134 l 1,24,-1
 1120 134 l 2,25,26
 1216 134 1216 134 1280 96 c 0,27,28
 1354 50 1354 50 1354 -36 c 0,29,30
 1354 -144 1354 -144 1276 -194 c 0,31,32
 1190 -248 1190 -248 992 -248 c 0,33,34
 830 -248 830 -248 726 -178 c 0,35,36
 636 -120 636 -120 636 -52 c 1,37,-1
 634 -52 l 1,38,39
 634 -246 634 -246 416 -246 c 2,40,-1
 364 -246 l 2,41,42
 212 -246 212 -246 132 -178 c 0,43,44
 60 -116 60 -116 60 -18 c 2,45,-1
 60 4 l 2,46,47
 60 104 60 104 133 161 c 128,-1,48
 206 218 206 218 338 218 c 2,49,-1
 1078 218 l 2,50,51
 1084 218 1084 218 1084 226 c 2,52,-1
 1084 742 l 1,53,54
 1008 742 1008 742 956 714 c 0,55,56
 868 666 868 666 868 564 c 2,57,-1
 868 280 l 1,58,-1
 594 280 l 1,59,-1
 594 738 l 1,60,61
 540 756 540 756 452 756 c 0,62,63
 290 756 290 756 206 698 c 0,64,65
 100 626 100 626 100 512 c 0,66,67
 100 358 100 358 216 316 c 0,68,69
 218 316 218 316 220 318 c 0,70,71
 202 340 202 340 184 360 c 1,72,73
 156 404 156 404 156 460 c 0,74,75
 156 530 156 530 204 582 c 0,76,77
 256 642 256 642 340 642 c 0,78,79
 416 642 416 642 469 588 c 128,-1,80
 522 534 522 534 522 458 c 0,81,82
 522 394 522 394 484 344 c 0,83,84
 428 274 428 274 310 274 c 0,85,86
 68 274 68 274 68 508 c 0,87,88
 68 644 68 644 180 720 c 0,89,90
 284 790 284 790 452 790 c 0,91,92
 630 790 630 790 740 710 c 0,93,94
 818 652 818 652 834 584 c 0,95,96
 836 580 836 580 836 584 c 0,97,98
 842 660 842 660 900 716 c 0,99,100
 968 778 968 778 1078 778 c 0,101,102
 1222 778 1222 778 1298 684 c 0,103,104
 1358 608 1358 608 1358 502 c 0,0,1
344 312 m 2,105,-1
 344 604 l 2,106,107
 344 608 344 608 332 608 c 0,108,109
 276 608 276 608 232 565 c 128,-1,110
 188 522 188 522 188 460 c 0,111,112
 188 396 188 396 233 352 c 128,-1,113
 278 308 278 308 338 308 c 0,114,115
 344 308 344 308 344 312 c 2,105,-1
EndSplineSet
EndChar

StartChar: tm_o
Encoding: 2962 2962 58
Width: 1408
GlyphClass: 2
Flags: W
LayerCount: 2
Fore
SplineSet
1346 382 m 0,0,1
 1346 228 1346 228 1263 141 c 128,-1,2
 1180 54 1180 54 1020 54 c 0,3,4
 938 54 938 54 870 84 c 0,5,6
 796 116 796 116 772 168 c 1,7,8
 782 8 782 8 908 8 c 2,9,-1
 1134 8 l 1,10,-1
 1134 -96 l 1,11,-1
 1074 -96 l 2,12,13
 1018 -96 1018 -96 998 -160 c 0,14,15
 976 -236 976 -236 928 -270 c 0,16,17
 844 -326 844 -326 646 -326 c 0,18,19
 476 -326 476 -326 390 -264 c 0,20,21
 314 -208 314 -208 314 -112 c 0,22,23
 314 -34 314 -34 374 -2 c 1,24,-1
 388 -34 l 1,25,26
 346 -56 346 -56 346 -114 c 0,27,28
 346 -294 346 -294 646 -294 c 0,29,30
 770 -294 770 -294 830 -272 c 1,31,-1
 830 -12 l 1,32,33
 786 26 786 26 776 42 c 0,34,35
 736 106 736 106 736 216 c 0,36,37
 736 392 736 392 878 458 c 1,38,-1
 890 428 l 1,39,40
 782 376 782 376 782 254 c 0,41,42
 782 188 782 188 844 138 c 128,-1,43
 906 88 906 88 1012 88 c 0,44,45
 1038 88 1038 88 1048 90 c 1,46,-1
 1048 704 l 1,47,48
 882 756 882 756 686 756 c 0,49,50
 462 756 462 756 300 682 c 0,51,52
 94 588 94 588 94 366 c 0,53,54
 94 198 94 198 206 120 c 0,55,56
 212 114 212 114 222 118 c 1,57,58
 140 192 140 192 140 304 c 0,59,60
 140 426 140 426 222 508 c 0,61,62
 300 584 300 584 412 584 c 0,63,64
 536 584 536 584 614 492 c 0,65,66
 682 412 682 412 682 312 c 0,67,68
 682 200 682 200 610 124 c 0,69,70
 524 32 524 32 364 32 c 0,71,72
 242 32 242 32 156 116 c 0,73,74
 60 210 60 210 60 376 c 0,75,76
 60 576 60 576 232 684 c 0,77,78
 398 788 398 788 684 788 c 0,79,80
 984 788 984 788 1162 684 c 0,81,82
 1346 574 1346 574 1346 382 c 0,0,1
392 82 m 2,83,-1
 392 536 l 2,84,85
 392 548 392 548 372 546 c 0,86,87
 300 536 300 536 242 478 c 0,88,89
 174 410 174 410 174 308 c 0,90,91
 174 228 174 228 226 164 c 128,-1,92
 278 100 278 100 356 82 c 0,93,94
 370 78 370 78 378 78 c 0,95,96
 392 76 392 76 392 82 c 2,83,-1
EndSplineSet
EndChar

StartChar: tm_oo
Encoding: 2963 2963 59
Width: 1396
GlyphClass: 2
Flags: W
LayerCount: 2
Fore
SplineSet
1346 382 m 0,0,1
 1346 228 1346 228 1263 141 c 128,-1,2
 1180 54 1180 54 1020 54 c 0,3,4
 938 54 938 54 870 84 c 0,5,6
 796 116 796 116 772 168 c 1,7,-1
 772 168 l 1,8,9
 782 8 782 8 908 8 c 2,10,-1
 1134 8 l 1,11,-1
 1134 -96 l 1,12,-1
 1074 -96 l 2,13,14
 1018 -96 1018 -96 998 -160 c 0,15,16
 976 -236 976 -236 928 -270 c 0,17,18
 844 -328 844 -328 646 -328 c 0,19,20
 488 -328 488 -328 408 -270 c 0,21,22
 340 -218 340 -218 340 -138 c 0,23,24
 340 -76 340 -76 394 -30 c 0,25,26
 456 24 456 24 566 24 c 0,27,28
 724 22 724 22 786 -32 c 1,29,-1
 764 -54 l 1,30,31
 702 -4 702 -4 566 -4 c 0,32,33
 470 -4 470 -4 416 -52 c 0,34,35
 374 -90 374 -90 374 -138 c 0,36,37
 374 -294 374 -294 646 -294 c 0,38,39
 772 -294 772 -294 830 -272 c 1,40,-1
 830 -12 l 1,41,42
 786 26 786 26 776 42 c 0,43,44
 736 106 736 106 736 216 c 0,45,46
 736 392 736 392 878 458 c 1,47,-1
 890 428 l 1,48,49
 782 376 782 376 782 254 c 0,50,51
 782 188 782 188 844 138 c 128,-1,52
 906 88 906 88 1012 88 c 0,53,54
 1038 88 1038 88 1048 90 c 1,55,-1
 1048 704 l 1,56,57
 882 756 882 756 686 756 c 0,58,59
 456 756 456 756 300 682 c 0,60,61
 94 584 94 584 94 366 c 0,62,63
 94 198 94 198 206 120 c 0,64,65
 212 114 212 114 222 118 c 1,66,67
 140 192 140 192 140 304 c 0,68,69
 140 426 140 426 222 508 c 0,70,71
 300 584 300 584 412 584 c 0,72,73
 536 584 536 584 614 492 c 0,74,75
 682 412 682 412 682 312 c 0,76,77
 682 200 682 200 610 124 c 0,78,79
 524 32 524 32 364 32 c 0,80,81
 242 32 242 32 156 116 c 0,82,83
 60 210 60 210 60 376 c 0,84,85
 60 576 60 576 232 684 c 0,86,87
 398 788 398 788 684 788 c 0,88,89
 984 788 984 788 1162 684 c 0,90,91
 1346 574 1346 574 1346 382 c 0,0,1
392 82 m 2,92,-1
 392 536 l 2,93,94
 392 548 392 548 372 546 c 0,95,96
 300 536 300 536 242 478 c 0,97,98
 174 410 174 410 174 308 c 0,99,100
 174 228 174 228 226 164 c 128,-1,101
 278 100 278 100 356 82 c 0,102,103
 370 78 370 78 378 78 c 0,104,105
 392 76 392 76 392 82 c 2,92,-1
EndSplineSet
EndChar

StartChar: tm_au
Encoding: 2964 2964 60
Width: 3050
GlyphClass: 2
Flags: W
LayerCount: 2
Fore
SplineSet
2988 736 m 1,0,-1
 2912 736 l 1,1,-1
 2912 0 l 1,2,-1
 2614 0 l 1,3,-1
 2614 736 l 1,4,-1
 2420 736 l 1,5,-1
 2420 0 l 1,6,-1
 2164 0 l 1,7,-1
 2164 686 l 2,8,9
 2164 704 2164 704 2110 720 c 0,10,11
 2046 740 2046 740 1944 740 c 0,12,13
 1748 740 1748 740 1628 632 c 128,-1,14
 1508 524 1508 524 1508 362 c 0,15,16
 1508 160 1508 160 1624 76 c 0,17,18
 1628 70 1628 70 1638 74 c 1,19,20
 1558 150 1558 150 1558 260 c 0,21,22
 1558 384 1558 384 1638 462 c 128,-1,23
 1718 540 1718 540 1828 540 c 0,24,25
 1954 540 1954 540 2032 448 c 0,26,27
 2100 368 2100 368 2100 268 c 0,28,29
 2100 156 2100 156 2028 80 c 0,30,31
 1940 -10 1940 -10 1780 -10 c 0,32,33
 1660 -10 1660 -10 1574 78 c 0,34,35
 1474 178 1474 178 1474 356 c 0,36,37
 1474 532 1474 532 1596 646 c 0,38,39
 1728 772 1728 772 1956 772 c 0,40,41
 2264 772 2264 772 2388 572 c 1,42,-1
 2388 572 l 1,43,-1
 2388 768 l 1,44,-1
 2988 768 l 1,45,-1
 2988 736 l 1,0,-1
1346 382 m 0,46,47
 1346 228 1346 228 1263 141 c 128,-1,48
 1180 54 1180 54 1020 54 c 0,49,50
 938 54 938 54 870 84 c 0,51,52
 796 116 796 116 772 168 c 1,53,54
 782 8 782 8 908 8 c 2,55,-1
 1134 8 l 1,56,-1
 1134 -96 l 1,57,-1
 1074 -96 l 2,58,59
 1018 -96 1018 -96 998 -160 c 0,60,61
 976 -236 976 -236 928 -270 c 0,62,63
 844 -326 844 -326 646 -326 c 0,64,65
 476 -326 476 -326 390 -264 c 0,66,67
 314 -208 314 -208 314 -112 c 0,68,69
 314 -34 314 -34 374 -2 c 1,70,-1
 388 -34 l 1,71,72
 346 -56 346 -56 346 -114 c 0,73,74
 346 -294 346 -294 646 -294 c 0,75,76
 770 -294 770 -294 830 -272 c 1,77,-1
 830 -12 l 1,78,79
 786 26 786 26 776 42 c 0,80,81
 736 106 736 106 736 216 c 0,82,83
 736 392 736 392 878 458 c 1,84,-1
 890 428 l 1,85,86
 782 376 782 376 782 254 c 0,87,88
 782 188 782 188 844 138 c 128,-1,89
 906 88 906 88 1012 88 c 0,90,91
 1038 88 1038 88 1048 90 c 1,92,-1
 1048 704 l 1,93,94
 882 756 882 756 686 756 c 0,95,96
 462 756 462 756 300 682 c 0,97,98
 94 588 94 588 94 366 c 0,99,100
 94 198 94 198 206 120 c 0,101,102
 212 114 212 114 222 118 c 1,103,104
 140 192 140 192 140 304 c 0,105,106
 140 426 140 426 222 508 c 0,107,108
 300 584 300 584 412 584 c 0,109,110
 536 584 536 584 614 492 c 0,111,112
 682 412 682 412 682 312 c 0,113,114
 682 200 682 200 610 124 c 0,115,116
 524 32 524 32 364 32 c 0,117,118
 242 32 242 32 156 116 c 0,119,120
 60 210 60 210 60 376 c 0,121,122
 60 576 60 576 232 684 c 0,123,124
 398 788 398 788 684 788 c 0,125,126
 984 788 984 788 1162 684 c 0,127,128
 1346 574 1346 574 1346 382 c 0,46,47
392 82 m 2,129,-1
 392 536 l 2,130,131
 392 548 392 548 372 546 c 0,132,133
 300 536 300 536 242 478 c 0,134,135
 174 410 174 410 174 308 c 0,136,137
 174 228 174 228 226 164 c 128,-1,138
 278 100 278 100 356 82 c 0,139,140
 370 78 370 78 378 78 c 0,141,142
 392 76 392 76 392 82 c 2,129,-1
1808 40 m 2,143,-1
 1808 494 l 2,144,145
 1808 504 1808 504 1788 502 c 0,146,147
 1716 492 1716 492 1658 434 c 0,148,149
 1590 364 1590 364 1590 262 c 0,150,151
 1590 182 1590 182 1642 120 c 128,-1,152
 1694 58 1694 58 1774 38 c 0,153,154
 1800 32 1800 32 1804 34 c 256,155,156
 1808 36 1808 36 1808 40 c 2,143,-1
EndSplineSet
EndChar

StartChar: tm_ka
Encoding: 2965 2965 61
Width: 1246
GlyphClass: 2
Flags: W
LayerCount: 2
Fore
SplineSet
1192 266 m 0,0,1
 1192 -6 1192 -6 884 -6 c 0,2,3
 754 -6 754 -6 692 56 c 1,4,-1
 718 82 l 1,5,6
 744 42 744 42 820 30 c 0,7,8
 914 16 914 16 914 46 c 2,9,-1
 914 420 l 2,10,11
 914 458 914 458 886 458 c 2,12,-1
 788 458 l 1,13,-1
 788 242 l 2,14,15
 788 224 788 224 748 170 c 0,16,17
 696 100 696 100 620 54 c 0,18,19
 518 -6 518 -6 390 -6 c 256,20,21
 262 -6 262 -6 178 50 c 0,22,23
 74 122 74 122 74 266 c 0,24,25
 74 340 74 340 120 400 c 0,26,27
 174 470 174 470 264 484 c 1,28,-1
 264 768 l 1,29,-1
 1028 768 l 1,30,-1
 1028 736 l 1,31,-1
 788 736 l 1,32,-1
 788 492 l 1,33,-1
 902 492 l 2,34,35
 1050 492 1050 492 1126 422 c 0,36,37
 1192 362 1192 362 1192 266 c 0,0,1
490 492 m 1,38,-1
 490 736 l 1,39,-1
 296 736 l 1,40,-1
 296 492 l 1,41,-1
 490 492 l 1,38,-1
490 50 m 2,42,-1
 490 458 l 1,43,-1
 338 458 l 2,44,45
 210 458 210 458 150 386 c 0,46,47
 106 334 106 334 106 260 c 0,48,49
 106 26 106 26 398 26 c 0,50,51
 490 26 490 26 490 50 c 2,42,-1
EndSplineSet
EndChar

StartChar: tm_nga
Encoding: 2969 2969 62
Width: 1480
GlyphClass: 2
Flags: W
LayerCount: 2
Fore
SplineSet
1410 0 m 1,0,-1
 702 0 l 1,1,-1
 702 34 l 1,2,3
 740 34 740 34 740 50 c 2,4,-1
 740 434 l 2,5,6
 740 458 740 458 708 458 c 0,7,8
 664 458 664 458 632 437 c 128,-1,9
 600 416 600 416 600 386 c 2,10,-1
 600 -2 l 1,11,-1
 302 0 l 1,12,-1
 302 736 l 1,13,-1
 110 736 l 1,14,-1
 110 0 l 1,15,-1
 76 0 l 1,16,-1
 76 768 l 1,17,-1
 842 768 l 1,18,-1
 842 736 l 1,19,-1
 600 736 l 1,20,-1
 600 452 l 1,21,22
 610 470 610 470 655 485 c 128,-1,23
 700 500 700 500 742 500 c 0,24,25
 864 500 864 500 940 430 c 128,-1,26
 1016 360 1016 360 1016 238 c 0,27,28
 1016 104 1016 104 942 34 c 1,29,-1
 1112 34 l 1,30,-1
 1112 768 l 1,31,-1
 1410 768 l 1,32,-1
 1410 0 l 1,0,-1
EndSplineSet
EndChar

StartChar: tm_ca
Encoding: 2970 2970 63
Width: 1036
GlyphClass: 2
Flags: W
LayerCount: 2
Fore
SplineSet
984 736 m 1,0,-1
 788 736 l 1,1,-1
 788 492 l 1,2,-1
 978 492 l 1,3,-1
 978 458 l 1,4,-1
 788 458 l 1,5,-1
 788 242 l 2,6,7
 788 224 788 224 748 170 c 0,8,9
 696 100 696 100 620 54 c 0,10,11
 518 -6 518 -6 390 -6 c 256,12,13
 262 -6 262 -6 178 50 c 0,14,15
 74 122 74 122 74 266 c 0,16,17
 74 340 74 340 120 400 c 0,18,19
 174 470 174 470 264 484 c 1,20,-1
 264 768 l 1,21,-1
 984 768 l 1,22,-1
 984 736 l 1,0,-1
490 492 m 1,23,-1
 490 736 l 1,24,-1
 296 736 l 1,25,-1
 296 492 l 1,26,-1
 490 492 l 1,23,-1
490 50 m 2,27,-1
 490 458 l 1,28,-1
 338 458 l 2,29,30
 210 458 210 458 150 386 c 0,31,32
 106 334 106 334 106 260 c 0,33,34
 106 26 106 26 398 26 c 0,35,36
 490 26 490 26 490 50 c 2,27,-1
EndSplineSet
EndChar

StartChar: tm_ja
Encoding: 2972 2972 64
Width: 1420
GlyphClass: 2
Flags: W
LayerCount: 2
Fore
SplineSet
1358 502 m 0,0,1
 1358 372 1358 372 1292 288 c 0,2,3
 1210 186 1210 186 1050 186 c 2,4,-1
 366 186 l 2,5,6
 358 186 358 186 358 182 c 2,7,-1
 358 -208 l 2,8,9
 358 -214 358 -214 366 -214 c 0,10,11
 490 -214 490 -214 542 -196 c 0,12,13
 640 -162 640 -162 640 -76 c 0,14,15
 640 120 640 120 988 120 c 0,16,17
 1354 120 1354 120 1354 -56 c 0,18,19
 1354 -246 1354 -246 1044 -246 c 0,20,21
 940 -246 940 -246 872 -204 c 0,22,23
 792 -156 792 -156 792 -62 c 0,24,25
 792 36 792 36 898 84 c 1,26,27
 892 82 892 82 892 84 c 1,28,29
 676 60 676 60 676 -75 c 128,-1,30
 676 -210 676 -210 500 -238 c 0,31,32
 448 -246 448 -246 364 -246 c 0,33,34
 212 -246 212 -246 132 -178 c 0,35,36
 60 -118 60 -118 60 -18 c 2,37,-1
 60 4 l 2,38,39
 60 104 60 104 133 161 c 128,-1,40
 206 218 206 218 338 218 c 2,41,-1
 1078 218 l 2,42,43
 1084 218 1084 218 1084 226 c 2,44,-1
 1084 742 l 1,45,46
 1010 742 1010 742 956 714 c 0,47,48
 868 668 868 668 868 564 c 2,49,-1
 868 280 l 1,50,-1
 594 280 l 1,51,-1
 594 738 l 1,52,53
 540 756 540 756 452 756 c 0,54,55
 290 756 290 756 206 698 c 0,56,57
 100 626 100 626 100 512 c 0,58,59
 100 358 100 358 216 316 c 0,60,61
 218 316 218 316 220 318 c 0,62,63
 202 340 202 340 184 360 c 1,64,65
 156 404 156 404 156 460 c 0,66,67
 156 530 156 530 204 582 c 0,68,69
 256 642 256 642 340 642 c 0,70,71
 416 642 416 642 469 588 c 128,-1,72
 522 534 522 534 522 458 c 0,73,74
 522 394 522 394 484 344 c 0,75,76
 428 274 428 274 310 274 c 0,77,78
 68 274 68 274 68 508 c 0,79,80
 68 644 68 644 180 720 c 0,81,82
 284 790 284 790 452 790 c 0,83,84
 630 790 630 790 740 710 c 0,85,86
 818 652 818 652 834 584 c 0,87,88
 836 580 836 580 836 584 c 0,89,90
 842 660 842 660 900 716 c 0,91,92
 968 778 968 778 1078 778 c 0,93,94
 1222 778 1222 778 1298 684 c 0,95,96
 1358 608 1358 608 1358 502 c 0,0,1
344 312 m 2,97,-1
 344 604 l 2,98,99
 344 608 344 608 332 608 c 0,100,101
 276 608 276 608 232 565 c 128,-1,102
 188 522 188 522 188 460 c 0,103,104
 188 396 188 396 233 352 c 128,-1,105
 278 308 278 308 338 308 c 0,106,107
 344 308 344 308 344 312 c 2,97,-1
1076 -210 m 1,108,-1
 1076 88 l 1,109,-1
 1048 88 l 2,110,111
 968 88 968 88 906 56 c 0,112,113
 824 14 824 14 824 -68 c 0,114,115
 824 -210 824 -210 1048 -210 c 2,116,-1
 1076 -210 l 1,108,-1
EndSplineSet
EndChar

StartChar: tm_nya
Encoding: 2974 2974 65
Width: 1816
GlyphClass: 2
Flags: W
LayerCount: 2
Fore
SplineSet
1746 174 m 0,0,1
 1746 -312 1746 -312 924 -312 c 0,2,3
 552 -312 552 -312 340 -180 c 0,4,5
 84 -20 84 -20 84 316 c 0,6,7
 84 486 84 486 156 610 c 0,8,9
 218 714 218 714 310 758 c 1,10,-1
 324 728 l 1,11,12
 240 688 240 688 184 592 c 0,13,14
 118 478 118 478 118 316 c 0,15,16
 118 -280 118 -280 924 -280 c 0,17,18
 1158 -280 1158 -280 1318 -244 c 0,19,20
 1448 -214 1448 -214 1448 -188 c 2,21,-1
 1448 402 l 2,22,23
 1448 410 1448 410 1422 410 c 0,24,25
 1362 410 1362 410 1316 356 c 1,26,-1
 1316 0 l 1,27,-1
 1018 0 l 1,28,-1
 1018 736 l 1,29,-1
 728 736 l 2,30,31
 536 736 536 736 418 629 c 128,-1,32
 300 522 300 522 300 362 c 0,33,34
 300 160 300 160 416 76 c 0,35,36
 420 70 420 70 430 74 c 1,37,38
 348 152 348 152 348 260 c 0,39,40
 348 384 348 384 428 462 c 128,-1,41
 508 540 508 540 620 540 c 0,42,43
 744 540 744 540 822 448 c 0,44,45
 892 368 892 368 892 268 c 0,46,47
 892 156 892 156 818 80 c 0,48,49
 732 -10 732 -10 572 -10 c 0,50,51
 452 -10 452 -10 366 78 c 0,52,53
 266 178 266 178 266 356 c 0,54,55
 266 532 266 532 386 644 c 0,56,57
 518 768 518 768 756 768 c 2,58,-1
 1392 768 l 1,59,-1
 1392 736 l 1,60,-1
 1316 736 l 1,61,-1
 1316 404 l 1,62,63
 1380 458 1380 458 1490 458 c 0,64,65
 1610 458 1610 458 1678 381 c 128,-1,66
 1746 304 1746 304 1746 174 c 0,0,1
600 40 m 2,67,-1
 600 494 l 2,68,69
 600 504 600 504 580 502 c 0,70,71
 508 492 508 492 450 434 c 0,72,73
 382 364 382 364 382 262 c 0,74,75
 382 182 382 182 434 120 c 128,-1,76
 486 58 486 58 566 38 c 0,77,78
 576 36 576 36 582 34 c 0,79,80
 600 32 600 32 600 40 c 2,67,-1
EndSplineSet
EndChar

StartChar: tm_tta
Encoding: 2975 2975 66
Width: 1182
GlyphClass: 2
Flags: W
LayerCount: 2
Fore
SplineSet
1104 0 m 1,0,-1
 78 0 l 1,1,-1
 78 768 l 1,2,-1
 376 768 l 1,3,-1
 376 34 l 1,4,-1
 1104 34 l 1,5,-1
 1104 0 l 1,0,-1
EndSplineSet
EndChar

StartChar: tm_nna
Encoding: 2979 2979 67
Width: 2090
GlyphClass: 2
Flags: W
LayerCount: 2
Fore
SplineSet
2052 736 m 1,0,-1
 1976 736 l 1,1,-1
 1976 0 l 1,2,-1
 1678 0 l 1,3,-1
 1678 736 l 1,4,-1
 1542 736 l 2,5,6
 1424 736 1424 736 1340 706 c 1,7,-1
 1340 706 l 1,8,9
 1448 652 1448 652 1510 548 c 0,10,11
 1568 452 1568 452 1568 348 c 0,12,13
 1568 198 1568 198 1494 100 c 0,14,15
 1412 -10 1412 -10 1270 -10 c 0,16,17
 1138 -10 1138 -10 1060 128 c 1,18,19
 980 -10 980 -10 818 -10 c 0,20,21
 698 -10 698 -10 628 94 c 1,22,23
 550 -10 550 -10 374 -10 c 0,24,25
 252 -10 252 -10 168 78 c 0,26,27
 68 178 68 178 68 356 c 0,28,29
 68 530 68 530 204 648 c 0,30,31
 350 776 350 776 594 776 c 0,32,33
 714 776 714 776 844 728 c 1,34,35
 954 768 954 768 1082 768 c 0,36,37
 1190 768 1190 768 1298 728 c 1,38,39
 1428 768 1428 768 1560 768 c 2,40,-1
 2052 768 l 1,41,-1
 2052 736 l 1,0,-1
1252 706 m 1,42,43
 1184 734 1184 734 1078 734 c 0,44,45
 970 734 970 734 886 706 c 1,46,47
 1004 652 1004 652 1068 530 c 1,48,49
 1136 654 1136 654 1252 706 c 1,42,43
790 702 m 1,50,51
 676 740 676 740 564 740 c 0,52,53
 364 740 364 740 232 631 c 128,-1,54
 100 522 100 522 100 362 c 0,55,56
 100 168 100 168 216 76 c 0,57,58
 220 70 220 70 230 74 c 1,59,60
 150 150 150 150 150 260 c 0,61,62
 150 376 150 376 226 458 c 128,-1,63
 302 540 302 540 422 540 c 0,64,65
 520 540 520 540 592 478 c 1,66,67
 654 636 654 636 790 702 c 1,50,51
1262 34 m 2,68,-1
 1262 664 l 2,69,70
 1262 674 1262 674 1236 660 c 0,71,72
 1132 604 1132 604 1084 494 c 1,73,74
 1114 438 1114 438 1114 348 c 0,75,76
 1114 238 1114 238 1076 162 c 1,77,78
 1096 116 1096 116 1152 64 c 0,79,80
 1192 28 1192 28 1244 28 c 0,81,82
 1262 28 1262 28 1262 34 c 2,68,-1
810 34 m 2,83,-1
 810 664 l 2,84,85
 810 674 810 674 784 660 c 0,86,87
 658 592 658 592 620 454 c 1,88,89
 692 376 692 376 692 266 c 0,90,91
 692 184 692 184 650 122 c 1,92,93
 678 72 678 72 728 46 c 0,94,95
 750 34 750 34 780 30 c 256,96,97
 810 26 810 26 810 34 c 2,83,-1
402 40 m 2,98,-1
 402 494 l 2,99,100
 402 506 402 506 380 502 c 0,101,102
 308 492 308 492 250 434 c 0,103,104
 182 364 182 364 182 262 c 0,105,106
 182 182 182 182 234 120 c 128,-1,107
 286 58 286 58 366 38 c 0,108,109
 380 34 380 34 388 34 c 0,110,111
 402 32 402 32 402 40 c 2,98,-1
EndSplineSet
EndChar

StartChar: tm_ta
Encoding: 2980 2980 68
Width: 1254
GlyphClass: 2
Flags: W
LayerCount: 2
Fore
SplineSet
1194 238 m 0,0,1
 1194 -122 1194 -122 692 -122 c 2,2,-1
 416 -122 l 2,3,4
 374 -122 374 -122 374 -148 c 2,5,-1
 374 -318 l 1,6,-1
 74 -318 l 1,7,-1
 74 -290 l 2,8,9
 74 -178 74 -178 142 -130 c 0,10,11
 204 -88 204 -88 342 -88 c 2,12,-1
 756 -88 l 2,13,14
 816 -88 816 -88 865 -73 c 128,-1,15
 914 -58 914 -58 914 -40 c 2,16,-1
 914 420 l 2,17,18
 914 458 914 458 886 458 c 2,19,-1
 788 458 l 1,20,-1
 788 242 l 2,21,22
 788 224 788 224 748 170 c 0,23,24
 696 100 696 100 620 54 c 0,25,26
 518 -6 518 -6 390 -6 c 256,27,28
 262 -6 262 -6 178 50 c 0,29,30
 74 122 74 122 74 266 c 0,31,32
 74 340 74 340 120 400 c 0,33,34
 174 470 174 470 264 484 c 1,35,-1
 264 768 l 1,36,-1
 1028 768 l 1,37,-1
 1028 736 l 1,38,-1
 788 736 l 1,39,-1
 788 492 l 1,40,-1
 902 492 l 2,41,42
 1048 492 1048 492 1126 414 c 0,43,44
 1194 344 1194 344 1194 238 c 0,0,1
490 492 m 1,45,-1
 490 736 l 1,46,-1
 296 736 l 1,47,-1
 296 492 l 1,48,-1
 490 492 l 1,45,-1
490 50 m 2,49,-1
 490 458 l 1,50,-1
 338 458 l 2,51,52
 210 458 210 458 150 386 c 0,53,54
 106 334 106 334 106 260 c 0,55,56
 106 26 106 26 398 26 c 0,57,58
 490 26 490 26 490 50 c 2,49,-1
EndSplineSet
EndChar

StartChar: tm_na
Encoding: 2984 2984 69
Width: 1076
GlyphClass: 2
Flags: W
LayerCount: 2
Fore
SplineSet
1020 238 m 0,0,1
 1020 -122 1020 -122 518 -122 c 2,2,-1
 394 -122 l 2,3,4
 352 -122 352 -122 352 -148 c 2,5,-1
 352 -318 l 1,6,-1
 54 -318 l 1,7,-1
 54 -290 l 2,8,9
 54 -178 54 -178 122 -130 c 0,10,11
 184 -88 184 -88 322 -88 c 2,12,-1
 562 -88 l 2,13,14
 740 -88 740 -88 740 -32 c 2,15,-1
 740 438 l 2,16,17
 740 458 740 458 710 458 c 0,18,19
 666 458 666 458 640 432 c 128,-1,20
 614 406 614 406 614 382 c 2,21,-1
 614 -2 l 1,22,-1
 316 0 l 1,23,-1
 316 736 l 1,24,-1
 122 736 l 1,25,-1
 122 0 l 1,26,-1
 88 0 l 1,27,-1
 88 768 l 1,28,-1
 854 768 l 1,29,-1
 854 736 l 1,30,-1
 614 736 l 1,31,-1
 614 444 l 1,32,33
 668 502 668 502 764 502 c 0,34,35
 870 502 870 502 940 442 c 0,36,37
 1020 370 1020 370 1020 238 c 0,0,1
EndSplineSet
EndChar

StartChar: tm_nnna
Encoding: 2985 2985 70
Width: 1642
GlyphClass: 2
Flags: W
LayerCount: 2
Fore
SplineSet
1600 736 m 1,0,-1
 1524 736 l 1,1,-1
 1524 0 l 1,2,-1
 1226 0 l 1,3,-1
 1226 736 l 1,4,-1
 1090 736 l 2,5,6
 972 736 972 736 886 706 c 1,7,-1
 886 706 l 1,8,9
 996 652 996 652 1058 548 c 0,10,11
 1114 452 1114 452 1114 348 c 0,12,13
 1114 198 1114 198 1040 100 c 0,14,15
 958 -10 958 -10 818 -10 c 0,16,17
 698 -10 698 -10 628 94 c 1,18,19
 550 -10 550 -10 374 -10 c 0,20,21
 252 -10 252 -10 168 78 c 0,22,23
 68 178 68 178 68 356 c 0,24,25
 68 530 68 530 204 648 c 0,26,27
 350 776 350 776 594 776 c 0,28,29
 714 776 714 776 844 728 c 1,30,31
 974 768 974 768 1106 768 c 2,32,-1
 1600 768 l 1,33,-1
 1600 736 l 1,0,-1
792 702 m 1,34,35
 668 740 668 740 564 740 c 0,36,37
 364 740 364 740 232 631 c 128,-1,38
 100 522 100 522 100 362 c 0,39,40
 100 168 100 168 216 76 c 0,41,42
 220 70 220 70 230 74 c 1,43,44
 150 150 150 150 150 260 c 0,45,46
 150 376 150 376 226 458 c 128,-1,47
 302 540 302 540 422 540 c 0,48,49
 520 540 520 540 592 478 c 1,50,51
 648 638 648 638 792 702 c 1,34,35
810 34 m 2,52,-1
 810 664 l 2,53,54
 810 676 810 676 784 660 c 0,55,56
 658 598 658 598 620 454 c 1,57,58
 692 376 692 376 692 266 c 0,59,60
 692 184 692 184 650 122 c 1,61,62
 678 72 678 72 728 46 c 0,63,64
 750 34 750 34 780 30 c 256,65,66
 810 26 810 26 810 34 c 2,52,-1
402 40 m 2,67,-1
 402 494 l 2,68,69
 402 506 402 506 380 502 c 0,70,71
 308 492 308 492 250 434 c 0,72,73
 182 364 182 364 182 262 c 0,74,75
 182 182 182 182 234 120 c 128,-1,76
 286 58 286 58 366 38 c 0,77,78
 380 34 380 34 388 34 c 0,79,80
 402 32 402 32 402 40 c 2,67,-1
EndSplineSet
EndChar

StartChar: tm_pa
Encoding: 2986 2986 71
Width: 1182
GlyphClass: 2
Flags: W
LayerCount: 2
Fore
SplineSet
1104 0 m 1,0,-1
 78 0 l 1,1,-1
 78 768 l 1,2,-1
 376 768 l 1,3,-1
 376 34 l 1,4,-1
 806 34 l 1,5,-1
 806 768 l 1,6,-1
 1104 768 l 1,7,-1
 1104 0 l 1,0,-1
EndSplineSet
EndChar

StartChar: tm_ma
Encoding: 2990 2990 72
Width: 1310
GlyphClass: 2
Flags: W
LayerCount: 2
Fore
SplineSet
1248 390 m 0,0,1
 1248 222 1248 222 1132 111 c 128,-1,2
 1016 0 1016 0 854 0 c 2,3,-1
 78 0 l 1,4,-1
 78 768 l 1,5,-1
 376 768 l 1,6,-1
 376 34 l 1,7,-1
 552 34 l 1,8,-1
 552 768 l 1,9,-1
 856 768 l 2,10,11
 1020 768 1020 768 1134 662 c 128,-1,12
 1248 556 1248 556 1248 390 c 0,0,1
1214 390 m 0,13,14
 1214 546 1214 546 1106 644 c 0,15,16
 1002 736 1002 736 858 736 c 0,17,18
 854 736 854 736 854 730 c 2,19,-1
 854 38 l 2,20,21
 854 32 854 32 858 32 c 0,22,23
 1000 32 1000 32 1107 134 c 128,-1,24
 1214 236 1214 236 1214 390 c 0,13,14
EndSplineSet
EndChar

StartChar: tm_ya
Encoding: 2991 2991 73
Width: 1338
GlyphClass: 2
Flags: W
LayerCount: 2
Fore
SplineSet
1276 0 m 1,0,-1
 386 0 l 1,1,-1
 386 144 l 1,2,3
 320 66 320 66 292 40 c 0,4,5
 240 -4 240 -4 190 -4 c 0,6,7
 120 -4 120 -4 94 44 c 0,8,9
 76 78 76 78 76 156 c 2,10,-1
 76 768 l 1,11,-1
 110 768 l 1,12,-1
 110 124 l 2,13,14
 110 32 110 32 190 32 c 0,15,16
 276 32 276 32 386 208 c 1,17,-1
 386 768 l 1,18,-1
 684 768 l 1,19,-1
 684 34 l 1,20,-1
 978 34 l 1,21,-1
 978 768 l 1,22,-1
 1276 768 l 1,23,-1
 1276 0 l 1,0,-1
EndSplineSet
EndChar

StartChar: tm_ra
Encoding: 2992 2992 74
Width: 808
GlyphClass: 2
Flags: W
LayerCount: 2
Fore
SplineSet
748 736 m 1,0,-1
 602 736 l 1,1,-1
 602 0 l 1,2,-1
 64 -324 l 1,3,-1
 64 -286 l 1,4,-1
 304 -140 l 1,5,-1
 304 736 l 1,6,-1
 110 736 l 1,7,-1
 110 0 l 1,8,-1
 78 0 l 1,9,-1
 78 768 l 1,10,-1
 748 768 l 1,11,-1
 748 736 l 1,0,-1
EndSplineSet
EndChar

StartChar: tm_rra
Encoding: 2993 2993 75
Width: 1152
GlyphClass: 2
Flags: W
LayerCount: 2
Fore
SplineSet
1110 184 m 0,0,1
 1110 -122 1110 -122 604 -122 c 2,2,-1
 384 -122 l 2,3,4
 342 -122 342 -122 342 -148 c 2,5,-1
 342 -318 l 1,6,-1
 44 -318 l 1,7,-1
 44 -290 l 2,8,9
 44 -178 44 -178 112 -130 c 0,10,11
 172 -88 172 -88 310 -88 c 2,12,-1
 580 -88 l 2,13,14
 834 -88 834 -88 834 -28 c 2,15,-1
 834 338 l 2,16,17
 834 364 834 364 821 369 c 128,-1,18
 808 374 808 374 748 374 c 1,19,-1
 748 408 l 1,20,21
 834 408 834 408 834 438 c 2,22,-1
 834 732 l 2,23,24
 834 740 834 740 814 740 c 0,25,26
 740 740 740 740 682 690 c 0,27,28
 618 634 618 634 618 554 c 2,29,-1
 618 0 l 1,30,-1
 330 0 l 1,31,-1
 330 724 l 2,32,33
 330 736 330 736 288 736 c 0,34,35
 210 736 210 736 160 688 c 128,-1,36
 110 640 110 640 110 550 c 2,37,-1
 110 0 l 1,38,-1
 78 0 l 1,39,-1
 78 536 l 2,40,41
 78 774 78 774 332 774 c 0,42,43
 458 774 458 774 528 720 c 0,44,45
 564 692 564 692 598 628 c 1,46,-1
 598 628 l 1,47,48
 626 694 626 694 691 734 c 128,-1,49
 756 774 756 774 830 774 c 0,50,51
 954 774 954 774 1030 723 c 128,-1,52
 1106 672 1106 672 1106 582 c 0,53,54
 1106 400 1106 400 910 400 c 1,55,-1
 910 380 l 1,56,57
 1000 380 1000 380 1055 325 c 128,-1,58
 1110 270 1110 270 1110 184 c 0,0,1
EndSplineSet
EndChar

StartChar: tm_la
Encoding: 2994 2994 76
Width: 1468
GlyphClass: 2
Flags: W
LayerCount: 2
Fore
SplineSet
1404 408 m 0,0,1
 1404 238 1404 238 1330 130 c 0,2,3
 1234 -10 1234 -10 1026 -10 c 0,4,5
 750 -10 750 -10 750 302 c 2,6,-1
 750 694 l 2,7,8
 750 740 750 740 536 740 c 0,9,10
 340 740 340 740 220 632 c 128,-1,11
 100 524 100 524 100 362 c 0,12,13
 100 168 100 168 216 76 c 0,14,15
 220 70 220 70 230 74 c 1,16,17
 150 150 150 150 150 260 c 0,18,19
 150 384 150 384 230 462 c 128,-1,20
 310 540 310 540 420 540 c 0,21,22
 546 540 546 540 624 448 c 0,23,24
 692 368 692 368 692 268 c 0,25,26
 692 156 692 156 620 80 c 0,27,28
 534 -10 534 -10 374 -10 c 0,29,30
 252 -10 252 -10 168 78 c 0,31,32
 68 178 68 178 68 356 c 0,33,34
 68 532 68 532 188 646 c 0,35,36
 320 772 320 772 548 772 c 0,37,38
 824 772 824 772 958 614 c 0,39,40
 1048 508 1048 508 1048 384 c 2,41,-1
 1048 52 l 2,42,43
 1048 26 1048 26 1088 30 c 0,44,45
 1242 46 1242 46 1314 166 c 0,46,47
 1374 260 1374 260 1374 404 c 0,48,49
 1374 530 1374 530 1305 642 c 128,-1,50
 1236 754 1236 754 1126 798 c 1,51,-1
 1140 828 l 1,52,53
 1264 774 1264 774 1334 657 c 128,-1,54
 1404 540 1404 540 1404 408 c 0,0,1
402 40 m 2,55,-1
 402 494 l 2,56,57
 402 506 402 506 380 502 c 0,58,59
 308 492 308 492 250 434 c 0,60,61
 182 364 182 364 182 262 c 0,62,63
 182 182 182 182 234 120 c 128,-1,64
 286 58 286 58 366 38 c 0,65,66
 380 34 380 34 388 34 c 0,67,68
 402 32 402 32 402 40 c 2,55,-1
EndSplineSet
EndChar

StartChar: tm_lla
Encoding: 2995 2995 77
Width: 1620
GlyphClass: 2
Flags: W
LayerCount: 2
Fore
SplineSet
1582 736 m 1,0,-1
 1504 736 l 1,1,-1
 1504 0 l 1,2,-1
 1206 0 l 1,3,-1
 1206 736 l 1,4,-1
 1012 736 l 1,5,-1
 1012 0 l 1,6,-1
 756 0 l 1,7,-1
 756 686 l 2,8,9
 756 704 756 704 702 720 c 0,10,11
 638 740 638 740 536 740 c 0,12,13
 340 740 340 740 220 632 c 128,-1,14
 100 524 100 524 100 362 c 0,15,16
 100 168 100 168 216 76 c 0,17,18
 220 70 220 70 230 74 c 1,19,20
 150 150 150 150 150 260 c 0,21,22
 150 384 150 384 230 462 c 128,-1,23
 310 540 310 540 420 540 c 0,24,25
 546 540 546 540 624 448 c 0,26,27
 692 368 692 368 692 268 c 0,28,29
 692 156 692 156 620 80 c 0,30,31
 534 -10 534 -10 374 -10 c 0,32,33
 252 -10 252 -10 168 78 c 0,34,35
 68 178 68 178 68 356 c 0,36,37
 68 532 68 532 188 646 c 0,38,39
 320 772 320 772 548 772 c 0,40,41
 856 772 856 772 980 572 c 1,42,-1
 980 572 l 1,43,-1
 980 768 l 1,44,-1
 1582 768 l 1,45,-1
 1582 736 l 1,0,-1
402 40 m 2,46,-1
 402 494 l 2,47,48
 402 506 402 506 380 502 c 0,49,50
 308 492 308 492 250 434 c 0,51,52
 182 364 182 364 182 262 c 0,53,54
 182 182 182 182 234 120 c 128,-1,55
 286 58 286 58 366 38 c 0,56,57
 380 34 380 34 388 34 c 0,58,59
 402 32 402 32 402 40 c 2,46,-1
EndSplineSet
EndChar

StartChar: tm_llla
Encoding: 2996 2996 78
Width: 1300
GlyphClass: 2
Flags: W
LayerCount: 2
Fore
SplineSet
1248 394 m 0,0,1
 1248 226 1248 226 1132 115 c 128,-1,2
 1016 4 1016 4 854 4 c 1,3,-1
 854 -60 l 2,4,5
 854 -108 854 -108 896 -108 c 2,6,-1
 1084 -108 l 1,7,-1
 1084 -146 l 1,8,-1
 786 -146 l 2,9,10
 766 -146 766 -146 736 -190 c 0,11,12
 700 -246 700 -246 648 -274 c 0,13,14
 562 -318 562 -318 402 -318 c 0,15,16
 256 -318 256 -318 165 -248 c 128,-1,17
 74 -178 74 -178 74 -64 c 1,18,-1
 108 -64 l 1,19,20
 108 -166 108 -166 186 -224 c 128,-1,21
 264 -282 264 -282 380 -282 c 0,22,23
 408 -282 408 -282 414 -280 c 1,24,25
 418 -246 418 -246 450 -176 c 1,26,27
 492 -124 492 -124 590 -124 c 2,28,-1
 716 -124 l 1,29,-1
 716 -118 l 1,30,31
 662 -118 662 -118 613 -78 c 128,-1,32
 564 -38 564 -38 558 4 c 1,33,-1
 78 4 l 1,34,-1
 78 772 l 1,35,-1
 376 772 l 1,36,-1
 376 38 l 1,37,-1
 552 38 l 1,38,-1
 552 772 l 1,39,-1
 856 772 l 2,40,41
 1020 772 1020 772 1134 666 c 128,-1,42
 1248 560 1248 560 1248 394 c 0,0,1
1214 394 m 256,43,44
 1214 548 1214 548 1106 648 c 0,45,46
 1002 740 1002 740 858 740 c 0,47,48
 854 738 854 738 854 734 c 2,49,-1
 854 40 l 2,50,51
 854 34 854 34 858 34 c 0,52,53
 1000 34 1000 34 1107 137 c 128,-1,54
 1214 240 1214 240 1214 394 c 256,43,44
EndSplineSet
EndChar

StartChar: tm_va
Encoding: 2997 2997 79
Width: 1544
GlyphClass: 2
Flags: W
LayerCount: 2
Fore
SplineSet
1486 0 m 1,0,-1
 718 0 l 1,1,-1
 718 34 l 1,2,3
 788 34 788 34 788 66 c 2,4,-1
 788 664 l 2,5,6
 788 694 788 694 728 716 c 0,7,8
 660 740 660 740 536 740 c 0,9,10
 340 740 340 740 220 632 c 128,-1,11
 100 524 100 524 100 362 c 0,12,13
 100 168 100 168 216 76 c 0,14,15
 220 70 220 70 230 74 c 1,16,17
 150 150 150 150 150 260 c 0,18,19
 150 384 150 384 230 462 c 128,-1,20
 310 540 310 540 420 540 c 0,21,22
 546 540 546 540 624 448 c 0,23,24
 692 368 692 368 692 268 c 0,25,26
 692 156 692 156 620 80 c 0,27,28
 534 -10 534 -10 374 -10 c 0,29,30
 252 -10 252 -10 168 78 c 0,31,32
 68 178 68 178 68 356 c 0,33,34
 68 532 68 532 188 646 c 0,35,36
 320 772 320 772 548 772 c 0,37,38
 836 772 836 772 976 632 c 0,39,40
 1084 526 1084 526 1084 366 c 0,41,42
 1084 248 1084 248 1032 152 c 0,43,44
 990 68 990 68 930 32 c 1,45,-1
 1188 32 l 1,46,-1
 1188 768 l 1,47,-1
 1486 768 l 1,48,-1
 1486 0 l 1,0,-1
402 40 m 2,49,-1
 402 494 l 2,50,51
 402 506 402 506 380 502 c 0,52,53
 308 492 308 492 250 434 c 0,54,55
 182 364 182 364 182 262 c 0,56,57
 182 182 182 182 234 120 c 128,-1,58
 286 58 286 58 366 38 c 0,59,60
 380 34 380 34 388 34 c 0,61,62
 402 32 402 32 402 40 c 2,49,-1
EndSplineSet
EndChar

StartChar: tm_ssa
Encoding: 2999 2999 80
Width: 1986
GlyphClass: 2
Flags: W
LayerCount: 2
Fore
SplineSet
1936 0 m 1,0,-1
 1832 0 l 1,1,-1
 1832 -318 l 1,2,-1
 1534 -318 l 1,3,-1
 1534 0 l 1,4,-1
 718 0 l 1,5,-1
 718 34 l 1,6,7
 788 34 788 34 788 66 c 2,8,-1
 788 664 l 2,9,10
 788 694 788 694 728 716 c 0,11,12
 660 740 660 740 536 740 c 0,13,14
 340 740 340 740 220 632 c 128,-1,15
 100 524 100 524 100 362 c 0,16,17
 100 168 100 168 216 76 c 0,18,19
 220 70 220 70 230 74 c 1,20,21
 150 150 150 150 150 260 c 0,22,23
 150 384 150 384 230 462 c 128,-1,24
 310 540 310 540 420 540 c 0,25,26
 546 540 546 540 624 448 c 0,27,28
 692 368 692 368 692 268 c 0,29,30
 692 156 692 156 620 80 c 0,31,32
 534 -10 534 -10 374 -10 c 0,33,34
 252 -10 252 -10 168 78 c 0,35,36
 68 178 68 178 68 356 c 0,37,38
 68 532 68 532 188 646 c 0,39,40
 320 772 320 772 548 772 c 0,41,42
 836 772 836 772 976 632 c 0,43,44
 1084 526 1084 526 1084 366 c 0,45,46
 1084 248 1084 248 1032 152 c 0,47,48
 988 68 988 68 930 34 c 1,49,-1
 1188 34 l 1,50,-1
 1188 396 l 2,51,52
 1188 786 1188 786 1512 786 c 0,53,54
 1676 786 1676 786 1766 650 c 0,55,56
 1832 546 1832 546 1832 426 c 2,57,-1
 1832 34 l 1,58,-1
 1936 34 l 1,59,-1
 1936 0 l 1,0,-1
1534 34 m 1,60,-1
 1534 736 l 2,61,62
 1534 752 1534 752 1516 752 c 0,63,64
 1220 752 1220 752 1220 396 c 2,65,-1
 1220 34 l 1,66,-1
 1534 34 l 1,60,-1
402 40 m 2,67,-1
 402 494 l 2,68,69
 402 506 402 506 380 502 c 0,70,71
 308 492 308 492 250 434 c 0,72,73
 182 364 182 364 182 262 c 0,74,75
 182 182 182 182 234 120 c 128,-1,76
 286 58 286 58 366 38 c 0,77,78
 380 34 380 34 388 34 c 0,79,80
 402 32 402 32 402 40 c 2,67,-1
EndSplineSet
EndChar

StartChar: tm_sa
Encoding: 3000 3000 81
Width: 1950
GlyphClass: 2
Flags: W
LayerCount: 2
Fore
SplineSet
1904 408 m 0,0,1
 1904 238 1904 238 1828 130 c 0,2,3
 1732 -10 1732 -10 1524 -10 c 0,4,5
 1248 -10 1248 -10 1248 302 c 2,6,-1
 1248 714 l 2,7,8
 1248 730 1248 730 1218 730 c 0,9,10
 1148 730 1148 730 1102 678 c 128,-1,11
 1056 626 1056 626 1056 556 c 2,12,-1
 1056 0 l 1,13,-1
 756 0 l 1,14,-1
 756 688 l 2,15,16
 756 710 756 710 678 726 c 0,17,18
 610 740 610 740 536 740 c 0,19,20
 340 740 340 740 220 632 c 128,-1,21
 100 524 100 524 100 362 c 0,22,23
 100 168 100 168 216 76 c 0,24,25
 220 70 220 70 230 74 c 1,26,27
 150 150 150 150 150 260 c 0,28,29
 150 384 150 384 230 462 c 128,-1,30
 310 540 310 540 420 540 c 0,31,32
 546 540 546 540 624 448 c 0,33,34
 692 368 692 368 692 268 c 0,35,36
 692 156 692 156 620 80 c 0,37,38
 534 -10 534 -10 374 -10 c 0,39,40
 252 -10 252 -10 168 78 c 0,41,42
 68 178 68 178 68 356 c 0,43,44
 68 532 68 532 188 646 c 0,45,46
 322 772 322 772 548 772 c 0,47,48
 716 772 716 772 846 710 c 0,49,50
 970 650 970 650 1016 556 c 1,51,52
 1034 772 1034 772 1250 772 c 0,53,54
 1548 772 1548 772 1548 502 c 2,55,-1
 1548 52 l 2,56,57
 1548 26 1548 26 1588 30 c 0,58,59
 1740 46 1740 46 1814 166 c 0,60,61
 1872 260 1872 260 1872 404 c 0,62,63
 1872 530 1872 530 1803 642 c 128,-1,64
 1734 754 1734 754 1624 798 c 1,65,-1
 1638 828 l 1,66,67
 1762 774 1762 774 1836 654 c 0,68,69
 1904 540 1904 540 1904 408 c 0,0,1
402 40 m 2,70,-1
 402 494 l 2,71,72
 402 506 402 506 380 502 c 0,73,74
 308 492 308 492 250 434 c 0,75,76
 182 364 182 364 182 262 c 0,77,78
 182 182 182 182 234 120 c 128,-1,79
 286 58 286 58 366 38 c 0,80,81
 380 34 380 34 388 34 c 0,82,83
 402 32 402 32 402 40 c 2,70,-1
EndSplineSet
EndChar

StartChar: tm_ha
Encoding: 3001 3001 82
Width: 2314
GlyphClass: 2
Flags: W
LayerCount: 2
Fore
SplineSet
2256 184 m 0,0,1
 2256 32 2256 32 2123 -45 c 128,-1,2
 1990 -122 1990 -122 1752 -122 c 2,3,-1
 1062 -122 l 2,4,5
 1020 -122 1020 -122 1020 -148 c 2,6,-1
 1020 -318 l 1,7,-1
 722 -318 l 1,8,-1
 722 -290 l 2,9,10
 722 -178 722 -178 790 -130 c 0,11,12
 850 -88 850 -88 988 -88 c 2,13,-1
 1726 -88 l 2,14,15
 1980 -88 1980 -88 1980 -28 c 2,16,-1
 1980 338 l 2,17,18
 1980 364 1980 364 1967 369 c 128,-1,19
 1954 374 1954 374 1896 374 c 1,20,-1
 1896 408 l 1,21,22
 1980 408 1980 408 1980 438 c 2,23,-1
 1980 732 l 2,24,25
 1980 740 1980 740 1962 740 c 0,26,27
 1888 740 1888 740 1830 690 c 0,28,29
 1766 634 1766 634 1766 554 c 2,30,-1
 1766 0 l 1,31,-1
 1480 0 l 1,32,-1
 1480 724 l 2,33,34
 1480 736 1480 736 1434 736 c 0,35,36
 1358 736 1358 736 1312 690 c 0,37,38
 1260 640 1260 640 1260 550 c 2,39,-1
 1260 0 l 1,40,-1
 718 0 l 1,41,-1
 718 34 l 1,42,43
 788 34 788 34 788 66 c 2,44,-1
 788 664 l 2,45,46
 788 694 788 694 728 716 c 0,47,48
 660 740 660 740 536 740 c 0,49,50
 340 740 340 740 220 632 c 128,-1,51
 100 524 100 524 100 362 c 0,52,53
 100 168 100 168 216 76 c 0,54,55
 220 70 220 70 230 74 c 1,56,57
 150 150 150 150 150 260 c 0,58,59
 150 384 150 384 230 462 c 128,-1,60
 310 540 310 540 420 540 c 0,61,62
 546 540 546 540 624 448 c 0,63,64
 692 368 692 368 692 268 c 0,65,66
 692 156 692 156 620 80 c 0,67,68
 534 -10 534 -10 374 -10 c 0,69,70
 252 -10 252 -10 168 78 c 0,71,72
 68 178 68 178 68 356 c 0,73,74
 68 532 68 532 188 646 c 0,75,76
 320 772 320 772 548 772 c 0,77,78
 836 772 836 772 976 632 c 0,79,80
 1084 526 1084 526 1084 366 c 0,81,82
 1084 248 1084 248 1032 152 c 0,83,84
 990 68 990 68 930 32 c 1,85,-1
 1226 32 l 1,86,-1
 1226 536 l 2,87,88
 1226 774 1226 774 1482 774 c 0,89,90
 1672 774 1672 774 1744 628 c 1,91,-1
 1744 628 l 1,92,93
 1774 694 1774 694 1839 734 c 128,-1,94
 1904 774 1904 774 1978 774 c 0,95,96
 2102 774 2102 774 2179 723 c 128,-1,97
 2256 672 2256 672 2256 582 c 0,98,99
 2256 400 2256 400 2058 400 c 1,100,-1
 2058 380 l 1,101,102
 2148 380 2148 380 2202 325 c 128,-1,103
 2256 270 2256 270 2256 184 c 0,0,1
402 40 m 2,104,-1
 402 494 l 2,105,106
 402 506 402 506 380 502 c 0,107,108
 308 492 308 492 250 434 c 0,109,110
 182 364 182 364 182 262 c 0,111,112
 182 182 182 182 234 120 c 128,-1,113
 286 58 286 58 366 38 c 0,114,115
 380 34 380 34 388 34 c 0,116,117
 402 32 402 32 402 40 c 2,104,-1
EndSplineSet
EndChar

StartChar: tm_aakaar
Encoding: 3006 3006 83
Width: 808
GlyphClass: 2
Flags: W
LayerCount: 2
Fore
SplineSet
748 736 m 1,0,-1
 602 736 l 1,1,-1
 602 0 l 1,2,-1
 304 0 l 1,3,-1
 304 736 l 1,4,-1
 110 736 l 1,5,-1
 110 0 l 1,6,-1
 78 0 l 1,7,-1
 78 768 l 1,8,-1
 748 768 l 1,9,-1
 748 736 l 1,0,-1
EndSplineSet
EndChar

StartChar: tm_ikaar
Encoding: 3007 3007 84
Width: 836
GlyphClass: 2
Flags: W
LayerCount: 2
Fore
SplineSet
710 768 m 2,0,1
 632 802 632 802 632 916 c 0,2,3
 632 1010 632 1010 690 1066 c 0,4,5
 760 1136 760 1136 902 1136 c 0,6,7
 1052 1136 1052 1136 1128 1054 c 0,8,9
 1192 986 1192 986 1192 880 c 2,10,-1
 1192 540 l 1,11,-1
 1162 540 l 1,12,-1
 1162 864 l 2,13,14
 1162 1002 1162 1002 1060 1068 c 0,15,16
 1008 1102 1008 1102 918 1102 c 0,17,18
 854 1102 854 1102 854 1082 c 2,19,-1
 854 782 l 2,20,21
 854 774 854 774 860 768 c 1,22,-1
 788 736 l 1,23,-1
 710 768 l 2,0,1
EndSplineSet
EndChar

StartChar: tm_iikaar
Encoding: 3008 3008 85
Width: 890
GlyphClass: 4
Flags: W
LayerCount: 2
Fore
SplineSet
710 768 m 1,0,1
 632 802 632 802 632 916 c 0,2,3
 632 1010 632 1010 690 1066 c 0,4,5
 760 1136 760 1136 902 1136 c 0,6,7
 1068 1136 1068 1136 1142 1072 c 0,8,9
 1190 1030 1190 1030 1190 974 c 0,10,11
 1190 912 1190 912 1138 869 c 128,-1,12
 1086 826 1086 826 986 826 c 0,13,14
 878 826 878 826 850 844 c 1,15,16
 850 784 850 784 870 768 c 1,17,-1
 710 768 l 1,0,1
1160 982 m 0,18,19
 1160 1030 1160 1030 1104 1064 c 0,20,21
 1040 1102 1040 1102 934 1102 c 0,22,23
 882 1102 882 1102 850 1098 c 1,24,-1
 850 878 l 1,25,26
 888 856 888 856 984 856 c 0,27,28
 1160 856 1160 856 1160 982 c 0,18,19
EndSplineSet
EndChar

StartChar: tm_ukaar
Encoding: 3009 3009 86
Width: 667
GlyphClass: 4
Flags: W
LayerCount: 2
Fore
SplineSet
588 705 m 1,0,-1
 476 705 l 1,1,2
 504 671 504 671 504 631 c 0,3,4
 504 541 504 541 436 495 c 0,5,6
 380 455 380 455 290 455 c 0,7,8
 194 455 194 455 136 495 c 0,9,10
 72 539 72 539 72 625 c 0,11,12
 72 655 72 655 96 703 c 1,13,-1
 -222 703 l 1,14,-1
 -222 783 l 1,15,-1
 232 783 l 2,16,17
 356 783 356 783 426 745 c 1,18,-1
 426 783 l 1,19,-1
 588 783 l 1,20,-1
 588 705 l 1,0,-1
276 493 m 1,21,-1
 276 733 l 1,22,-1
 222 733 l 2,23,24
 174 733 174 733 140 700 c 128,-1,25
 106 667 106 667 106 617 c 0,26,27
 106 493 106 493 270 493 c 2,28,-1
 276 493 l 1,21,-1
EndSplineSet
EndChar

StartChar: tm_uukaar
Encoding: 3010 3010 87
Width: 765
GlyphClass: 4
Flags: W
LayerCount: 2
Fore
SplineSet
730 532 m 0,0,1
 730 372 730 372 620 308 c 0,2,3
 526 252 526 252 322 252 c 1,4,-1
 322 282 l 1,5,6
 518 282 518 282 602 330 c 0,7,8
 696 386 696 386 696 532 c 0,9,10
 696 612 696 612 640 672 c 0,11,12
 578 740 578 740 484 740 c 1,13,14
 550 704 550 704 550 626 c 0,15,16
 550 538 550 538 482 492 c 0,17,18
 424 454 424 454 336 454 c 0,19,20
 242 454 242 454 184 494 c 0,21,22
 118 540 118 540 120 624 c 0,23,24
 120 658 120 658 142 702 c 1,25,-1
 -176 702 l 1,26,-1
 -176 782 l 1,27,-1
 278 782 l 2,28,29
 404 782 404 782 472 744 c 1,30,-1
 472 774 l 1,31,32
 590 774 590 774 664 696 c 0,33,34
 730 626 730 626 730 532 c 0,0,1
324 492 m 1,35,-1
 324 732 l 1,36,-1
 270 732 l 2,37,38
 222 732 222 732 188 699 c 128,-1,39
 154 666 154 666 154 616 c 0,40,41
 154 492 154 492 318 492 c 2,42,-1
 324 492 l 1,35,-1
EndSplineSet
EndChar

StartChar: tm_ekaar
Encoding: 3014 3014 88
Width: 1144
GlyphClass: 2
Flags: W
LayerCount: 2
Fore
SplineSet
1090 0 m 1,0,-1
 790 0 l 1,1,-1
 790 988 l 2,2,3
 790 1002 790 1002 742 1022 c 0,4,5
 680 1046 680 1046 592 1046 c 0,6,7
 368 1046 368 1046 226 878 c 0,8,9
 98 724 98 724 98 522 c 0,10,11
 98 214 98 214 252 74 c 0,12,13
 258 72 258 72 266 74 c 1,14,15
 184 148 184 148 184 260 c 0,16,17
 184 384 184 384 264 462 c 128,-1,18
 344 540 344 540 456 540 c 0,19,20
 580 540 580 540 658 448 c 0,21,22
 728 368 728 368 728 268 c 0,23,24
 728 156 728 156 654 80 c 0,25,26
 568 -10 568 -10 408 -10 c 0,27,28
 264 -10 264 -10 174 112 c 0,29,30
 68 254 68 254 68 522 c 0,31,32
 68 762 68 762 220 921 c 128,-1,33
 372 1080 372 1080 592 1080 c 0,34,35
 798 1080 798 1080 940 944 c 0,36,37
 1090 802 1090 802 1090 574 c 2,38,-1
 1090 0 l 1,0,-1
436 40 m 2,39,-1
 436 494 l 2,40,41
 436 504 436 504 416 502 c 0,42,43
 342 492 342 492 286 434 c 0,44,45
 216 364 216 364 216 262 c 0,46,47
 216 182 216 182 268 120 c 128,-1,48
 320 58 320 58 400 38 c 0,49,50
 414 34 414 34 422 34 c 0,51,52
 436 32 436 32 436 40 c 2,39,-1
EndSplineSet
EndChar

StartChar: tm_eekaar
Encoding: 3015 3015 89
Width: 1056
GlyphClass: 2
Flags: W
LayerCount: 2
Fore
SplineSet
1014 270 m 0,0,1
 1014 140 1014 140 912 64 c 0,2,3
 802 -18 802 -18 600 -18 c 0,4,5
 378 -18 378 -18 240 86 c 0,6,7
 54 226 54 226 54 536 c 0,8,9
 54 844 54 844 240 984 c 0,10,11
 378 1088 378 1088 600 1088 c 0,12,13
 802 1088 802 1088 912 1008 c 0,14,15
 1014 932 1014 932 1014 800 c 0,16,17
 1014 710 1014 710 950 636 c 0,18,19
 876 556 876 556 764 556 c 0,20,21
 654 556 654 556 581 632 c 128,-1,22
 508 708 508 708 508 806 c 0,23,24
 508 902 508 902 568 972 c 0,25,26
 616 1030 616 1030 686 1052 c 1,27,-1
 686 1052 l 1,28,29
 664 1054 664 1054 580 1054 c 0,30,31
 504 1054 504 1054 428 1033 c 128,-1,32
 352 1012 352 1012 352 998 c 2,33,-1
 352 70 l 2,34,35
 352 56 352 56 428 36 c 128,-1,36
 504 16 504 16 580 16 c 0,37,38
 664 16 664 16 686 18 c 1,39,-1
 686 18 l 1,40,41
 616 40 616 40 568 98 c 0,42,43
 508 168 508 168 508 264 c 0,44,45
 508 362 508 362 581 439 c 128,-1,46
 654 516 654 516 764 516 c 0,47,48
 876 516 876 516 950 434 c 0,49,50
 1014 362 1014 362 1014 270 c 0,0,1
774 600 m 2,51,-1
 774 1022 l 2,52,53
 774 1030 774 1030 760 1030 c 0,54,55
 670 1030 670 1030 605 965 c 128,-1,56
 540 900 540 900 540 812 c 0,57,58
 540 714 540 714 610 648 c 0,59,60
 674 586 674 586 756 586 c 0,61,62
 774 586 774 586 774 600 c 2,51,-1
774 46 m 2,63,-1
 774 470 l 2,64,65
 774 482 774 482 756 482 c 0,66,67
 674 482 674 482 610 422 c 0,68,69
 540 356 540 356 540 260 c 0,70,71
 540 172 540 172 605 106 c 128,-1,72
 670 40 670 40 760 40 c 0,73,74
 774 40 774 40 774 46 c 2,63,-1
EndSplineSet
EndChar

StartChar: tm_aikaar
Encoding: 3016 3016 90
Width: 1592
GlyphClass: 2
Flags: W
LayerCount: 2
Fore
SplineSet
1532 358 m 0,0,1
 1532 202 1532 202 1452 100 c 0,2,3
 1366 -10 1366 -10 1218 -10 c 0,4,5
 1156 -10 1156 -10 1116 24 c 1,6,-1
 1138 52 l 1,7,8
 1170 24 1170 24 1212 24 c 0,9,10
 1226 24 1226 24 1226 34 c 2,11,-1
 1226 696 l 2,12,13
 1226 710 1226 710 1163 723 c 128,-1,14
 1100 736 1100 736 1054 736 c 0,15,16
 968 736 968 736 884 708 c 1,17,-1
 884 708 l 1,18,19
 992 654 992 654 1056 550 c 0,20,21
 1114 452 1114 452 1114 348 c 0,22,23
 1114 198 1114 198 1040 100 c 0,24,25
 958 -10 958 -10 818 -10 c 0,26,27
 698 -10 698 -10 628 94 c 1,28,29
 550 -10 550 -10 374 -10 c 0,30,31
 252 -10 252 -10 168 78 c 0,32,33
 68 178 68 178 68 356 c 0,34,35
 68 530 68 530 204 648 c 0,36,37
 350 776 350 776 594 776 c 0,38,39
 724 776 724 776 838 728 c 1,40,41
 934 772 934 772 1056 772 c 0,42,43
 1252 772 1252 772 1388 664 c 0,44,45
 1532 548 1532 548 1532 358 c 0,0,1
784 704 m 1,46,47
 694 740 694 740 564 740 c 0,48,49
 364 740 364 740 232 631 c 128,-1,50
 100 522 100 522 100 362 c 0,51,52
 100 168 100 168 216 76 c 0,53,54
 220 70 220 70 230 74 c 1,55,56
 150 150 150 150 150 260 c 0,57,58
 150 376 150 376 226 458 c 128,-1,59
 302 540 302 540 422 540 c 0,60,61
 520 540 520 540 592 478 c 1,62,63
 644 624 644 624 784 704 c 1,46,47
810 34 m 2,64,-1
 810 672 l 2,65,66
 810 678 810 678 778 658 c 0,67,68
 656 584 656 584 620 454 c 1,69,70
 692 376 692 376 692 266 c 0,71,72
 692 184 692 184 650 122 c 1,73,74
 678 72 678 72 728 46 c 0,75,76
 750 34 750 34 780 30 c 256,77,78
 810 26 810 26 810 34 c 2,64,-1
402 40 m 2,79,-1
 402 494 l 2,80,81
 402 506 402 506 380 502 c 0,82,83
 308 492 308 492 250 434 c 0,84,85
 182 364 182 364 182 262 c 0,86,87
 182 182 182 182 234 120 c 128,-1,88
 286 58 286 58 366 38 c 0,89,90
 380 34 380 34 388 34 c 0,91,92
 402 32 402 32 402 40 c 2,79,-1
EndSplineSet
EndChar

StartChar: tm_halant
Encoding: 3021 3021 94
Width: 339
GlyphClass: 4
Flags: W
LayerCount: 2
Fore
SplineSet
223 1149 m 0,0,1
 157 1149 157 1149 109.5 1196.5 c 128,-1,2
 62 1244 62 1244 62 1310 c 0,3,4
 62 1378 62 1378 109.5 1424.5 c 128,-1,5
 157 1471 157 1471 223 1471 c 0,6,7
 290 1471 290 1471 337 1424.5 c 128,-1,8
 384 1378 384 1378 384 1310 c 0,9,10
 384 1244 384 1244 337 1196.5 c 128,-1,11
 290 1149 290 1149 223 1149 c 0,0,1
EndSplineSet
EndChar

StartChar: tm_two
Encoding: 3048 3048 97
Width: 1425
GlyphClass: 2
Flags: W
LayerCount: 2
Fore
SplineSet
1244 70 m 1,0,-1
 1226 0 l 1,1,-1
 586 0 l 2,2,3
 429 0 429 0 429 106 c 0,4,5
 429 153 429 153 478 181.5 c 128,-1,6
 527 210 527 210 586 210 c 2,7,-1
 779 210 l 2,8,9
 867 210 867 210 928 271.5 c 128,-1,10
 989 333 989 333 989 420 c 0,11,12
 989 500 989 500 945 560.5 c 128,-1,13
 901 621 901 621 831 621 c 0,14,15
 793 621 793 621 744 595 c 1,16,17
 814 555 814 555 814 437 c 0,18,19
 814 382 814 382 772.5 344.5 c 128,-1,20
 731 307 731 307 675 307 c 0,21,22
 618 307 618 307 580 351 c 128,-1,23
 542 395 542 395 542 455 c 0,24,25
 542 565 542 565 646.5 632.5 c 128,-1,26
 751 700 751 700 884 700 c 0,27,28
 987 700 987 700 1058 629 c 128,-1,29
 1129 558 1129 558 1129 455 c 0,30,31
 1129 321 1129 321 1025.5 230.5 c 128,-1,32
 922 140 922 140 779 140 c 2,33,-1
 595 140 l 2,34,35
 551 140 551 140 551 106 c 0,36,37
 551 70 551 70 604 70 c 2,38,-1
 1244 70 l 1,0,-1
675 560 m 1,39,40
 621 516 621 516 621 473 c 0,41,42
 621 386 621 386 666 386 c 0,43,44
 709 386 709 386 709 473 c 0,45,46
 709 518 709 518 675 560 c 1,39,40
EndSplineSet
EndChar

StartChar: tm_three
Encoding: 3049 3049 98
Width: 1424
GlyphClass: 2
Flags: W
LayerCount: 2
Fore
SplineSet
1270 70 m 1,0,-1
 1252 0 l 1,1,-1
 640 0 l 1,2,-1
 657 70 l 1,3,-1
 780 70 l 2,4,5
 874 70 874 70 941 130.5 c 128,-1,6
 1008 191 1008 191 1008 280 c 0,7,8
 1008 317 1008 317 982.5 342.5 c 128,-1,9
 957 368 957 368 920 368 c 0,10,11
 890 368 890 368 865 341 c 128,-1,12
 840 314 840 314 833 280 c 2,13,-1
 815 193 l 1,14,-1
 675 193 l 1,15,-1
 764 630 l 1,16,-1
 571 630 l 1,17,-1
 444 0 l 1,18,-1
 378 0 l 1,19,-1
 517 700 l 1,20,-1
 1095 700 l 1,21,-1
 1077 630 l 1,22,-1
 902 630 l 1,23,-1
 859 403 l 1,24,25
 918 455 918 455 990 455 c 0,26,27
 1057 455 1057 455 1102.5 403.5 c 128,-1,28
 1148 352 1148 352 1148 280 c 0,29,30
 1148 209 1148 209 1090 151 c 128,-1,31
 1032 93 1032 93 947 70 c 1,32,-1
 1270 70 l 1,0,-1
EndSplineSet
EndChar

StartChar: tm_four
Encoding: 3050 3050 99
Width: 1427
GlyphClass: 2
Flags: W
LayerCount: 2
Fore
SplineSet
915 316 m 1,0,-1
 644 316 l 2,1,2
 601 316 601 316 570.5 291 c 128,-1,3
 540 266 540 266 540 228 c 0,4,5
 540 158 540 158 609.5 114 c 128,-1,6
 679 70 679 70 766 70 c 0,7,8
 811 70 811 70 844 99.5 c 128,-1,9
 877 129 877 129 887 175 c 2,10,-1
 915 316 l 1,0,-1
979 630 m 1,11,-1
 784 630 l 1,12,-1
 735 386 l 1,13,-1
 930 386 l 1,14,-1
 979 630 l 1,11,-1
1042 245 m 2,15,16
 1017 125 1017 125 940 62.5 c 128,-1,17
 863 0 863 0 766 0 c 0,18,19
 651 0 651 0 559.5 64 c 128,-1,20
 468 128 468 128 468 228 c 0,21,22
 468 294 468 294 520.5 340 c 128,-1,23
 573 386 573 386 644 386 c 2,24,-1
 669 386 l 1,25,-1
 731 700 l 1,26,-1
 1344 700 l 1,27,-1
 1329 630 l 1,28,-1
 1118 630 l 1,29,-1
 1068 386 l 1,30,-1
 1232 386 l 1,31,-1
 1248 464 l 1,32,-1
 1309 464 l 1,33,-1
 1279 316 l 1,34,-1
 1055 316 l 1,35,-1
 1042 245 l 2,15,16
EndSplineSet
EndChar

StartChar: tm_five
Encoding: 3051 3051 100
Width: 1424
GlyphClass: 2
Flags: W
LayerCount: 2
Fore
SplineSet
1412 517 m 1,0,-1
 1359 526 l 1,1,2
 1369 563 1369 563 1369 598 c 0,3,4
 1369 723 1369 723 1253.5 825.5 c 128,-1,5
 1138 928 1138 928 965 928 c 0,6,7
 728 928 728 928 575.5 716 c 128,-1,8
 423 504 423 504 423 228 c 0,9,10
 423 -43 423 -43 515 -179.5 c 128,-1,11
 607 -316 607 -316 790 -316 c 0,12,13
 979 -316 979 -316 1103.5 -163.5 c 128,-1,14
 1228 -11 1228 -11 1228 193 c 0,15,16
 1228 257 1228 257 1200 304.5 c 128,-1,17
 1172 352 1172 352 1126 352 c 0,18,19
 1099 352 1099 352 1072.5 336.5 c 128,-1,20
 1046 321 1046 321 1039 298 c 2,21,-1
 980 0 l 1,22,-1
 840 0 l 1,23,-1
 965 630 l 1,24,-1
 759 630 l 1,25,-1
 634 0 l 1,26,-1
 566 0 l 1,27,-1
 706 700 l 1,28,-1
 1237 700 l 1,29,-1
 1219 630 l 1,30,-1
 1105 630 l 1,31,-1
 1057 386 l 1,32,33
 1101 437 1101 437 1171 437 c 0,34,35
 1261 437 1261 437 1314.5 368.5 c 128,-1,36
 1368 300 1368 300 1368 193 c 0,37,38
 1368 -47 1368 -47 1202.5 -216 c 128,-1,39
 1037 -385 1037 -385 799 -385 c 0,40,41
 589 -385 589 -385 471.5 -223 c 128,-1,42
 354 -61 354 -61 354 193 c 0,43,44
 354 513 354 513 519 764 c 128,-1,45
 684 1015 684 1015 948 1015 c 0,46,47
 1152 1015 1152 1015 1288.5 889.5 c 128,-1,48
 1425 764 1425 764 1425 613 c 0,49,50
 1425 566 1425 566 1412 517 c 1,0,-1
EndSplineSet
EndChar

StartChar: tm_six
Encoding: 3052 3052 101
Width: 1424
GlyphClass: 2
Flags: W
LayerCount: 2
Fore
SplineSet
784 316 m 1,0,-1
 513 316 l 2,1,2
 469 316 469 316 438 291 c 128,-1,3
 407 266 407 266 407 228 c 0,4,5
 407 158 407 158 477 114 c 128,-1,6
 547 70 547 70 635 70 c 0,7,8
 680 70 680 70 713 99.5 c 128,-1,9
 746 129 746 129 756 175 c 2,10,-1
 784 316 l 1,0,-1
846 630 m 1,11,-1
 653 630 l 1,12,-1
 603 386 l 1,13,-1
 798 386 l 1,14,-1
 846 630 l 1,11,-1
910 245 m 2,15,16
 884 125 884 125 808 62.5 c 128,-1,17
 732 0 732 0 635 0 c 0,18,19
 518 0 518 0 428 64 c 128,-1,20
 338 128 338 128 338 228 c 0,21,22
 338 294 338 294 389.5 340 c 128,-1,23
 441 386 441 386 513 386 c 2,24,-1
 537 386 l 1,25,-1
 600 700 l 1,26,-1
 1229 700 l 1,27,-1
 1213 630 l 1,28,-1
 988 630 l 1,29,-1
 938 386 l 1,30,-1
 1422 386 l 1,31,-1
 1410 316 l 1,32,-1
 1353 316 l 1,33,-1
 1291 0 l 1,34,-1
 1151 0 l 1,35,-1
 1213 316 l 1,36,-1
 1116 316 l 1,37,-1
 1055 0 l 1,38,-1
 967 0 l 1,39,-1
 1028 316 l 1,40,-1
 924 316 l 1,41,-1
 910 245 l 2,15,16
EndSplineSet
EndChar

StartChar: tm_seven
Encoding: 3053 3053 102
Width: 1425
GlyphClass: 2
Flags: W
LayerCount: 2
Fore
SplineSet
643 88 m 1,0,1
 706 88 706 88 753 128 c 128,-1,2
 800 168 800 168 800 228 c 0,3,4
 800 269 800 269 781 301 c 128,-1,5
 762 333 762 333 729 333 c 0,6,7
 684 333 684 333 654.5 296.5 c 128,-1,8
 625 260 625 260 625 210 c 0,9,10
 625 135 625 135 643 88 c 1,0,1
1042 0 m 1,11,-1
 1167 630 l 1,12,-1
 852 630 l 2,13,14
 704 630 704 630 594.5 540.5 c 128,-1,15
 485 451 485 451 485 316 c 0,16,17
 485 247 485 247 507 194.5 c 128,-1,18
 529 142 529 142 572 106 c 1,19,20
 555 135 555 135 555 228 c 256,21,22
 555 321 555 321 614.5 388 c 128,-1,23
 674 455 674 455 765 455 c 0,24,25
 837 455 837 455 884 398 c 128,-1,26
 931 341 931 341 931 263 c 0,27,28
 931 155 931 155 863 77.5 c 128,-1,29
 795 0 795 0 695 0 c 0,30,31
 576 0 576 0 495.5 94 c 128,-1,32
 415 188 415 188 415 316 c 0,33,34
 415 481 415 481 545.5 590.5 c 128,-1,35
 676 700 676 700 852 700 c 2,36,-1
 1430 700 l 1,37,-1
 1412 630 l 1,38,-1
 1307 630 l 1,39,-1
 1181 0 l 1,40,-1
 1042 0 l 1,11,-1
EndSplineSet
EndChar

StartChar: tm_eight
Encoding: 3054 3054 103
Width: 1427
GlyphClass: 2
Flags: W
LayerCount: 2
Fore
SplineSet
849 629 m 1,0,1
 745 611 745 611 670 548.5 c 128,-1,2
 595 486 595 486 595 402 c 0,3,4
 595 338 595 338 638.5 291 c 128,-1,5
 682 244 682 244 744 244 c 0,6,7
 817 244 817 244 864 307.5 c 128,-1,8
 911 371 911 371 911 454 c 0,9,10
 911 580 911 580 849 629 c 1,0,1
1024 140 m 1,11,-1
 411 140 l 2,12,13
 381 140 381 140 357 125 c 128,-1,14
 333 110 333 110 333 87 c 0,15,16
 333 43 333 43 412 -13.5 c 128,-1,17
 491 -70 491 -70 639 -70 c 0,18,19
 743 -70 743 -70 839.5 -18 c 128,-1,20
 936 34 936 34 1024 140 c 1,11,-1
1414 -245 m 1,21,-1
 1269 -245 l 1,22,-1
 1348 140 l 1,23,-1
 1164 140 l 1,24,25
 1051 4 1051 4 915 -63.5 c 128,-1,26
 779 -131 779 -131 621 -131 c 0,27,28
 421 -131 421 -131 311.5 -52.5 c 128,-1,29
 202 26 202 26 202 123 c 0,30,31
 202 160 202 160 233 184.5 c 128,-1,32
 264 209 264 209 307 209 c 2,33,-1
 666 209 l 1,34,35
 604 231 604 231 565 284.5 c 128,-1,36
 526 338 526 338 526 402 c 0,37,38
 526 534 526 534 652 617 c 128,-1,39
 778 700 778 700 937 700 c 0,40,41
 1069 700 1069 700 1169 620.5 c 128,-1,42
 1269 541 1269 541 1269 420 c 0,43,44
 1269 306 1269 306 1213 209 c 1,45,-1
 1364 209 l 1,46,-1
 1463 700 l 1,47,-1
 1603 700 l 1,48,-1
 1414 -245 l 1,21,-1
989 620 m 1,49,50
 1042 530 1042 530 1042 411 c 0,51,52
 1042 267 1042 267 919 209 c 1,53,-1
 1077 209 l 1,54,55
 1146 308 1146 308 1146 402 c 0,56,57
 1146 486 1146 486 1103 553 c 128,-1,58
 1060 620 1060 620 989 620 c 1,49,50
EndSplineSet
EndChar

StartChar: tm_nine
Encoding: 3055 3055 104
Width: 1427
GlyphClass: 2
Flags: W
LayerCount: 2
Fore
SplineSet
692 316 m 1,0,-1
 422 316 l 2,1,2
 379 316 379 316 348 291 c 128,-1,3
 317 266 317 266 317 228 c 0,4,5
 317 158 317 158 387 114 c 128,-1,6
 457 70 457 70 544 70 c 0,7,8
 589 70 589 70 622 99.5 c 128,-1,9
 655 129 655 129 665 175 c 2,10,-1
 692 316 l 1,0,-1
756 630 m 1,11,-1
 562 630 l 1,12,-1
 513 386 l 1,13,-1
 707 386 l 1,14,-1
 756 630 l 1,11,-1
1157 175 m 0,15,16
 1157 259 1157 259 1052 298 c 1,17,18
 982 240 982 240 982 158 c 0,19,20
 982 121 982 121 1007.5 95.5 c 128,-1,21
 1033 70 1033 70 1068 70 c 0,22,23
 1107 70 1107 70 1132 101.5 c 128,-1,24
 1157 133 1157 133 1157 175 c 0,15,16
1297 0 m 1,25,26
 1375 93 1375 93 1375 193 c 0,27,28
 1375 263 1375 263 1332.5 315.5 c 128,-1,29
 1290 368 1290 368 1226 368 c 0,30,31
 1163 368 1163 368 1113 342 c 1,32,33
 1167 322 1167 322 1201 276.5 c 128,-1,34
 1235 231 1235 231 1235 175 c 0,35,36
 1235 104 1235 104 1187 52 c 128,-1,37
 1139 0 1139 0 1068 0 c 0,38,39
 1005 0 1005 0 958.5 46.5 c 128,-1,40
 912 93 912 93 912 158 c 0,41,42
 912 257 912 257 982 316 c 1,43,-1
 833 316 l 1,44,-1
 819 245 l 2,45,46
 795 125 795 125 718.5 62.5 c 128,-1,47
 642 0 642 0 544 0 c 0,48,49
 428 0 428 0 337 64 c 128,-1,50
 246 128 246 128 246 228 c 0,51,52
 246 294 246 294 299 340 c 128,-1,53
 352 386 352 386 422 386 c 2,54,-1
 446 386 l 1,55,-1
 508 700 l 1,56,-1
 1122 700 l 1,57,-1
 1104 630 l 1,58,-1
 896 630 l 1,59,-1
 847 386 l 1,60,-1
 947 386 l 2,61,62
 1014 386 1014 386 1052 368 c 1,63,64
 1111 420 1111 420 1226 420 c 0,65,66
 1327 420 1327 420 1399.5 354.5 c 128,-1,67
 1472 289 1472 289 1472 193 c 0,68,69
 1472 109 1472 109 1410 0 c 1,70,-1
 1297 0 l 1,25,26
EndSplineSet
EndChar

StartChar: tm_ten
Encoding: 3056 3056 105
Width: 1260
GlyphClass: 2
Flags: W
LayerCount: 2
Fore
SplineSet
597 149 m 1,0,1
 558 74 558 74 508 37 c 128,-1,2
 458 0 458 0 395 0 c 0,3,4
 302 0 302 0 242 64 c 128,-1,5
 182 128 182 128 182 200 c 0,6,7
 182 224 182 224 186 244 c 2,8,-1
 279 700 l 1,9,-1
 419 700 l 1,10,-1
 325 244 l 2,11,12
 320 223 320 223 320 205 c 0,13,14
 320 155 320 155 346.5 112.5 c 128,-1,15
 373 70 373 70 413 70 c 0,16,17
 472 70 472 70 525 146 c 128,-1,18
 578 222 578 222 606 359 c 2,19,-1
 675 700 l 1,20,-1
 815 700 l 1,21,-1
 746 351 l 2,22,23
 728 262 728 262 728 204 c 0,24,25
 728 150 728 150 760.5 110 c 128,-1,26
 793 70 793 70 841 70 c 0,27,28
 957 70 957 70 1026 204 c 128,-1,29
 1095 338 1095 338 1095 500 c 0,30,31
 1095 691 1095 691 995.5 840 c 128,-1,32
 896 989 896 989 737 989 c 1,33,-1
 755 1042 l 1,34,35
 960 1042 960 1042 1097.5 880.5 c 128,-1,36
 1235 719 1235 719 1235 500 c 0,37,38
 1235 300 1235 300 1118.5 150 c 128,-1,39
 1002 0 1002 0 824 0 c 0,40,41
 739 0 739 0 673.5 40.5 c 128,-1,42
 608 81 608 81 597 149 c 1,0,1
EndSplineSet
EndChar

StartChar: tm_hundred
Encoding: 3057 3057 106
Width: 1166
GlyphClass: 2
Flags: W
LayerCount: 2
Fore
SplineSet
1284 700 m 1,0,-1
 1267 629 l 1,1,-1
 1117 629 l 1,2,-1
 991 0 l 1,3,-1
 851 0 l 1,4,-1
 977 629 l 1,5,-1
 770 629 l 1,6,-1
 644 0 l 1,7,-1
 504 0 l 1,8,-1
 599 472 l 2,9,10
 606 507 606 507 606 534 c 0,11,12
 606 579 606 579 589 613 c 128,-1,13
 572 647 572 647 540 647 c 0,14,15
 483 647 483 647 440 595.5 c 128,-1,16
 397 544 397 544 382 472 c 2,17,-1
 285 0 l 1,18,-1
 146 0 l 1,19,-1
 242 472 l 2,20,21
 263 577 263 577 336.5 647 c 128,-1,22
 410 717 410 717 503 717 c 0,23,24
 567 717 567 717 614 679.5 c 128,-1,25
 661 642 661 642 661 585 c 1,26,-1
 685 700 l 1,27,-1
 1284 700 l 1,0,-1
EndSplineSet
EndChar

StartChar: tm_thousand
Encoding: 3058 3058 107
Width: 1256
GlyphClass: 2
Flags: W
LayerCount: 2
Fore
SplineSet
551 316 m 1,0,-1
 280 316 l 2,1,2
 237 316 237 316 206 291 c 128,-1,3
 175 266 175 266 175 228 c 0,4,5
 175 158 175 158 245.5 114 c 128,-1,6
 316 70 316 70 402 70 c 0,7,8
 447 70 447 70 480 99.5 c 128,-1,9
 513 129 513 129 523 175 c 2,10,-1
 551 316 l 1,0,-1
615 630 m 1,11,-1
 420 630 l 1,12,-1
 371 386 l 1,13,-1
 565 386 l 1,14,-1
 615 630 l 1,11,-1
677 245 m 2,15,16
 653 125 653 125 576 62.5 c 128,-1,17
 499 0 499 0 402 0 c 0,18,19
 285 0 285 0 195 64 c 128,-1,20
 105 128 105 128 105 228 c 0,21,22
 105 294 105 294 156.5 340 c 128,-1,23
 208 386 208 386 280 386 c 2,24,-1
 304 386 l 1,25,-1
 367 700 l 1,26,-1
 997 700 l 1,27,-1
 983 630 l 1,28,-1
 755 630 l 1,29,-1
 705 386 l 1,30,-1
 1120 386 l 1,31,-1
 1105 316 l 1,32,-1
 971 316 l 1,33,-1
 945 175 l 1,34,35
 990 228 990 228 1067 228 c 0,36,37
 1134 228 1134 228 1179.5 176 c 128,-1,38
 1225 124 1225 124 1225 53 c 0,39,40
 1225 -78 1225 -78 1108 -161 c 128,-1,41
 991 -244 991 -244 840 -244 c 0,42,43
 740 -244 740 -244 542 -205 c 0,44,45
 346 -167 346 -167 244 -167 c 0,46,47
 181 -167 181 -167 134 -206.5 c 128,-1,48
 87 -246 87 -246 87 -307 c 0,49,50
 87 -384 87 -384 158 -411 c 1,51,-1
 149 -445 l 1,52,53
 82 -433 82 -433 36.5 -387 c 128,-1,54
 -9 -341 -9 -341 -9 -280 c 0,55,56
 -9 -205 -9 -205 70.5 -159.5 c 128,-1,57
 150 -114 150 -114 244 -114 c 0,58,59
 346 -114 346 -114 542 -153 c 0,60,61
 740 -192 740 -192 840 -192 c 0,62,63
 938 -192 938 -192 1011.5 -135 c 128,-1,64
 1085 -78 1085 -78 1085 9 c 0,65,66
 1085 61 1085 61 1061 100.5 c 128,-1,67
 1037 140 1037 140 997 140 c 256,68,69
 957 140 957 140 927 88 c 1,70,-1
 910 0 l 1,71,-1
 769 0 l 1,72,-1
 831 316 l 1,73,-1
 691 316 l 1,74,-1
 677 245 l 2,15,16
EndSplineSet
EndChar

StartChar: zerowidthnonjoiner
Encoding: 8204 8204 108
Width: 0
GlyphClass: 2
Flags: W
LayerCount: 2
Fore
SplineSet
315 1225 m 1,0,-1
 -34 -516 l 1,1,-1
 -103 -516 l 1,2,-1
 244 1225 l 1,3,-1
 315 1225 l 1,0,-1
EndSplineSet
EndChar

StartChar: zerowidthjoiner
Encoding: 8205 8205 109
Width: 0
GlyphClass: 2
Flags: W
LayerCount: 2
Fore
SplineSet
415 997 m 1,0,-1
 363 953 l 1,1,-1
 270 1073 l 1,2,-1
 -24 -441 l 1,3,-1
 -87 -441 l 1,4,-1
 206 1073 l 1,5,-1
 65 953 l 1,6,-1
 32 997 l 1,7,-1
 210 1145 l 1,8,-1
 89 1292 l 1,9,-1
 140 1334 l 1,10,-1
 260 1185 l 1,11,-1
 437 1334 l 1,12,-1
 472 1292 l 1,13,-1
 294 1145 l 1,14,-1
 415 997 l 1,0,-1
EndSplineSet
EndChar

StartChar: u2013
Encoding: 8211 8211 110
Width: 722
GlyphClass: 2
Flags: W
LayerCount: 2
Fore
SplineSet
733 319 m 1,0,-1
 -12 319 l 1,1,-1
 -12 370 l 1,2,-1
 733 370 l 1,3,-1
 733 319 l 1,0,-1
EndSplineSet
EndChar

StartChar: u2014
Encoding: 8212 8212 111
Width: 1284
GlyphClass: 2
Flags: W
LayerCount: 2
Fore
SplineSet
1296 318 m 1,0,-1
 -13 319 l 1,1,-1
 -13 371 l 1,2,-1
 1296 370 l 1,3,-1
 1296 318 l 1,0,-1
EndSplineSet
EndChar

StartChar: u2018
Encoding: 8216 8216 112
Width: 422
GlyphClass: 2
Flags: W
LayerCount: 2
Fore
SplineSet
356 842 m 256,0,1
 356 778 356 778 311 734 c 128,-1,2
 266 690 266 690 202 690 c 0,3,4
 136 690 136 690 90 737 c 128,-1,5
 44 784 44 784 44 850 c 0,6,7
 44 1064 44 1064 248 1124 c 1,8,-1
 256 1092 l 1,9,10
 158 1070 158 1070 112 966 c 1,11,12
 156 996 156 996 202 996 c 0,13,14
 266 996 266 996 311 951 c 128,-1,15
 356 906 356 906 356 842 c 256,0,1
EndSplineSet
EndChar

StartChar: u2019
Encoding: 8217 8217 113
Width: 422
GlyphClass: 2
Flags: W
LayerCount: 2
Fore
SplineSet
392 962 m 0,0,1
 392 870 392 870 346 800 c 0,2,3
 292 716 292 716 188 686 c 1,4,-1
 180 718 l 1,5,6
 274 742 274 742 324 844 c 1,7,8
 280 814 280 814 232 814 c 0,9,10
 170 814 170 814 125 859 c 128,-1,11
 80 904 80 904 80 968 c 256,12,13
 80 1032 80 1032 125 1076 c 128,-1,14
 170 1120 170 1120 232 1120 c 0,15,16
 300 1120 300 1120 346 1074 c 128,-1,17
 392 1028 392 1028 392 962 c 0,0,1
EndSplineSet
EndChar

StartChar: u201C
Encoding: 8220 8220 114
Width: 426
GlyphClass: 2
Flags: W
LayerCount: 2
Fore
SplineSet
379 1042 m 256,0,1
 379 978 379 978 334 934 c 128,-1,2
 289 890 289 890 225 890 c 0,3,4
 159 890 159 890 113 937 c 128,-1,5
 67 984 67 984 67 1050 c 0,6,7
 67 1264 67 1264 271 1324 c 1,8,-1
 279 1292 l 1,9,10
 181 1270 181 1270 135 1166 c 1,11,12
 179 1196 179 1196 225 1196 c 0,13,14
 289 1196 289 1196 334 1151 c 128,-1,15
 379 1106 379 1106 379 1042 c 256,0,1
769 1042 m 256,16,17
 769 978 769 978 724 934 c 128,-1,18
 679 890 679 890 615 890 c 0,19,20
 549 890 549 890 503 937 c 128,-1,21
 457 984 457 984 457 1050 c 0,22,23
 457 1264 457 1264 661 1324 c 1,24,-1
 669 1292 l 1,25,26
 571 1270 571 1270 525 1166 c 1,27,28
 569 1196 569 1196 615 1196 c 0,29,30
 679 1196 679 1196 724 1151 c 128,-1,31
 769 1106 769 1106 769 1042 c 256,16,17
EndSplineSet
EndChar

StartChar: u201D
Encoding: 8221 8221 115
Width: 803
GlyphClass: 2
Flags: W
LayerCount: 2
Fore
SplineSet
352 1162 m 0,0,1
 352 1070 352 1070 306 1000 c 0,2,3
 252 916 252 916 148 886 c 1,4,-1
 140 918 l 1,5,6
 234 942 234 942 284 1044 c 1,7,8
 240 1014 240 1014 192 1014 c 0,9,10
 130 1014 130 1014 85 1059 c 128,-1,11
 40 1104 40 1104 40 1168 c 256,12,13
 40 1232 40 1232 85 1276 c 128,-1,14
 130 1320 130 1320 192 1320 c 0,15,16
 260 1320 260 1320 306 1274 c 128,-1,17
 352 1228 352 1228 352 1162 c 0,0,1
722 1162 m 0,18,19
 722 1070 722 1070 676 1000 c 0,20,21
 622 916 622 916 518 886 c 1,22,-1
 510 918 l 1,23,24
 604 942 604 942 654 1044 c 1,25,26
 610 1014 610 1014 562 1014 c 0,27,28
 500 1014 500 1014 455 1059 c 128,-1,29
 410 1104 410 1104 410 1168 c 256,30,31
 410 1232 410 1232 455 1276 c 128,-1,32
 500 1320 500 1320 562 1320 c 0,33,34
 630 1320 630 1320 676 1274 c 128,-1,35
 722 1228 722 1228 722 1162 c 0,18,19
EndSplineSet
EndChar

StartChar: u2026
Encoding: 8230 8230 116
Width: 1283
GlyphClass: 2
Flags: W
LayerCount: 2
Fore
SplineSet
265 136 m 0,0,1
 298 136 298 136 320.5 114 c 128,-1,2
 343 92 343 92 343 58 c 0,3,4
 343 26 343 26 320.5 3 c 128,-1,5
 298 -20 298 -20 265 -20 c 0,6,7
 233 -20 233 -20 210 3 c 128,-1,8
 187 26 187 26 187 58 c 0,9,10
 187 92 187 92 210 114 c 128,-1,11
 233 136 233 136 265 136 c 0,0,1
638 136 m 256,12,13
 670 136 670 136 693 114 c 128,-1,14
 716 92 716 92 716 58 c 0,15,16
 716 26 716 26 692.5 3 c 128,-1,17
 669 -20 669 -20 638 -20 c 0,18,19
 606 -20 606 -20 583 3 c 128,-1,20
 560 26 560 26 560 58 c 0,21,22
 560 92 560 92 583 114 c 128,-1,23
 606 136 606 136 638 136 c 256,12,13
1010 136 m 0,24,25
 1043 136 1043 136 1066 114 c 128,-1,26
 1089 92 1089 92 1089 58 c 0,27,28
 1089 26 1089 26 1065.5 3 c 128,-1,29
 1042 -20 1042 -20 1010 -20 c 256,30,31
 978 -20 978 -20 955.5 3 c 128,-1,32
 933 26 933 26 933 58 c 0,33,34
 933 92 933 92 955.5 114 c 128,-1,35
 978 136 978 136 1010 136 c 0,24,25
EndSplineSet
EndChar

StartChar: u2212
Encoding: 8722 8722 117
Width: 974
GlyphClass: 2
Flags: W
LayerCount: 2
Fore
SplineSet
133 450 m 1,0,-1
 133 508 l 1,1,-1
 894 508 l 1,2,-1
 894 450 l 1,3,-1
 133 450 l 1,0,-1
EndSplineSet
EndChar

StartChar: u25CC
Encoding: 9676 9676 118
Width: 1167
GlyphClass: 2
Flags: W
LayerCount: 2
Fore
SplineSet
654 665 m 0,0,1
 626 665 626 665 612 679 c 128,-1,2
 598 693 598 693 598 724 c 0,3,4
 598 746 598 746 615 762.5 c 128,-1,5
 632 779 632 779 654 779 c 0,6,7
 683 779 683 779 697.5 765 c 128,-1,8
 712 751 712 751 712 724 c 0,9,10
 712 693 712 693 697.5 679 c 128,-1,11
 683 665 683 665 654 665 c 0,0,1
840 616 m 0,12,13
 811 616 811 616 796.5 630.5 c 128,-1,14
 782 645 782 645 782 674 c 0,15,16
 782 701 782 701 796.5 715 c 128,-1,17
 811 729 811 729 840 729 c 0,18,19
 862 729 862 729 879 713 c 128,-1,20
 896 697 896 697 896 674 c 0,21,22
 896 645 896 645 882 630.5 c 128,-1,23
 868 616 868 616 840 616 c 0,12,13
470 616 m 0,24,25
 442 616 442 616 428 630.5 c 128,-1,26
 414 645 414 645 414 674 c 0,27,28
 414 697 414 697 431 713 c 128,-1,29
 448 729 448 729 470 729 c 0,30,31
 494 729 494 729 510 713 c 128,-1,32
 526 697 526 697 526 674 c 0,33,34
 526 645 526 645 512.5 630.5 c 128,-1,35
 499 616 499 616 470 616 c 0,24,25
973 482 m 0,36,37
 951 482 951 482 933.5 498 c 128,-1,38
 916 514 916 514 916 538 c 0,39,40
 916 567 916 567 930.5 581 c 128,-1,41
 945 595 945 595 973 595 c 256,42,43
 1001 595 1001 595 1014.5 581 c 128,-1,44
 1028 567 1028 567 1028 538 c 0,45,46
 1028 514 1028 514 1012 498 c 128,-1,47
 996 482 996 482 973 482 c 0,36,37
336 482 m 0,48,49
 307 482 307 482 293 495.5 c 128,-1,50
 279 509 279 509 279 538 c 256,51,52
 279 567 279 567 293 581 c 128,-1,53
 307 595 307 595 336 595 c 0,54,55
 364 595 364 595 378 581 c 128,-1,56
 392 567 392 567 392 538 c 0,57,58
 392 514 392 514 375 498 c 128,-1,59
 358 482 358 482 336 482 c 0,48,49
1024 298 m 0,60,61
 994 298 994 298 979.5 311.5 c 128,-1,62
 965 325 965 325 965 354 c 0,63,64
 965 382 965 382 979.5 396 c 128,-1,65
 994 410 994 410 1024 410 c 0,66,67
 1046 410 1046 410 1063 393 c 128,-1,68
 1080 376 1080 376 1080 354 c 0,69,70
 1080 331 1080 331 1063 314.5 c 128,-1,71
 1046 298 1046 298 1024 298 c 0,60,61
287 298 m 0,72,73
 257 298 257 298 243 311.5 c 128,-1,74
 229 325 229 325 229 354 c 0,75,76
 229 382 229 382 243 396 c 128,-1,77
 257 410 257 410 287 410 c 0,78,79
 310 410 310 410 326.5 393 c 128,-1,80
 343 376 343 376 343 354 c 0,81,82
 343 331 343 331 326.5 314.5 c 128,-1,83
 310 298 310 298 287 298 c 0,72,73
973 112 m 256,84,85
 945 112 945 112 930.5 126.5 c 128,-1,86
 916 141 916 141 916 169 c 0,87,88
 916 193 916 193 933.5 209.5 c 128,-1,89
 951 226 951 226 973 226 c 0,90,91
 996 226 996 226 1012 209.5 c 128,-1,92
 1028 193 1028 193 1028 169 c 0,93,94
 1028 141 1028 141 1014.5 126.5 c 128,-1,95
 1001 112 1001 112 973 112 c 256,84,85
336 112 m 0,96,97
 307 112 307 112 293 126.5 c 128,-1,98
 279 141 279 141 279 169 c 0,99,100
 279 198 279 198 293 212 c 128,-1,101
 307 226 307 226 336 226 c 0,102,103
 358 226 358 226 375 209.5 c 128,-1,104
 392 193 392 193 392 169 c 0,105,106
 392 141 392 141 378 126.5 c 128,-1,107
 364 112 364 112 336 112 c 0,96,97
840 -22 m 0,108,109
 811 -22 811 -22 796.5 -8 c 128,-1,110
 782 6 782 6 782 34 c 0,111,112
 782 63 782 63 796.5 78 c 128,-1,113
 811 93 811 93 840 93 c 0,114,115
 863 93 863 93 879.5 75 c 128,-1,116
 896 57 896 57 896 34 c 256,117,118
 896 11 896 11 879 -5.5 c 128,-1,119
 862 -22 862 -22 840 -22 c 0,108,109
470 -22 m 0,120,121
 448 -22 448 -22 431 -5.5 c 128,-1,122
 414 11 414 11 414 34 c 256,123,124
 414 57 414 57 430.5 75 c 128,-1,125
 447 93 447 93 470 93 c 0,126,127
 495 93 495 93 510.5 75 c 128,-1,128
 526 57 526 57 526 34 c 256,129,130
 526 11 526 11 510 -5.5 c 128,-1,131
 494 -22 494 -22 470 -22 c 0,120,121
654 -72 m 0,132,133
 632 -72 632 -72 615 -55 c 128,-1,134
 598 -38 598 -38 598 -16 c 0,135,136
 598 14 598 14 612 28.5 c 128,-1,137
 626 43 626 43 654 43 c 0,138,139
 683 43 683 43 697.5 28.5 c 128,-1,140
 712 14 712 14 712 -16 c 0,141,142
 712 -44 712 -44 697.5 -58 c 128,-1,143
 683 -72 683 -72 654 -72 c 0,132,133
EndSplineSet
EndChar

StartChar: tm_k_ikaar
Encoding: 65539 -1 119
Width: 1246
GlyphClass: 2
Flags: W
LayerCount: 2
Fore
SplineSet
1192 266 m 0,0,1
 1192 -6 1192 -6 884 -6 c 0,2,3
 754 -6 754 -6 692 56 c 1,4,-1
 718 82 l 1,5,6
 744 42 744 42 820 30 c 0,7,8
 914 16 914 16 914 46 c 2,9,-1
 914 420 l 2,10,11
 914 458 914 458 886 458 c 2,12,-1
 788 458 l 1,13,-1
 788 242 l 2,14,15
 788 224 788 224 748 170 c 0,16,17
 696 100 696 100 620 54 c 0,18,19
 518 -6 518 -6 390 -6 c 256,20,21
 262 -6 262 -6 178 50 c 0,22,23
 74 122 74 122 74 266 c 0,24,25
 74 340 74 340 120 400 c 0,26,27
 174 470 174 470 264 484 c 1,28,-1
 264 768 l 1,29,-1
 710 768 l 1,30,31
 632 802 632 802 632 916 c 0,32,33
 632 1010 632 1010 690 1066 c 0,34,35
 760 1136 760 1136 902 1136 c 0,36,37
 1052 1136 1052 1136 1128 1054 c 0,38,39
 1192 986 1192 986 1192 880 c 2,40,-1
 1192 540 l 1,41,-1
 1162 540 l 1,42,-1
 1162 864 l 2,43,44
 1162 1002 1162 1002 1060 1068 c 0,45,46
 1008 1102 1008 1102 918 1102 c 0,47,48
 854 1102 854 1102 854 1082 c 2,49,-1
 854 782 l 2,50,51
 854 774 854 774 860 768 c 1,52,-1
 1028 768 l 1,53,-1
 1028 736 l 1,54,-1
 788 736 l 1,55,-1
 788 492 l 1,56,-1
 902 492 l 2,57,58
 1050 492 1050 492 1126 422 c 0,59,60
 1192 362 1192 362 1192 266 c 0,0,1
490 492 m 1,61,-1
 490 736 l 1,62,-1
 296 736 l 1,63,-1
 296 492 l 1,64,-1
 490 492 l 1,61,-1
490 50 m 2,65,-1
 490 458 l 1,66,-1
 338 458 l 2,67,68
 210 458 210 458 150 386 c 0,69,70
 106 334 106 334 106 260 c 0,71,72
 106 26 106 26 398 26 c 0,73,74
 490 26 490 26 490 50 c 2,65,-1
EndSplineSet
Ligature2: "'psts' Post Base Substitutions lookup 8 subtable" tm_ka tm_ikaar
EndChar

StartChar: tm_ng_ikaar
Encoding: 65540 -1 120
Width: 1539
GlyphClass: 2
Flags: W
LayerCount: 2
Fore
SplineSet
1506 540 m 1,0,-1
 1476 540 l 1,1,-1
 1476 788 l 2,2,3
 1476 900 1476 900 1418 984 c 0,4,5
 1336 1102 1336 1102 1162 1102 c 0,6,7
 1050 1102 1050 1102 1050 1070 c 2,8,-1
 1050 566 l 2,9,10
 1050 556 1050 556 1067 544 c 128,-1,11
 1084 532 1084 532 1106 534 c 1,12,-1
 1106 768 l 1,13,-1
 1410 768 l 1,14,-1
 1410 0 l 1,15,-1
 702 0 l 1,16,-1
 702 34 l 1,17,18
 740 34 740 34 740 50 c 2,19,-1
 740 434 l 2,20,21
 740 458 740 458 708 458 c 0,22,23
 664 458 664 458 632 437 c 128,-1,24
 600 416 600 416 600 386 c 2,25,-1
 600 -2 l 1,26,-1
 302 0 l 1,27,-1
 302 736 l 1,28,-1
 110 736 l 1,29,-1
 110 0 l 1,30,-1
 76 0 l 1,31,-1
 76 768 l 1,32,-1
 830 768 l 1,33,34
 828 788 828 788 828 810 c 0,35,36
 828 948 828 948 910 1036 c 0,37,38
 1002 1136 1002 1136 1164 1136 c 256,39,40
 1326 1136 1326 1136 1420 1032 c 0,41,42
 1506 938 1506 938 1506 800 c 2,43,-1
 1506 540 l 1,0,-1
600 452 m 1,44,45
 610 470 610 470 655 485 c 128,-1,46
 700 500 700 500 742 500 c 0,47,48
 864 500 864 500 940 430 c 128,-1,49
 1016 360 1016 360 1016 238 c 0,50,51
 1016 104 1016 104 942 34 c 1,52,-1
 1106 34 l 1,53,-1
 1106 500 l 1,54,55
 980 512 980 512 904 594 c 0,56,57
 850 652 850 652 834 736 c 1,58,-1
 600 736 l 1,59,-1
 600 452 l 1,44,45
EndSplineSet
Ligature2: "'psts' Post Base Substitutions lookup 8 subtable" tm_nga tm_ikaar
EndChar

StartChar: tm_c_ikaar
Encoding: 65541 -1 121
Width: 1128
GlyphClass: 2
Flags: W
LayerCount: 2
Fore
SplineSet
1068 540 m 1,0,-1
 1036 540 l 1,1,-1
 1036 864 l 2,2,3
 1036 1002 1036 1002 936 1068 c 0,4,5
 886 1102 886 1102 792 1102 c 0,6,7
 728 1102 728 1102 728 1082 c 2,8,-1
 728 782 l 2,9,10
 728 776 728 776 736 768 c 1,11,-1
 984 768 l 1,12,-1
 984 736 l 1,13,-1
 788 736 l 1,14,-1
 788 492 l 1,15,-1
 978 492 l 1,16,-1
 978 458 l 1,17,-1
 788 458 l 1,18,-1
 788 242 l 2,19,20
 788 224 788 224 748 170 c 0,21,22
 696 100 696 100 620 54 c 0,23,24
 518 -6 518 -6 390 -6 c 256,25,26
 262 -6 262 -6 178 50 c 0,27,28
 74 122 74 122 74 266 c 0,29,30
 74 340 74 340 120 400 c 0,31,32
 174 470 174 470 264 484 c 1,33,-1
 264 768 l 1,34,-1
 586 768 l 1,35,36
 508 802 508 802 508 916 c 0,37,38
 508 1010 508 1010 566 1066 c 0,39,40
 636 1136 636 1136 778 1136 c 0,41,42
 928 1136 928 1136 1004 1054 c 0,43,44
 1068 986 1068 986 1068 880 c 2,45,-1
 1068 540 l 1,0,-1
490 492 m 1,46,-1
 490 736 l 1,47,-1
 296 736 l 1,48,-1
 296 492 l 1,49,-1
 490 492 l 1,46,-1
490 50 m 2,50,-1
 490 458 l 1,51,-1
 338 458 l 2,52,53
 210 458 210 458 150 386 c 0,54,55
 106 334 106 334 106 260 c 0,56,57
 106 26 106 26 398 26 c 0,58,59
 490 26 490 26 490 50 c 2,50,-1
EndSplineSet
Ligature2: "'psts' Post Base Substitutions lookup 8 subtable" tm_ca tm_ikaar
EndChar

StartChar: tm_j_ikaar
Encoding: 65542 -1 122
Width: 1526
GlyphClass: 2
Flags: W
LayerCount: 2
Fore
SplineSet
1462 540 m 1,0,-1
 1432 540 l 1,1,-1
 1432 864 l 2,2,3
 1432 1002 1432 1002 1330 1068 c 0,4,5
 1278 1102 1278 1102 1188 1102 c 0,6,7
 1124 1102 1124 1102 1124 1082 c 2,8,-1
 1124 782 l 2,9,10
 1126 772 1126 772 1126 774 c 1,11,12
 1246 758 1246 758 1308 670 c 0,13,14
 1358 598 1358 598 1358 502 c 0,15,16
 1358 372 1358 372 1292 288 c 0,17,18
 1210 186 1210 186 1050 186 c 2,19,-1
 366 186 l 2,20,21
 358 186 358 186 358 182 c 2,22,-1
 358 -208 l 2,23,24
 358 -214 358 -214 366 -214 c 0,25,26
 490 -214 490 -214 542 -196 c 0,27,28
 640 -162 640 -162 640 -76 c 0,29,30
 640 120 640 120 988 120 c 0,31,32
 1354 120 1354 120 1354 -56 c 0,33,34
 1354 -246 1354 -246 1044 -246 c 0,35,36
 940 -246 940 -246 872 -204 c 0,37,38
 792 -156 792 -156 792 -62 c 0,39,40
 792 36 792 36 898 84 c 1,41,42
 892 82 892 82 892 84 c 1,43,44
 676 60 676 60 676 -75 c 128,-1,45
 676 -210 676 -210 500 -238 c 0,46,47
 448 -246 448 -246 364 -246 c 0,48,49
 212 -246 212 -246 132 -178 c 0,50,51
 60 -118 60 -118 60 -18 c 2,52,-1
 60 4 l 2,53,54
 60 104 60 104 133 161 c 128,-1,55
 206 218 206 218 338 218 c 2,56,-1
 1078 218 l 2,57,58
 1084 218 1084 218 1084 226 c 2,59,-1
 1084 742 l 1,60,61
 1010 742 1010 742 956 714 c 0,62,63
 868 668 868 668 868 564 c 2,64,-1
 868 280 l 1,65,-1
 594 280 l 1,66,-1
 594 738 l 1,67,68
 540 756 540 756 452 756 c 0,69,70
 290 756 290 756 206 698 c 0,71,72
 100 626 100 626 100 512 c 0,73,74
 100 358 100 358 216 316 c 0,75,76
 218 316 218 316 220 318 c 0,77,78
 202 340 202 340 184 360 c 1,79,80
 156 404 156 404 156 460 c 0,81,82
 156 530 156 530 204 582 c 0,83,84
 256 642 256 642 340 642 c 0,85,86
 416 642 416 642 469 588 c 128,-1,87
 522 534 522 534 522 458 c 0,88,89
 522 394 522 394 484 344 c 0,90,91
 428 274 428 274 310 274 c 0,92,93
 68 274 68 274 68 508 c 0,94,95
 68 644 68 644 180 720 c 0,96,97
 284 790 284 790 452 790 c 0,98,99
 630 790 630 790 740 710 c 0,100,101
 818 652 818 652 834 584 c 0,102,103
 836 580 836 580 836 584 c 0,104,105
 848 724 848 724 990 764 c 1,106,107
 902 796 902 796 902 916 c 0,108,109
 902 1010 902 1010 960 1066 c 0,110,111
 1030 1136 1030 1136 1172 1136 c 0,112,113
 1322 1136 1322 1136 1398 1054 c 0,114,115
 1462 986 1462 986 1462 880 c 2,116,-1
 1462 540 l 1,0,-1
344 312 m 2,117,-1
 344 604 l 2,118,119
 344 608 344 608 332 608 c 0,120,121
 276 608 276 608 232 565 c 128,-1,122
 188 522 188 522 188 460 c 0,123,124
 188 396 188 396 233 352 c 128,-1,125
 278 308 278 308 338 308 c 0,126,127
 344 308 344 308 344 312 c 2,117,-1
1076 -210 m 1,128,-1
 1076 88 l 1,129,-1
 1048 88 l 2,130,131
 968 88 968 88 906 56 c 0,132,133
 824 14 824 14 824 -68 c 0,134,135
 824 -210 824 -210 1048 -210 c 2,136,-1
 1076 -210 l 1,128,-1
EndSplineSet
Ligature2: "'psts' Post Base Substitutions lookup 8 subtable" tm_ja tm_ikaar
EndChar

StartChar: tm_ny_ikaar
Encoding: 65543 -1 123
Width: 1791
GlyphClass: 2
Flags: W
LayerCount: 2
Fore
SplineSet
1568 540 m 1,0,-1
 1536 540 l 1,1,-1
 1536 864 l 2,2,3
 1536 1002 1536 1002 1436 1068 c 0,4,5
 1386 1102 1386 1102 1292 1102 c 0,6,7
 1228 1102 1228 1102 1228 1082 c 2,8,-1
 1228 782 l 2,9,10
 1228 776 1228 776 1236 768 c 1,11,-1
 1392 768 l 1,12,-1
 1392 736 l 1,13,-1
 1316 736 l 1,14,-1
 1316 404 l 1,15,16
 1380 458 1380 458 1490 458 c 0,17,18
 1610 458 1610 458 1678 381 c 128,-1,19
 1746 304 1746 304 1746 174 c 0,20,21
 1746 -312 1746 -312 924 -312 c 0,22,23
 552 -312 552 -312 340 -180 c 0,24,25
 84 -20 84 -20 84 316 c 0,26,27
 84 486 84 486 156 610 c 0,28,29
 218 714 218 714 310 758 c 1,30,-1
 324 728 l 1,31,32
 240 688 240 688 184 592 c 0,33,34
 118 478 118 478 118 316 c 0,35,36
 118 -280 118 -280 924 -280 c 0,37,38
 1158 -280 1158 -280 1318 -244 c 0,39,40
 1448 -214 1448 -214 1448 -188 c 2,41,-1
 1448 402 l 2,42,43
 1448 410 1448 410 1422 410 c 0,44,45
 1362 410 1362 410 1316 356 c 1,46,-1
 1316 0 l 1,47,-1
 1018 0 l 1,48,-1
 1018 736 l 1,49,-1
 728 736 l 2,50,51
 536 736 536 736 418 629 c 128,-1,52
 300 522 300 522 300 362 c 0,53,54
 300 160 300 160 416 76 c 0,55,56
 420 70 420 70 430 74 c 1,57,58
 348 152 348 152 348 260 c 0,59,60
 348 384 348 384 428 462 c 128,-1,61
 508 540 508 540 620 540 c 0,62,63
 744 540 744 540 822 448 c 0,64,65
 892 368 892 368 892 268 c 0,66,67
 892 156 892 156 818 80 c 0,68,69
 732 -10 732 -10 572 -10 c 0,70,71
 452 -10 452 -10 366 78 c 0,72,73
 266 178 266 178 266 356 c 0,74,75
 266 532 266 532 386 644 c 0,76,77
 518 768 518 768 756 768 c 2,78,-1
 1086 768 l 1,79,80
 1008 802 1008 802 1008 916 c 0,81,82
 1008 1010 1008 1010 1066 1066 c 0,83,84
 1136 1136 1136 1136 1278 1136 c 0,85,86
 1428 1136 1428 1136 1504 1054 c 0,87,88
 1568 986 1568 986 1568 880 c 2,89,-1
 1568 540 l 1,0,-1
600 40 m 2,90,-1
 600 494 l 2,91,92
 600 504 600 504 580 502 c 0,93,94
 508 492 508 492 450 434 c 0,95,96
 382 364 382 364 382 262 c 0,97,98
 382 182 382 182 434 120 c 128,-1,99
 486 58 486 58 566 38 c 0,100,101
 576 36 576 36 582 34 c 0,102,103
 600 32 600 32 600 40 c 2,90,-1
EndSplineSet
Ligature2: "'psts' Post Base Substitutions lookup 8 subtable" tm_nya tm_ikaar
EndChar

StartChar: tm_tt_ikaar
Encoding: 65544 -1 124
Width: 1322
GlyphClass: 2
Flags: W
LayerCount: 2
Fore
SplineSet
1262 0 m 1,0,-1
 1158 0 l 1,1,-1
 1158 -318 l 1,2,-1
 860 -318 l 1,3,-1
 860 0 l 1,4,-1
 78 0 l 1,5,-1
 78 768 l 1,6,-1
 376 768 l 1,7,-1
 376 34 l 1,8,-1
 514 34 l 1,9,-1
 514 396 l 2,10,11
 514 786 514 786 838 786 c 0,12,13
 1002 786 1002 786 1090 650 c 0,14,15
 1158 546 1158 546 1158 426 c 2,16,-1
 1158 34 l 1,17,-1
 1262 34 l 1,18,-1
 1262 0 l 1,0,-1
860 34 m 1,19,-1
 860 736 l 2,20,21
 860 752 860 752 842 752 c 0,22,23
 546 752 546 752 546 396 c 2,24,-1
 546 34 l 1,25,-1
 860 34 l 1,19,-1
EndSplineSet
Ligature2: "'psts' Post Base Substitutions lookup 8 subtable" tm_tta tm_ikaar
EndChar

StartChar: tm_nn_ikaar
Encoding: 65545 -1 125
Width: 2228
GlyphClass: 2
Flags: W
LayerCount: 2
Fore
SplineSet
2152 540 m 1,0,-1
 2122 540 l 1,1,-1
 2122 864 l 2,2,3
 2122 1002 2122 1002 2020 1068 c 0,4,5
 1968 1102 1968 1102 1878 1102 c 0,6,7
 1814 1102 1814 1102 1814 1082 c 2,8,-1
 1814 782 l 2,9,10
 1814 774 1814 774 1820 768 c 1,11,-1
 2052 768 l 1,12,-1
 2052 736 l 1,13,-1
 1976 736 l 1,14,-1
 1976 0 l 1,15,-1
 1678 0 l 1,16,-1
 1678 736 l 1,17,-1
 1542 736 l 2,18,19
 1424 736 1424 736 1340 706 c 1,20,21
 1448 652 1448 652 1510 548 c 0,22,23
 1568 452 1568 452 1568 348 c 0,24,25
 1568 198 1568 198 1494 100 c 0,26,27
 1412 -10 1412 -10 1270 -10 c 0,28,29
 1138 -10 1138 -10 1060 128 c 1,30,31
 980 -10 980 -10 818 -10 c 0,32,33
 698 -10 698 -10 628 94 c 1,34,35
 550 -10 550 -10 374 -10 c 0,36,37
 252 -10 252 -10 168 78 c 0,38,39
 68 178 68 178 68 356 c 0,40,41
 68 530 68 530 204 648 c 0,42,43
 350 776 350 776 594 776 c 0,44,45
 714 776 714 776 844 728 c 1,46,47
 954 768 954 768 1082 768 c 0,48,49
 1190 768 1190 768 1298 728 c 1,50,51
 1428 768 1428 768 1560 768 c 2,52,-1
 1670 768 l 1,53,54
 1592 802 1592 802 1592 916 c 0,55,56
 1592 1010 1592 1010 1650 1066 c 0,57,58
 1720 1136 1720 1136 1862 1136 c 0,59,60
 2012 1136 2012 1136 2088 1054 c 0,61,62
 2152 986 2152 986 2152 880 c 2,63,-1
 2152 540 l 1,0,-1
1252 706 m 1,64,65
 1184 734 1184 734 1078 734 c 0,66,67
 970 734 970 734 886 706 c 1,68,69
 1008 646 1008 646 1068 530 c 1,70,71
 1136 654 1136 654 1252 706 c 1,64,65
790 702 m 1,72,73
 676 740 676 740 564 740 c 0,74,75
 364 740 364 740 232 631 c 128,-1,76
 100 522 100 522 100 362 c 0,77,78
 100 168 100 168 216 76 c 0,79,80
 220 70 220 70 230 74 c 1,81,82
 150 150 150 150 150 260 c 0,83,84
 150 376 150 376 226 458 c 128,-1,85
 302 540 302 540 422 540 c 0,86,87
 520 540 520 540 592 478 c 1,88,89
 654 636 654 636 790 702 c 1,72,73
1262 34 m 2,90,-1
 1262 664 l 2,91,92
 1262 674 1262 674 1236 660 c 0,93,94
 1132 604 1132 604 1084 494 c 1,95,96
 1114 438 1114 438 1114 348 c 0,97,98
 1114 238 1114 238 1076 162 c 1,99,100
 1096 116 1096 116 1152 64 c 0,101,102
 1192 28 1192 28 1244 28 c 0,103,104
 1262 28 1262 28 1262 34 c 2,90,-1
810 34 m 2,105,-1
 810 664 l 2,106,107
 810 674 810 674 784 660 c 0,108,109
 658 592 658 592 620 454 c 1,110,111
 692 376 692 376 692 266 c 0,112,113
 692 184 692 184 650 122 c 1,114,115
 678 72 678 72 728 46 c 0,116,117
 750 34 750 34 780 30 c 256,118,119
 810 26 810 26 810 34 c 2,105,-1
402 40 m 2,120,-1
 402 494 l 2,121,122
 402 506 402 506 380 502 c 0,123,124
 308 492 308 492 250 434 c 0,125,126
 182 364 182 364 182 262 c 0,127,128
 182 182 182 182 234 120 c 128,-1,129
 286 58 286 58 366 38 c 0,130,131
 380 34 380 34 388 34 c 0,132,133
 402 32 402 32 402 40 c 2,120,-1
EndSplineSet
Ligature2: "'psts' Post Base Substitutions lookup 8 subtable" tm_nna tm_ikaar
EndChar

StartChar: tm_t_ikaar
Encoding: 65546 -1 126
Width: 1262
GlyphClass: 2
Flags: W
LayerCount: 2
Fore
SplineSet
1194 238 m 0,0,1
 1194 -122 1194 -122 692 -122 c 2,2,-1
 416 -122 l 2,3,4
 374 -122 374 -122 374 -148 c 2,5,-1
 374 -318 l 1,6,-1
 74 -318 l 1,7,-1
 74 -290 l 2,8,9
 74 -178 74 -178 142 -130 c 0,10,11
 204 -88 204 -88 342 -88 c 2,12,-1
 756 -88 l 2,13,14
 816 -88 816 -88 865 -73 c 128,-1,15
 914 -58 914 -58 914 -40 c 2,16,-1
 914 420 l 2,17,18
 914 458 914 458 886 458 c 2,19,-1
 788 458 l 1,20,-1
 788 242 l 2,21,22
 788 224 788 224 748 170 c 0,23,24
 696 100 696 100 620 54 c 0,25,26
 518 -6 518 -6 390 -6 c 256,27,28
 262 -6 262 -6 178 50 c 0,29,30
 74 122 74 122 74 266 c 0,31,32
 74 340 74 340 120 400 c 0,33,34
 174 470 174 470 264 484 c 1,35,-1
 264 768 l 1,36,-1
 710 768 l 1,37,38
 632 802 632 802 632 916 c 0,39,40
 632 1010 632 1010 690 1066 c 0,41,42
 760 1136 760 1136 902 1136 c 0,43,44
 1052 1136 1052 1136 1128 1054 c 0,45,46
 1192 986 1192 986 1192 880 c 2,47,-1
 1192 540 l 1,48,-1
 1162 540 l 1,49,-1
 1162 864 l 2,50,51
 1162 1002 1162 1002 1060 1068 c 0,52,53
 1008 1102 1008 1102 918 1102 c 0,54,55
 854 1102 854 1102 854 1082 c 2,56,-1
 854 782 l 2,57,58
 854 774 854 774 860 768 c 1,59,-1
 1028 768 l 1,60,-1
 1028 736 l 1,61,-1
 788 736 l 1,62,-1
 788 492 l 1,63,-1
 902 492 l 2,64,65
 1048 492 1048 492 1126 414 c 0,66,67
 1194 344 1194 344 1194 238 c 0,0,1
490 492 m 1,68,-1
 490 736 l 1,69,-1
 296 736 l 1,70,-1
 296 492 l 1,71,-1
 490 492 l 1,68,-1
490 50 m 2,72,-1
 490 458 l 1,73,-1
 338 458 l 2,74,75
 210 458 210 458 150 386 c 0,76,77
 106 334 106 334 106 260 c 0,78,79
 106 26 106 26 398 26 c 0,80,81
 490 26 490 26 490 50 c 2,72,-1
EndSplineSet
Ligature2: "'psts' Post Base Substitutions lookup 8 subtable" tm_ta tm_ikaar
EndChar

StartChar: tm_n_ikaar
Encoding: 65547 -1 127
Width: 1076
GlyphClass: 2
Flags: W
LayerCount: 2
Fore
SplineSet
1020 238 m 0,0,1
 1020 -122 1020 -122 518 -122 c 2,2,-1
 394 -122 l 2,3,4
 352 -122 352 -122 352 -148 c 2,5,-1
 352 -318 l 1,6,-1
 54 -318 l 1,7,-1
 54 -290 l 2,8,9
 54 -178 54 -178 122 -130 c 0,10,11
 184 -88 184 -88 322 -88 c 2,12,-1
 562 -88 l 2,13,14
 740 -88 740 -88 740 -32 c 2,15,-1
 740 438 l 2,16,17
 740 458 740 458 710 458 c 0,18,19
 666 458 666 458 640 432 c 128,-1,20
 614 406 614 406 614 382 c 2,21,-1
 614 -2 l 1,22,-1
 316 0 l 1,23,-1
 316 736 l 1,24,-1
 122 736 l 1,25,-1
 122 0 l 1,26,-1
 88 0 l 1,27,-1
 88 768 l 1,28,-1
 524 768 l 1,29,30
 444 802 444 802 444 916 c 0,31,32
 444 1008 444 1008 502 1066 c 0,33,34
 572 1136 572 1136 714 1136 c 0,35,36
 864 1136 864 1136 942 1054 c 0,37,38
 1006 986 1006 986 1006 880 c 2,39,-1
 1006 540 l 1,40,-1
 974 540 l 1,41,-1
 974 864 l 2,42,43
 974 1002 974 1002 874 1068 c 0,44,45
 824 1102 824 1102 732 1102 c 0,46,47
 668 1102 668 1102 668 1082 c 2,48,-1
 668 782 l 2,49,50
 668 774 668 774 674 768 c 1,51,-1
 854 768 l 1,52,-1
 854 736 l 1,53,-1
 614 736 l 1,54,-1
 614 444 l 1,55,56
 668 502 668 502 764 502 c 0,57,58
 870 502 870 502 940 442 c 0,59,60
 1020 370 1020 370 1020 238 c 0,0,1
EndSplineSet
Ligature2: "'psts' Post Base Substitutions lookup 8 subtable" tm_na tm_ikaar
EndChar

StartChar: tm_nnn_ikaar
Encoding: 65548 -1 128
Width: 1778
GlyphClass: 2
Flags: W
LayerCount: 2
Fore
SplineSet
1704 540 m 1,0,-1
 1674 540 l 1,1,-1
 1674 864 l 2,2,3
 1674 1002 1674 1002 1572 1068 c 0,4,5
 1520 1102 1520 1102 1430 1102 c 0,6,7
 1366 1102 1366 1102 1366 1082 c 2,8,-1
 1366 782 l 2,9,10
 1366 774 1366 774 1372 768 c 1,11,-1
 1600 768 l 1,12,-1
 1600 736 l 1,13,-1
 1524 736 l 1,14,-1
 1524 0 l 1,15,-1
 1226 0 l 1,16,-1
 1226 736 l 1,17,-1
 1090 736 l 2,18,19
 972 736 972 736 886 706 c 1,20,-1
 886 706 l 1,21,22
 996 652 996 652 1058 548 c 0,23,24
 1114 452 1114 452 1114 348 c 0,25,26
 1114 198 1114 198 1040 100 c 0,27,28
 958 -10 958 -10 818 -10 c 0,29,30
 698 -10 698 -10 628 94 c 1,31,32
 550 -10 550 -10 374 -10 c 0,33,34
 252 -10 252 -10 168 78 c 0,35,36
 68 178 68 178 68 356 c 0,37,38
 68 530 68 530 204 648 c 0,39,40
 350 776 350 776 594 776 c 0,41,42
 714 776 714 776 844 728 c 1,43,44
 974 768 974 768 1106 768 c 2,45,-1
 1222 768 l 1,46,47
 1144 802 1144 802 1144 916 c 0,48,49
 1144 1010 1144 1010 1202 1066 c 0,50,51
 1272 1136 1272 1136 1414 1136 c 0,52,53
 1564 1136 1564 1136 1640 1054 c 0,54,55
 1704 986 1704 986 1704 880 c 2,56,-1
 1704 540 l 1,0,-1
792 702 m 1,57,58
 668 740 668 740 564 740 c 0,59,60
 364 740 364 740 232 631 c 128,-1,61
 100 522 100 522 100 362 c 0,62,63
 100 168 100 168 216 76 c 0,64,65
 220 70 220 70 230 74 c 1,66,67
 150 150 150 150 150 260 c 0,68,69
 150 376 150 376 226 458 c 128,-1,70
 302 540 302 540 422 540 c 0,71,72
 520 540 520 540 592 478 c 1,73,74
 648 638 648 638 792 702 c 1,57,58
810 34 m 2,75,-1
 810 664 l 2,76,77
 810 676 810 676 784 660 c 0,78,79
 658 598 658 598 620 454 c 1,80,81
 692 376 692 376 692 266 c 0,82,83
 692 184 692 184 650 122 c 1,84,85
 678 72 678 72 728 46 c 0,86,87
 750 34 750 34 780 30 c 256,88,89
 810 26 810 26 810 34 c 2,75,-1
402 40 m 2,90,-1
 402 494 l 2,91,92
 402 506 402 506 380 502 c 0,93,94
 308 492 308 492 250 434 c 0,95,96
 182 364 182 364 182 262 c 0,97,98
 182 182 182 182 234 120 c 128,-1,99
 286 58 286 58 366 38 c 0,100,101
 380 34 380 34 388 34 c 0,102,103
 402 32 402 32 402 40 c 2,90,-1
EndSplineSet
Ligature2: "'psts' Post Base Substitutions lookup 8 subtable" tm_nnna tm_ikaar
EndChar

StartChar: tm_p_ikaar
Encoding: 65549 -1 129
Width: 1266
GlyphClass: 2
Flags: W
LayerCount: 2
Fore
SplineSet
1206 540 m 1,0,-1
 1176 540 l 1,1,-1
 1176 788 l 2,2,3
 1176 900 1176 900 1118 984 c 0,4,5
 1036 1102 1036 1102 862 1102 c 0,6,7
 750 1102 750 1102 750 1070 c 2,8,-1
 750 566 l 2,9,10
 750 556 750 556 767 544 c 128,-1,11
 784 532 784 532 806 534 c 1,12,-1
 806 768 l 1,13,-1
 1104 768 l 1,14,-1
 1104 0 l 1,15,-1
 78 0 l 1,16,-1
 78 768 l 1,17,-1
 376 768 l 1,18,-1
 376 34 l 1,19,-1
 806 34 l 1,20,-1
 806 500 l 1,21,22
 680 512 680 512 604 594 c 128,-1,23
 528 676 528 676 528 810 c 0,24,25
 528 948 528 948 610 1036 c 0,26,27
 702 1136 702 1136 864 1136 c 256,28,29
 1026 1136 1026 1136 1120 1032 c 0,30,31
 1206 938 1206 938 1206 800 c 2,32,-1
 1206 540 l 1,0,-1
EndSplineSet
Ligature2: "'psts' Post Base Substitutions lookup 8 subtable" tm_pa tm_ikaar
EndChar

StartChar: tm_m_ikaar
Encoding: 65550 -1 130
Width: 1340
GlyphClass: 2
Flags: W
LayerCount: 2
Fore
SplineSet
1284 696 m 1,0,-1
 1254 696 l 1,1,-1
 1254 864 l 2,2,3
 1254 1000 1254 1000 1152 1068 c 0,4,5
 1102 1102 1102 1102 1010 1102 c 0,6,7
 946 1102 946 1102 946 1082 c 2,8,-1
 946 798 l 2,9,10
 946 758 946 758 976 752 c 1,11,-1
 974 752 l 1,12,13
 1094 718 1094 718 1171 621 c 128,-1,14
 1248 524 1248 524 1248 390 c 0,15,16
 1248 222 1248 222 1132 111 c 128,-1,17
 1016 0 1016 0 854 0 c 2,18,-1
 78 0 l 1,19,-1
 78 768 l 1,20,-1
 376 768 l 1,21,-1
 376 34 l 1,22,-1
 552 34 l 1,23,-1
 552 768 l 1,24,-1
 802 768 l 1,25,26
 724 802 724 802 724 916 c 0,27,28
 724 1010 724 1010 782 1066 c 0,29,30
 852 1136 852 1136 994 1136 c 0,31,32
 1144 1136 1144 1136 1220 1054 c 0,33,34
 1284 986 1284 986 1284 880 c 2,35,-1
 1284 696 l 1,0,-1
1214 390 m 0,36,37
 1214 546 1214 546 1106 644 c 0,38,39
 1002 736 1002 736 858 736 c 0,40,41
 854 736 854 736 854 730 c 2,42,-1
 854 38 l 2,43,44
 854 32 854 32 858 32 c 0,45,46
 1000 32 1000 32 1107 134 c 128,-1,47
 1214 236 1214 236 1214 390 c 0,36,37
EndSplineSet
Ligature2: "'psts' Post Base Substitutions lookup 8 subtable" tm_ma tm_ikaar
EndChar

StartChar: tm_y_ikaar
Encoding: 65551 -1 131
Width: 1458
GlyphClass: 2
Flags: W
LayerCount: 2
Fore
SplineSet
1394 540 m 1,0,-1
 1362 540 l 1,1,-1
 1362 788 l 2,2,3
 1362 902 1362 902 1304 984 c 0,4,5
 1224 1102 1224 1102 1048 1102 c 0,6,7
 936 1102 936 1102 936 1070 c 2,8,-1
 936 566 l 2,9,10
 936 540 936 540 978 534 c 1,11,-1
 978 768 l 1,12,-1
 1276 768 l 1,13,-1
 1276 0 l 1,14,-1
 386 0 l 1,15,-1
 386 144 l 1,16,17
 320 66 320 66 292 40 c 0,18,19
 240 -4 240 -4 190 -4 c 0,20,21
 120 -4 120 -4 94 44 c 0,22,23
 76 78 76 78 76 156 c 2,24,-1
 76 768 l 1,25,-1
 110 768 l 1,26,-1
 110 124 l 2,27,28
 110 32 110 32 190 32 c 0,29,30
 276 32 276 32 386 208 c 1,31,-1
 386 768 l 1,32,-1
 684 768 l 1,33,-1
 684 34 l 1,34,-1
 978 34 l 1,35,-1
 978 502 l 1,36,37
 858 520 858 520 786 600 c 128,-1,38
 714 680 714 680 714 810 c 0,39,40
 714 946 714 946 798 1036 c 0,41,42
 888 1136 888 1136 1048 1136 c 0,43,44
 1212 1136 1212 1136 1308 1032 c 0,45,46
 1394 938 1394 938 1394 800 c 2,47,-1
 1394 540 l 1,0,-1
EndSplineSet
Ligature2: "'psts' Post Base Substitutions lookup 8 subtable" tm_ya tm_ikaar
EndChar

StartChar: tm_r_ikaar
Encoding: 65552 -1 132
Width: 928
GlyphClass: 2
Flags: W
LayerCount: 2
Fore
SplineSet
876 540 m 1,0,-1
 806 540 l 1,1,-1
 806 870 l 2,2,3
 806 988 806 988 734 1034 c 0,4,5
 686 1064 686 1064 604 1064 c 0,6,7
 536 1064 536 1064 536 1042 c 2,8,-1
 536 816 l 2,9,10
 536 778 536 778 550 768 c 1,11,-1
 750 768 l 1,12,-1
 750 734 l 1,13,-1
 604 734 l 1,14,-1
 604 0 l 1,15,-1
 602 0 l 1,16,-1
 64 -324 l 1,17,-1
 64 -286 l 1,18,-1
 304 -140 l 1,19,-1
 304 736 l 1,20,-1
 114 736 l 1,21,-1
 114 0 l 1,22,-1
 78 0 l 1,23,-1
 78 768 l 1,24,-1
 394 768 l 1,25,26
 316 802 316 802 316 916 c 0,27,28
 316 1010 316 1010 374 1066 c 0,29,30
 444 1136 444 1136 586 1136 c 0,31,32
 876 1136 876 1136 876 880 c 2,33,-1
 876 540 l 1,0,-1
EndSplineSet
Ligature2: "'psts' Post Base Substitutions lookup 8 subtable" tm_ra tm_ikaar
EndChar

StartChar: tm_rr_ikaar
Encoding: 65553 -1 133
Width: 1232
GlyphClass: 2
Flags: W
LayerCount: 2
Fore
SplineSet
1186 540 m 1,0,-1
 1154 540 l 1,1,-1
 1154 864 l 2,2,3
 1154 1002 1154 1002 1054 1068 c 0,4,5
 1004 1102 1004 1102 912 1102 c 0,6,7
 848 1102 848 1102 848 1082 c 2,8,-1
 848 782 l 2,9,10
 848 776 848 776 850 774 c 0,11,12
 966 770 966 770 1036 719 c 128,-1,13
 1106 668 1106 668 1106 582 c 0,14,15
 1106 400 1106 400 910 400 c 1,16,-1
 910 380 l 1,17,18
 1000 380 1000 380 1055 325 c 128,-1,19
 1110 270 1110 270 1110 184 c 0,20,21
 1110 -122 1110 -122 604 -122 c 2,22,-1
 384 -122 l 2,23,24
 342 -122 342 -122 342 -148 c 2,25,-1
 342 -318 l 1,26,-1
 44 -318 l 1,27,-1
 44 -290 l 2,28,29
 44 -178 44 -178 112 -130 c 0,30,31
 172 -88 172 -88 310 -88 c 2,32,-1
 580 -88 l 2,33,34
 834 -88 834 -88 834 -28 c 2,35,-1
 834 338 l 2,36,37
 834 364 834 364 821 369 c 128,-1,38
 808 374 808 374 748 374 c 1,39,-1
 748 408 l 1,40,41
 834 408 834 408 834 438 c 2,42,-1
 834 732 l 2,43,44
 834 740 834 740 814 740 c 0,45,46
 740 740 740 740 682 690 c 0,47,48
 618 634 618 634 618 554 c 2,49,-1
 618 0 l 1,50,-1
 330 0 l 1,51,-1
 330 724 l 2,52,53
 330 736 330 736 288 736 c 0,54,55
 210 736 210 736 160 688 c 128,-1,56
 110 640 110 640 110 550 c 2,57,-1
 110 0 l 1,58,-1
 78 0 l 1,59,-1
 78 536 l 2,60,61
 78 774 78 774 332 774 c 0,62,63
 458 774 458 774 528 720 c 0,64,65
 564 692 564 692 598 628 c 1,66,67
 636 718 636 718 746 760 c 1,68,-1
 732 760 l 1,69,70
 680 768 680 768 650 816 c 0,71,72
 624 858 624 858 624 916 c 0,73,74
 624 1008 624 1008 682 1066 c 0,75,76
 752 1136 752 1136 894 1136 c 0,77,78
 1044 1136 1044 1136 1122 1054 c 0,79,80
 1186 986 1186 986 1186 880 c 2,81,-1
 1186 540 l 1,0,-1
EndSplineSet
Ligature2: "'psts' Post Base Substitutions lookup 8 subtable" tm_rra tm_ikaar
EndChar

StartChar: tm_l_ikaar
Encoding: 65554 -1 134
Width: 1558
GlyphClass: 2
Flags: W
LayerCount: 2
Fore
SplineSet
1522 540 m 1,0,-1
 1490 540 l 1,1,-1
 1490 804 l 2,2,3
 1490 902 1490 902 1438 984 c 0,4,5
 1364 1102 1364 1102 1208 1102 c 0,6,7
 1120 1102 1120 1102 1120 1070 c 2,8,-1
 1120 566 l 2,9,10
 1120 526 1120 526 1212 526 c 0,11,12
 1278 526 1278 526 1344 562 c 1,13,14
 1280 726 1280 726 1148 786 c 1,15,-1
 1162 816 l 1,16,17
 1268 766 1268 766 1336 650 c 128,-1,18
 1404 534 1404 534 1404 408 c 0,19,20
 1404 238 1404 238 1330 130 c 0,21,22
 1234 -10 1234 -10 1026 -10 c 0,23,24
 750 -10 750 -10 750 302 c 2,25,-1
 750 694 l 2,26,27
 750 740 750 740 536 740 c 0,28,29
 340 740 340 740 220 632 c 128,-1,30
 100 524 100 524 100 362 c 0,31,32
 100 168 100 168 216 76 c 0,33,34
 220 70 220 70 230 74 c 1,35,36
 150 150 150 150 150 260 c 0,37,38
 150 384 150 384 230 462 c 128,-1,39
 310 540 310 540 420 540 c 0,40,41
 546 540 546 540 624 448 c 0,42,43
 692 368 692 368 692 268 c 0,44,45
 692 156 692 156 620 80 c 0,46,47
 534 -10 534 -10 374 -10 c 0,48,49
 252 -10 252 -10 168 78 c 0,50,51
 68 178 68 178 68 356 c 0,52,53
 68 532 68 532 188 646 c 0,54,55
 320 772 320 772 548 772 c 0,56,57
 824 772 824 772 958 614 c 0,58,59
 1048 508 1048 508 1048 384 c 2,60,-1
 1048 52 l 2,61,62
 1048 26 1048 26 1088 30 c 0,63,64
 1242 46 1242 46 1314 166 c 0,65,66
 1374 260 1374 260 1374 404 c 0,67,68
 1374 460 1374 460 1354 530 c 1,69,70
 1286 496 1286 496 1220 496 c 0,71,72
 1060 496 1060 496 974 594 c 0,73,74
 898 680 898 680 898 810 c 0,75,76
 898 944 898 944 980 1036 c 0,77,78
 1070 1136 1070 1136 1212 1136 c 0,79,80
 1360 1136 1360 1136 1448 1032 c 0,81,82
 1522 942 1522 942 1522 828 c 2,83,-1
 1522 540 l 1,0,-1
402 40 m 2,84,-1
 402 494 l 2,85,86
 402 506 402 506 380 502 c 0,87,88
 308 492 308 492 250 434 c 0,89,90
 182 364 182 364 182 262 c 0,91,92
 182 182 182 182 234 120 c 128,-1,93
 286 58 286 58 366 38 c 0,94,95
 380 34 380 34 388 34 c 0,96,97
 402 32 402 32 402 40 c 2,84,-1
EndSplineSet
Ligature2: "'psts' Post Base Substitutions lookup 8 subtable" tm_la tm_ikaar
EndChar

StartChar: tm_ll_ikaar
Encoding: 65555 -1 135
Width: 1738
GlyphClass: 2
Flags: W
LayerCount: 2
Fore
SplineSet
1684 540 m 1,0,-1
 1652 540 l 1,1,-1
 1652 864 l 2,2,3
 1652 1002 1652 1002 1552 1068 c 0,4,5
 1500 1102 1500 1102 1410 1102 c 0,6,7
 1346 1102 1346 1102 1346 1082 c 2,8,-1
 1346 782 l 2,9,10
 1346 774 1346 774 1352 768 c 1,11,-1
 1582 768 l 1,12,-1
 1582 736 l 1,13,-1
 1504 736 l 1,14,-1
 1504 0 l 1,15,-1
 1206 0 l 1,16,-1
 1206 736 l 1,17,-1
 1012 736 l 1,18,-1
 1012 0 l 1,19,-1
 756 0 l 1,20,-1
 756 686 l 2,21,22
 756 704 756 704 702 720 c 0,23,24
 638 740 638 740 536 740 c 0,25,26
 340 740 340 740 220 632 c 128,-1,27
 100 524 100 524 100 362 c 0,28,29
 100 168 100 168 216 76 c 0,30,31
 220 70 220 70 230 74 c 1,32,33
 150 150 150 150 150 260 c 0,34,35
 150 384 150 384 230 462 c 128,-1,36
 310 540 310 540 420 540 c 0,37,38
 546 540 546 540 624 448 c 0,39,40
 692 368 692 368 692 268 c 0,41,42
 692 156 692 156 620 80 c 0,43,44
 534 -10 534 -10 374 -10 c 0,45,46
 252 -10 252 -10 168 78 c 0,47,48
 68 178 68 178 68 356 c 0,49,50
 68 532 68 532 188 646 c 0,51,52
 320 772 320 772 548 772 c 0,53,54
 856 772 856 772 980 572 c 1,55,-1
 980 768 l 1,56,-1
 1202 768 l 1,57,58
 1124 802 1124 802 1124 916 c 0,59,60
 1124 1010 1124 1010 1182 1066 c 0,61,62
 1252 1136 1252 1136 1394 1136 c 0,63,64
 1544 1136 1544 1136 1620 1054 c 0,65,66
 1684 986 1684 986 1684 880 c 2,67,-1
 1684 540 l 1,0,-1
402 40 m 2,68,-1
 402 494 l 2,69,70
 402 506 402 506 380 502 c 0,71,72
 308 492 308 492 250 434 c 0,73,74
 182 364 182 364 182 262 c 0,75,76
 182 182 182 182 234 120 c 128,-1,77
 286 58 286 58 366 38 c 0,78,79
 380 34 380 34 388 34 c 0,80,81
 402 32 402 32 402 40 c 2,68,-1
EndSplineSet
Ligature2: "'psts' Post Base Substitutions lookup 8 subtable" tm_lla tm_ikaar
EndChar

StartChar: tm_lll_ikaar
Encoding: 65556 -1 136
Width: 1300
GlyphClass: 2
Flags: W
LayerCount: 2
Fore
SplineSet
1250 696 m 1,0,-1
 1218 696 l 1,1,-1
 1218 864 l 2,2,3
 1218 1002 1218 1002 1118 1068 c 0,4,5
 1066 1102 1066 1102 976 1102 c 0,6,7
 912 1102 912 1102 912 1082 c 2,8,-1
 912 798 l 2,9,10
 912 782 912 782 922 766 c 1,11,12
 1062 744 1062 744 1154 646 c 0,13,14
 1248 542 1248 542 1248 394 c 0,15,16
 1248 226 1248 226 1132 115 c 128,-1,17
 1016 4 1016 4 854 4 c 1,18,-1
 854 -60 l 2,19,20
 854 -108 854 -108 896 -108 c 2,21,-1
 1084 -108 l 1,22,-1
 1084 -146 l 1,23,-1
 786 -146 l 2,24,25
 766 -146 766 -146 736 -190 c 0,26,27
 700 -246 700 -246 648 -274 c 0,28,29
 562 -318 562 -318 402 -318 c 0,30,31
 256 -318 256 -318 165 -248 c 128,-1,32
 74 -178 74 -178 74 -64 c 1,33,-1
 108 -64 l 1,34,35
 108 -166 108 -166 186 -224 c 128,-1,36
 264 -282 264 -282 380 -282 c 0,37,38
 408 -282 408 -282 414 -280 c 1,39,40
 418 -246 418 -246 450 -176 c 1,41,42
 492 -124 492 -124 590 -124 c 2,43,-1
 716 -124 l 1,44,-1
 716 -118 l 1,45,46
 662 -118 662 -118 613 -78 c 128,-1,47
 564 -38 564 -38 558 4 c 1,48,-1
 78 4 l 1,49,-1
 78 772 l 1,50,-1
 376 772 l 1,51,-1
 376 38 l 1,52,-1
 552 38 l 1,53,-1
 552 772 l 1,54,-1
 762 772 l 1,55,56
 690 810 690 810 690 916 c 0,57,58
 690 1010 690 1010 748 1066 c 0,59,60
 818 1136 818 1136 960 1136 c 0,61,62
 1110 1136 1110 1136 1186 1054 c 0,63,64
 1250 986 1250 986 1250 880 c 2,65,-1
 1250 696 l 1,0,-1
1214 394 m 256,66,67
 1214 548 1214 548 1106 648 c 0,68,69
 1002 740 1002 740 858 740 c 0,70,71
 854 738 854 738 854 734 c 2,72,-1
 854 40 l 2,73,74
 854 34 854 34 858 34 c 0,75,76
 1000 34 1000 34 1107 137 c 128,-1,77
 1214 240 1214 240 1214 394 c 256,66,67
EndSplineSet
Ligature2: "'psts' Post Base Substitutions lookup 8 subtable" tm_llla tm_ikaar
EndChar

StartChar: tm_v_ikaar
Encoding: 65557 -1 137
Width: 1680
GlyphClass: 2
Flags: W
LayerCount: 2
Fore
SplineSet
1616 540 m 1,0,-1
 1584 540 l 1,1,-1
 1584 778 l 2,2,3
 1584 896 1584 896 1532 980 c 0,4,5
 1454 1102 1454 1102 1280 1102 c 0,6,7
 1168 1102 1168 1102 1168 1070 c 2,8,-1
 1168 558 l 2,9,10
 1168 556 1168 556 1188 542 c 1,11,-1
 1188 768 l 1,12,-1
 1486 768 l 1,13,-1
 1486 0 l 1,14,-1
 718 0 l 1,15,-1
 718 34 l 1,16,17
 788 34 788 34 788 66 c 2,18,-1
 788 664 l 2,19,20
 788 694 788 694 728 716 c 0,21,22
 660 740 660 740 536 740 c 0,23,24
 340 740 340 740 220 632 c 128,-1,25
 100 524 100 524 100 362 c 0,26,27
 100 168 100 168 216 76 c 0,28,29
 220 70 220 70 230 74 c 1,30,31
 150 150 150 150 150 260 c 0,32,33
 150 384 150 384 230 462 c 128,-1,34
 310 540 310 540 420 540 c 0,35,36
 546 540 546 540 624 448 c 0,37,38
 692 368 692 368 692 268 c 0,39,40
 692 156 692 156 620 80 c 0,41,42
 534 -10 534 -10 374 -10 c 0,43,44
 252 -10 252 -10 168 78 c 0,45,46
 68 178 68 178 68 356 c 0,47,48
 68 532 68 532 188 646 c 0,49,50
 320 772 320 772 548 772 c 0,51,52
 836 772 836 772 976 632 c 0,53,54
 1084 526 1084 526 1084 366 c 0,55,56
 1084 248 1084 248 1032 152 c 0,57,58
 990 68 990 68 930 32 c 1,59,-1
 1188 32 l 1,60,-1
 1188 506 l 1,61,62
 1076 528 1076 528 1014 604 c 0,63,64
 946 686 946 686 946 810 c 0,65,66
 946 948 946 948 1028 1036 c 0,67,68
 1120 1136 1120 1136 1280 1136 c 0,69,70
 1442 1136 1442 1136 1534 1032 c 0,71,72
 1616 938 1616 938 1616 800 c 2,73,-1
 1616 540 l 1,0,-1
402 40 m 2,74,-1
 402 494 l 2,75,76
 402 506 402 506 380 502 c 0,77,78
 308 492 308 492 250 434 c 0,79,80
 182 364 182 364 182 262 c 0,81,82
 182 182 182 182 234 120 c 128,-1,83
 286 58 286 58 366 38 c 0,84,85
 380 34 380 34 388 34 c 0,86,87
 402 32 402 32 402 40 c 2,74,-1
EndSplineSet
Ligature2: "'psts' Post Base Substitutions lookup 8 subtable" tm_va tm_ikaar
EndChar

StartChar: tm_ss_ikaar
Encoding: 65558 -1 138
Width: 1986
GlyphClass: 2
Flags: W
LayerCount: 2
Fore
SplineSet
1936 0 m 1,0,-1
 1832 0 l 1,1,-1
 1832 -318 l 1,2,-1
 1534 -318 l 1,3,-1
 1534 0 l 1,4,-1
 718 0 l 1,5,-1
 718 34 l 1,6,7
 788 34 788 34 788 66 c 2,8,-1
 788 664 l 2,9,10
 788 694 788 694 728 716 c 0,11,12
 660 740 660 740 536 740 c 0,13,14
 340 740 340 740 220 632 c 128,-1,15
 100 524 100 524 100 362 c 0,16,17
 100 168 100 168 216 76 c 0,18,19
 220 70 220 70 230 74 c 1,20,21
 150 150 150 150 150 260 c 0,22,23
 150 384 150 384 230 462 c 128,-1,24
 310 540 310 540 420 540 c 0,25,26
 546 540 546 540 624 448 c 0,27,28
 692 368 692 368 692 268 c 0,29,30
 692 156 692 156 620 80 c 0,31,32
 534 -10 534 -10 374 -10 c 0,33,34
 252 -10 252 -10 168 78 c 0,35,36
 68 178 68 178 68 356 c 0,37,38
 68 532 68 532 188 646 c 0,39,40
 320 772 320 772 548 772 c 0,41,42
 836 772 836 772 976 632 c 0,43,44
 1084 526 1084 526 1084 366 c 0,45,46
 1084 248 1084 248 1032 152 c 0,47,48
 988 68 988 68 930 34 c 1,49,-1
 1188 34 l 1,50,-1
 1188 396 l 2,51,52
 1188 708 1188 708 1404 772 c 1,53,54
 1332 810 1332 810 1332 916 c 0,55,56
 1332 1008 1332 1008 1390 1066 c 0,57,58
 1460 1136 1460 1136 1602 1136 c 0,59,60
 1752 1136 1752 1136 1830 1054 c 0,61,62
 1894 986 1894 986 1894 880 c 2,63,-1
 1894 696 l 1,64,-1
 1862 696 l 1,65,-1
 1862 864 l 2,66,67
 1862 1002 1862 1002 1762 1068 c 0,68,69
 1712 1102 1712 1102 1620 1102 c 0,70,71
 1556 1102 1556 1102 1556 1082 c 2,72,-1
 1556 798 l 2,73,74
 1556 786 1556 786 1558 782 c 0,75,76
 1698 764 1698 764 1774 634 c 0,77,78
 1832 534 1832 534 1832 426 c 2,79,-1
 1832 34 l 1,80,-1
 1936 34 l 1,81,-1
 1936 0 l 1,0,-1
1534 34 m 1,82,-1
 1534 736 l 2,83,84
 1534 752 1534 752 1516 752 c 0,85,86
 1220 752 1220 752 1220 396 c 2,87,-1
 1220 34 l 1,88,-1
 1534 34 l 1,82,-1
402 40 m 2,89,-1
 402 494 l 2,90,91
 402 506 402 506 380 502 c 0,92,93
 308 492 308 492 250 434 c 0,94,95
 182 364 182 364 182 262 c 0,96,97
 182 182 182 182 234 120 c 128,-1,98
 286 58 286 58 366 38 c 0,99,100
 380 34 380 34 388 34 c 0,101,102
 402 32 402 32 402 40 c 2,89,-1
EndSplineSet
Ligature2: "'psts' Post Base Substitutions lookup 8 subtable" tm_ssa tm_ikaar
EndChar

StartChar: tm_s_ikaar
Encoding: 65559 -1 139
Width: 2092
GlyphClass: 2
Flags: W
LayerCount: 2
Fore
SplineSet
2042 540 m 1,0,-1
 2010 540 l 1,1,-1
 2010 816 l 2,2,3
 2010 910 2010 910 1964 990 c 0,4,5
 1898 1102 1898 1102 1768 1102 c 0,6,7
 1706 1102 1706 1102 1706 1070 c 2,8,-1
 1706 566 l 2,9,10
 1706 526 1706 526 1800 526 c 0,11,12
 1832 526 1832 526 1852 532 c 1,13,14
 1814 662 1814 662 1718 740 c 1,15,-1
 1736 770 l 1,16,17
 1904 626 1904 626 1904 408 c 0,18,19
 1904 238 1904 238 1828 130 c 0,20,21
 1732 -10 1732 -10 1524 -10 c 0,22,23
 1248 -10 1248 -10 1248 302 c 2,24,-1
 1248 714 l 2,25,26
 1248 730 1248 730 1218 730 c 0,27,28
 1148 730 1148 730 1102 678 c 128,-1,29
 1056 626 1056 626 1056 556 c 2,30,-1
 1056 0 l 1,31,-1
 756 0 l 1,32,-1
 756 688 l 2,33,34
 756 710 756 710 678 726 c 0,35,36
 610 740 610 740 536 740 c 0,37,38
 340 740 340 740 220 632 c 128,-1,39
 100 524 100 524 100 362 c 0,40,41
 100 168 100 168 216 76 c 0,42,43
 220 70 220 70 230 74 c 1,44,45
 150 150 150 150 150 260 c 0,46,47
 150 384 150 384 230 462 c 128,-1,48
 310 540 310 540 420 540 c 0,49,50
 546 540 546 540 624 448 c 0,51,52
 692 368 692 368 692 268 c 0,53,54
 692 156 692 156 620 80 c 0,55,56
 534 -10 534 -10 374 -10 c 0,57,58
 252 -10 252 -10 168 78 c 0,59,60
 68 178 68 178 68 356 c 0,61,62
 68 532 68 532 188 646 c 0,63,64
 322 772 322 772 548 772 c 0,65,66
 716 772 716 772 846 710 c 0,67,68
 970 650 970 650 1016 556 c 1,69,-1
 1018 556 l 1,70,71
 1032 772 1032 772 1250 772 c 0,72,73
 1548 772 1548 772 1548 502 c 2,74,-1
 1548 52 l 2,75,76
 1548 26 1548 26 1588 30 c 0,77,78
 1740 46 1740 46 1814 166 c 0,79,80
 1872 260 1872 260 1872 404 c 0,81,82
 1872 456 1872 456 1860 504 c 1,83,84
 1828 496 1828 496 1808 496 c 0,85,86
 1646 496 1646 496 1558 594 c 0,87,88
 1482 680 1482 680 1482 810 c 0,89,90
 1482 950 1482 950 1546 1036 c 0,91,92
 1620 1136 1620 1136 1760 1136 c 0,93,94
 1894 1136 1894 1136 1974 1038 c 0,95,96
 2042 954 2042 954 2042 840 c 2,97,-1
 2042 540 l 1,0,-1
402 40 m 2,98,-1
 402 494 l 2,99,100
 402 506 402 506 380 502 c 0,101,102
 308 492 308 492 250 434 c 0,103,104
 182 364 182 364 182 262 c 0,105,106
 182 182 182 182 234 120 c 128,-1,107
 286 58 286 58 366 38 c 0,108,109
 380 34 380 34 388 34 c 0,110,111
 402 32 402 32 402 40 c 2,98,-1
EndSplineSet
Ligature2: "'psts' Post Base Substitutions lookup 8 subtable" tm_sa tm_ikaar
EndChar

StartChar: tm_h_ikaar
Encoding: 65560 -1 140
Width: 2400
GlyphClass: 2
Flags: W
LayerCount: 2
Fore
SplineSet
2348 540 m 1,0,-1
 2316 540 l 1,1,-1
 2316 864 l 2,2,3
 2316 1002 2316 1002 2216 1068 c 0,4,5
 2166 1102 2166 1102 2074 1102 c 0,6,7
 2010 1102 2010 1102 2010 1082 c 2,8,-1
 2010 782 l 2,9,10
 2010 776 2010 776 2014 772 c 0,11,12
 2122 766 2122 766 2189 715 c 128,-1,13
 2256 664 2256 664 2256 582 c 0,14,15
 2256 400 2256 400 2058 400 c 1,16,-1
 2058 380 l 1,17,18
 2148 380 2148 380 2202 325 c 128,-1,19
 2256 270 2256 270 2256 184 c 0,20,21
 2256 32 2256 32 2123 -45 c 128,-1,22
 1990 -122 1990 -122 1752 -122 c 2,23,-1
 1062 -122 l 2,24,25
 1020 -122 1020 -122 1020 -148 c 2,26,-1
 1020 -318 l 1,27,-1
 722 -318 l 1,28,-1
 722 -290 l 2,29,30
 722 -178 722 -178 790 -130 c 0,31,32
 850 -88 850 -88 988 -88 c 2,33,-1
 1726 -88 l 2,34,35
 1980 -88 1980 -88 1980 -28 c 2,36,-1
 1980 338 l 2,37,38
 1980 364 1980 364 1967 369 c 128,-1,39
 1954 374 1954 374 1896 374 c 1,40,-1
 1896 408 l 1,41,42
 1980 408 1980 408 1980 438 c 2,43,-1
 1980 732 l 2,44,45
 1980 740 1980 740 1962 740 c 0,46,47
 1888 740 1888 740 1830 690 c 0,48,49
 1766 634 1766 634 1766 554 c 2,50,-1
 1766 0 l 1,51,-1
 1480 0 l 1,52,-1
 1480 724 l 2,53,54
 1480 736 1480 736 1434 736 c 0,55,56
 1358 736 1358 736 1312 690 c 0,57,58
 1260 640 1260 640 1260 550 c 2,59,-1
 1260 0 l 1,60,-1
 718 0 l 1,61,-1
 718 34 l 1,62,63
 788 34 788 34 788 66 c 2,64,-1
 788 664 l 2,65,66
 788 694 788 694 728 716 c 0,67,68
 660 740 660 740 536 740 c 0,69,70
 340 740 340 740 220 632 c 128,-1,71
 100 524 100 524 100 362 c 0,72,73
 100 168 100 168 216 76 c 0,74,75
 220 70 220 70 230 74 c 1,76,77
 150 150 150 150 150 260 c 0,78,79
 150 384 150 384 230 462 c 128,-1,80
 310 540 310 540 420 540 c 0,81,82
 546 540 546 540 624 448 c 0,83,84
 692 368 692 368 692 268 c 0,85,86
 692 156 692 156 620 80 c 0,87,88
 534 -10 534 -10 374 -10 c 0,89,90
 252 -10 252 -10 168 78 c 0,91,92
 68 178 68 178 68 356 c 0,93,94
 68 532 68 532 188 646 c 0,95,96
 320 772 320 772 548 772 c 0,97,98
 836 772 836 772 976 632 c 0,99,100
 1084 526 1084 526 1084 366 c 0,101,102
 1084 248 1084 248 1032 152 c 0,103,104
 990 68 990 68 930 32 c 1,105,-1
 1226 32 l 1,106,-1
 1226 536 l 2,107,108
 1226 774 1226 774 1482 774 c 0,109,110
 1672 774 1672 774 1744 628 c 1,111,112
 1786 720 1786 720 1894 760 c 1,113,114
 1788 778 1788 778 1788 916 c 0,115,116
 1788 1010 1788 1010 1846 1066 c 0,117,118
 1916 1136 1916 1136 2058 1136 c 0,119,120
 2208 1136 2208 1136 2284 1054 c 0,121,122
 2348 986 2348 986 2348 880 c 2,123,-1
 2348 540 l 1,0,-1
402 40 m 2,124,-1
 402 494 l 2,125,126
 402 506 402 506 380 502 c 0,127,128
 308 492 308 492 250 434 c 0,129,130
 182 364 182 364 182 262 c 0,131,132
 182 182 182 182 234 120 c 128,-1,133
 286 58 286 58 366 38 c 0,134,135
 380 34 380 34 388 34 c 0,136,137
 402 32 402 32 402 40 c 2,124,-1
EndSplineSet
Ligature2: "'psts' Post Base Substitutions lookup 8 subtable" tm_ha tm_ikaar
EndChar

StartChar: tm_k_iikaar
Encoding: 65561 -1 141
Width: 1252
GlyphClass: 2
Flags: W
LayerCount: 2
Fore
SplineSet
1192 266 m 0,0,1
 1192 -6 1192 -6 884 -6 c 0,2,3
 754 -6 754 -6 692 56 c 1,4,-1
 718 82 l 1,5,6
 744 42 744 42 820 30 c 0,7,8
 914 16 914 16 914 46 c 2,9,-1
 914 420 l 2,10,11
 914 458 914 458 886 458 c 2,12,-1
 788 458 l 1,13,-1
 788 242 l 2,14,15
 788 224 788 224 748 170 c 0,16,17
 696 100 696 100 620 54 c 0,18,19
 518 -6 518 -6 390 -6 c 256,20,21
 262 -6 262 -6 178 50 c 0,22,23
 74 122 74 122 74 266 c 0,24,25
 74 340 74 340 120 400 c 0,26,27
 174 470 174 470 264 484 c 1,28,-1
 264 768 l 1,29,-1
 710 768 l 1,30,31
 632 802 632 802 632 916 c 0,32,33
 632 1010 632 1010 690 1066 c 0,34,35
 760 1136 760 1136 902 1136 c 0,36,37
 1068 1136 1068 1136 1142 1072 c 0,38,39
 1190 1030 1190 1030 1190 974 c 0,40,41
 1190 912 1190 912 1138 869 c 128,-1,42
 1086 826 1086 826 986 826 c 0,43,44
 878 826 878 826 850 844 c 1,45,46
 850 784 850 784 870 768 c 1,47,-1
 1028 768 l 1,48,-1
 1028 736 l 1,49,-1
 788 736 l 1,50,-1
 788 492 l 1,51,-1
 902 492 l 2,52,53
 1050 492 1050 492 1126 422 c 0,54,55
 1192 362 1192 362 1192 266 c 0,0,1
1160 982 m 0,56,57
 1160 1030 1160 1030 1104 1064 c 0,58,59
 1040 1102 1040 1102 934 1102 c 0,60,61
 882 1102 882 1102 850 1098 c 1,62,-1
 850 878 l 1,63,64
 888 856 888 856 984 856 c 0,65,66
 1160 856 1160 856 1160 982 c 0,56,57
490 492 m 1,67,-1
 490 736 l 1,68,-1
 296 736 l 1,69,-1
 296 492 l 1,70,-1
 490 492 l 1,67,-1
490 50 m 2,71,-1
 490 458 l 1,72,-1
 338 458 l 2,73,74
 210 458 210 458 150 386 c 0,75,76
 106 334 106 334 106 260 c 0,77,78
 106 26 106 26 398 26 c 0,79,80
 490 26 490 26 490 50 c 2,71,-1
EndSplineSet
Ligature2: "'abvs' Above Base Substitutions lookup 6 subtable" tm_ka tm_iikaar
EndChar

StartChar: tm_ng_iikaar
Encoding: 65562 -1 142
Width: 1442
GlyphClass: 2
Flags: W
LayerCount: 2
Fore
SplineSet
1410 0 m 1,0,-1
 702 0 l 1,1,-1
 702 34 l 1,2,3
 740 34 740 34 740 50 c 2,4,-1
 740 434 l 2,5,6
 740 458 740 458 708 458 c 0,7,8
 664 458 664 458 632 437 c 128,-1,9
 600 416 600 416 600 386 c 2,10,-1
 600 -2 l 1,11,-1
 302 0 l 1,12,-1
 302 736 l 1,13,-1
 110 736 l 1,14,-1
 110 0 l 1,15,-1
 76 0 l 1,16,-1
 76 768 l 1,17,-1
 842 768 l 1,18,-1
 842 736 l 1,19,-1
 600 736 l 1,20,-1
 600 452 l 1,21,22
 610 470 610 470 655 485 c 128,-1,23
 700 500 700 500 742 500 c 0,24,25
 864 500 864 500 940 430 c 128,-1,26
 1016 360 1016 360 1016 238 c 0,27,28
 1016 104 1016 104 942 34 c 1,29,-1
 1112 34 l 1,30,-1
 1112 506 l 1,31,32
 1002 529 1002 529 932 604 c 0,33,34
 856 688 856 688 856 810 c 0,35,36
 856 950 856 950 934 1038 c 0,37,38
 1020 1140 1020 1140 1180 1140 c 0,39,40
 1298 1140 1298 1140 1360 1082 c 0,41,42
 1402 1042 1402 1042 1402 998 c 0,43,44
 1402 930 1402 930 1351 889 c 128,-1,45
 1300 848 1300 848 1204 848 c 0,46,47
 1160 848 1160 848 1078 866 c 1,48,-1
 1078 570 l 2,49,50
 1078 538 1078 538 1112 541 c 1,51,-1
 1112 768 l 1,52,-1
 1414 768 l 1,53,-1
 1414 0 l 1,54,-1
 1410 0 l 1,0,-1
1370 996 m 0,55,56
 1370 1042 1370 1042 1319 1075 c 128,-1,57
 1268 1108 1268 1108 1186 1108 c 0,58,59
 1080 1108 1080 1108 1080 1084 c 2,60,-1
 1080 908 l 2,61,62
 1080 900 1080 900 1125 890 c 128,-1,63
 1170 880 1170 880 1204 880 c 0,64,65
 1370 880 1370 880 1370 996 c 0,55,56
EndSplineSet
Ligature2: "'abvs' Above Base Substitutions lookup 6 subtable" tm_nga tm_iikaar
EndChar

StartChar: tm_c_iikaar
Encoding: 65563 -1 143
Width: 1044
GlyphClass: 2
Flags: W
LayerCount: 2
Fore
SplineSet
990 974 m 0,0,1
 990 912 990 912 938 869 c 128,-1,2
 886 826 886 826 786 826 c 256,3,4
 686 826 686 826 650 844 c 1,5,6
 650 784 650 784 672 768 c 1,7,-1
 984 768 l 1,8,-1
 984 736 l 1,9,-1
 788 736 l 1,10,-1
 788 492 l 1,11,-1
 978 492 l 1,12,-1
 978 458 l 1,13,-1
 788 458 l 1,14,-1
 788 242 l 2,15,16
 788 224 788 224 748 170 c 0,17,18
 696 100 696 100 620 54 c 0,19,20
 518 -6 518 -6 390 -6 c 256,21,22
 262 -6 262 -6 178 50 c 0,23,24
 74 122 74 122 74 266 c 0,25,26
 74 340 74 340 120 400 c 0,27,28
 174 470 174 470 264 484 c 1,29,-1
 264 768 l 1,30,-1
 510 768 l 1,31,32
 430 804 430 804 430 916 c 0,33,34
 430 1008 430 1008 488 1066 c 0,35,36
 558 1136 558 1136 700 1136 c 0,37,38
 868 1136 868 1136 942 1072 c 0,39,40
 990 1030 990 1030 990 974 c 0,0,1
958 982 m 0,41,42
 958 1030 958 1030 902 1064 c 0,43,44
 840 1102 840 1102 734 1102 c 0,45,46
 678 1102 678 1102 650 1098 c 1,47,-1
 650 878 l 1,48,49
 688 856 688 856 782 856 c 0,50,51
 958 856 958 856 958 982 c 0,41,42
490 492 m 1,52,-1
 490 736 l 1,53,-1
 296 736 l 1,54,-1
 296 492 l 1,55,-1
 490 492 l 1,52,-1
490 50 m 2,56,-1
 490 458 l 1,57,-1
 338 458 l 2,58,59
 210 458 210 458 150 386 c 0,60,61
 106 334 106 334 106 260 c 0,62,63
 106 26 106 26 398 26 c 0,64,65
 490 26 490 26 490 50 c 2,56,-1
EndSplineSet
Ligature2: "'abvs' Above Base Substitutions lookup 6 subtable" tm_ca tm_iikaar
EndChar

StartChar: tm_j_iikaar
Encoding: 65564 -1 144
Width: 1414
GlyphClass: 2
Flags: W
LayerCount: 2
Fore
SplineSet
1382 974 m 0,0,1
 1382 912 1382 912 1330 869 c 128,-1,2
 1278 826 1278 826 1178 826 c 0,3,4
 1070 826 1070 826 1042 844 c 1,5,6
 1042 792 1042 792 1056 776 c 1,7,8
 1062 778 1062 778 1078 778 c 0,9,10
 1222 778 1222 778 1298 684 c 0,11,12
 1358 608 1358 608 1358 502 c 0,13,14
 1358 372 1358 372 1292 288 c 0,15,16
 1210 186 1210 186 1050 186 c 2,17,-1
 366 186 l 2,18,19
 358 186 358 186 358 182 c 2,20,-1
 358 -208 l 2,21,22
 358 -214 358 -214 366 -214 c 0,23,24
 490 -214 490 -214 542 -196 c 0,25,26
 640 -162 640 -162 640 -76 c 0,27,28
 640 120 640 120 988 120 c 0,29,30
 1354 120 1354 120 1354 -56 c 0,31,32
 1354 -246 1354 -246 1044 -246 c 0,33,34
 940 -246 940 -246 872 -204 c 0,35,36
 792 -156 792 -156 792 -62 c 0,37,38
 792 36 792 36 898 84 c 1,39,40
 892 82 892 82 892 84 c 1,41,42
 676 60 676 60 676 -75 c 128,-1,43
 676 -210 676 -210 500 -238 c 0,44,45
 448 -246 448 -246 364 -246 c 0,46,47
 212 -246 212 -246 132 -178 c 0,48,49
 60 -118 60 -118 60 -18 c 2,50,-1
 60 4 l 2,51,52
 60 104 60 104 133 161 c 128,-1,53
 206 218 206 218 338 218 c 2,54,-1
 1078 218 l 2,55,56
 1084 218 1084 218 1084 226 c 2,57,-1
 1084 742 l 1,58,59
 1010 742 1010 742 956 714 c 0,60,61
 868 668 868 668 868 564 c 2,62,-1
 868 280 l 1,63,-1
 594 280 l 1,64,-1
 594 738 l 1,65,66
 540 756 540 756 452 756 c 0,67,68
 290 756 290 756 206 698 c 0,69,70
 100 626 100 626 100 512 c 0,71,72
 100 358 100 358 216 316 c 0,73,74
 218 316 218 316 220 318 c 0,75,76
 202 340 202 340 184 360 c 1,77,78
 156 404 156 404 156 460 c 0,79,80
 156 530 156 530 204 582 c 0,81,82
 256 642 256 642 340 642 c 0,83,84
 416 642 416 642 469 588 c 128,-1,85
 522 534 522 534 522 458 c 0,86,87
 522 394 522 394 484 344 c 0,88,89
 428 274 428 274 310 274 c 0,90,91
 68 274 68 274 68 508 c 0,92,93
 68 644 68 644 180 720 c 0,94,95
 284 790 284 790 452 790 c 0,96,97
 630 790 630 790 740 710 c 0,98,99
 818 652 818 652 834 584 c 0,100,101
 836 580 836 580 836 584 c 0,102,103
 846 694 846 694 946 746 c 1,104,105
 824 786 824 786 824 916 c 0,106,107
 824 1010 824 1010 882 1066 c 0,108,109
 952 1136 952 1136 1092 1136 c 0,110,111
 1382 1136 1382 1136 1382 974 c 0,0,1
1352 982 m 0,112,113
 1352 1032 1352 1032 1300 1064 c 0,114,115
 1240 1102 1240 1102 1126 1102 c 0,116,117
 1070 1102 1070 1102 1042 1098 c 1,118,-1
 1042 878 l 1,119,120
 1080 856 1080 856 1174 856 c 0,121,122
 1352 856 1352 856 1352 982 c 0,112,113
344 312 m 2,123,-1
 344 604 l 2,124,125
 344 608 344 608 332 608 c 0,126,127
 276 608 276 608 232 565 c 128,-1,128
 188 522 188 522 188 460 c 0,129,130
 188 396 188 396 233 352 c 128,-1,131
 278 308 278 308 338 308 c 0,132,133
 344 308 344 308 344 312 c 2,123,-1
1076 -210 m 1,134,-1
 1076 88 l 1,135,-1
 1048 88 l 2,136,137
 968 88 968 88 906 56 c 0,138,139
 824 14 824 14 824 -68 c 0,140,141
 824 -210 824 -210 1048 -210 c 2,142,-1
 1076 -210 l 1,134,-1
EndSplineSet
Ligature2: "'abvs' Above Base Substitutions lookup 6 subtable" tm_ja tm_iikaar
EndChar

StartChar: tm_ny_iikaar
Encoding: 65565 -1 145
Width: 1766
GlyphClass: 2
Flags: W
LayerCount: 2
Fore
SplineSet
1610 974 m 0,0,1
 1610 912 1610 912 1558 869 c 128,-1,2
 1506 826 1506 826 1406 826 c 256,3,4
 1306 826 1306 826 1270 844 c 1,5,6
 1270 784 1270 784 1292 768 c 1,7,-1
 1392 768 l 1,8,-1
 1392 736 l 1,9,-1
 1316 736 l 1,10,-1
 1316 404 l 1,11,12
 1380 458 1380 458 1490 458 c 0,13,14
 1610 458 1610 458 1678 381 c 128,-1,15
 1746 304 1746 304 1746 174 c 0,16,17
 1746 -312 1746 -312 924 -312 c 0,18,19
 552 -312 552 -312 340 -180 c 0,20,21
 84 -20 84 -20 84 316 c 0,22,23
 84 486 84 486 156 610 c 0,24,25
 218 714 218 714 310 758 c 1,26,-1
 324 728 l 1,27,28
 240 688 240 688 184 592 c 0,29,30
 118 478 118 478 118 316 c 0,31,32
 118 -280 118 -280 924 -280 c 0,33,34
 1158 -280 1158 -280 1318 -244 c 0,35,36
 1448 -214 1448 -214 1448 -188 c 2,37,-1
 1448 402 l 2,38,39
 1448 410 1448 410 1422 410 c 0,40,41
 1362 410 1362 410 1316 356 c 1,42,-1
 1316 0 l 1,43,-1
 1018 0 l 1,44,-1
 1018 736 l 1,45,-1
 728 736 l 2,46,47
 536 736 536 736 418 629 c 128,-1,48
 300 522 300 522 300 362 c 0,49,50
 300 160 300 160 416 76 c 0,51,52
 420 70 420 70 430 74 c 1,53,54
 348 152 348 152 348 260 c 0,55,56
 348 384 348 384 428 462 c 128,-1,57
 508 540 508 540 620 540 c 0,58,59
 744 540 744 540 822 448 c 0,60,61
 892 368 892 368 892 268 c 0,62,63
 892 156 892 156 818 80 c 0,64,65
 732 -10 732 -10 572 -10 c 0,66,67
 452 -10 452 -10 366 78 c 0,68,69
 266 178 266 178 266 356 c 0,70,71
 266 532 266 532 386 644 c 0,72,73
 518 768 518 768 756 768 c 2,74,-1
 1130 768 l 1,75,76
 1050 804 1050 804 1050 916 c 0,77,78
 1050 1008 1050 1008 1108 1066 c 0,79,80
 1178 1136 1178 1136 1320 1136 c 0,81,82
 1488 1136 1488 1136 1562 1072 c 0,83,84
 1610 1030 1610 1030 1610 974 c 0,0,1
600 40 m 2,85,-1
 600 494 l 2,86,87
 600 504 600 504 580 502 c 0,88,89
 508 492 508 492 450 434 c 0,90,91
 382 364 382 364 382 262 c 0,92,93
 382 182 382 182 434 120 c 128,-1,94
 486 58 486 58 566 38 c 0,95,96
 576 36 576 36 582 34 c 0,97,98
 600 32 600 32 600 40 c 2,85,-1
1578 982 m 0,99,100
 1578 1030 1578 1030 1522 1064 c 0,101,102
 1460 1102 1460 1102 1354 1102 c 0,103,104
 1298 1102 1298 1102 1270 1098 c 1,105,-1
 1270 878 l 1,106,107
 1308 856 1308 856 1402 856 c 0,108,109
 1578 856 1578 856 1578 982 c 0,99,100
EndSplineSet
Ligature2: "'abvs' Above Base Substitutions lookup 6 subtable" tm_nya tm_iikaar
EndChar

StartChar: tm_tt_iikaar
Encoding: 65566 -1 146
Width: 1384
GlyphClass: 2
Flags: W
LayerCount: 2
Fore
SplineSet
1332 0 m 1,0,-1
 82 0 l 1,1,-1
 82 768 l 1,2,-1
 380 768 l 1,3,-1
 380 32 l 1,4,-1
 764 32 l 1,5,6
 496 140 496 140 496 432 c 0,7,8
 496 590 496 590 600 692 c 0,9,10
 692 782 692 782 814 782 c 0,11,12
 964 782 964 782 1050 696 c 0,13,14
 1130 614 1130 614 1130 484 c 256,15,16
 1130 354 1130 354 1043 271 c 128,-1,17
 956 188 956 188 814 188 c 0,18,19
 690 188 690 188 606 276 c 0,20,21
 546 342 546 342 530 416 c 1,22,-1
 530 416 l 1,23,24
 530 272 530 272 598 188 c 0,25,26
 682 84 682 84 862 32 c 1,27,-1
 1332 32 l 1,28,-1
 1332 0 l 1,0,-1
822 216 m 1,29,-1
 822 750 l 1,30,-1
 816 750 l 2,31,32
 714 750 714 750 636 671 c 128,-1,33
 558 592 558 592 558 486 c 0,34,35
 558 372 558 372 636 294 c 128,-1,36
 714 216 714 216 820 216 c 2,37,-1
 822 216 l 1,29,-1
EndSplineSet
Ligature2: "'abvs' Above Base Substitutions lookup 5 subtable" tm_tta tm_iikaar
EndChar

StartChar: tm_nn_iikaar
Encoding: 65567 -1 147
Width: 2108
GlyphClass: 2
Flags: W
LayerCount: 2
Fore
SplineSet
2064 974 m 0,0,1
 2064 910 2064 910 2014 870 c 0,2,3
 1958 826 1958 826 1858 826 c 0,4,5
 1752 826 1752 826 1724 844 c 1,6,7
 1724 782 1724 782 1744 768 c 1,8,-1
 2052 768 l 1,9,-1
 2052 736 l 1,10,-1
 1976 736 l 1,11,-1
 1976 0 l 1,12,-1
 1678 0 l 1,13,-1
 1678 736 l 1,14,-1
 1542 736 l 2,15,16
 1424 736 1424 736 1340 706 c 1,17,18
 1448 652 1448 652 1510 548 c 0,19,20
 1568 452 1568 452 1568 348 c 0,21,22
 1568 198 1568 198 1494 100 c 0,23,24
 1412 -10 1412 -10 1270 -10 c 0,25,26
 1138 -10 1138 -10 1060 128 c 1,27,28
 980 -10 980 -10 818 -10 c 0,29,30
 698 -10 698 -10 628 94 c 1,31,32
 550 -10 550 -10 374 -10 c 0,33,34
 252 -10 252 -10 168 78 c 0,35,36
 68 178 68 178 68 356 c 0,37,38
 68 530 68 530 204 648 c 0,39,40
 350 776 350 776 594 776 c 0,41,42
 714 776 714 776 844 728 c 1,43,44
 954 768 954 768 1082 768 c 0,45,46
 1190 768 1190 768 1298 728 c 1,47,48
 1428 768 1428 768 1560 768 c 2,49,-1
 1582 768 l 1,50,51
 1504 802 1504 802 1504 916 c 0,52,53
 1504 1010 1504 1010 1562 1066 c 0,54,55
 1632 1136 1632 1136 1774 1136 c 0,56,57
 1940 1136 1940 1136 2016 1072 c 0,58,59
 2064 1030 2064 1030 2064 974 c 0,0,1
2032 982 m 0,60,61
 2032 1030 2032 1030 1976 1064 c 0,62,63
 1914 1102 1914 1102 1808 1102 c 0,64,65
 1752 1102 1752 1102 1724 1098 c 1,66,-1
 1724 878 l 1,67,68
 1762 856 1762 856 1856 856 c 0,69,70
 2032 856 2032 856 2032 982 c 0,60,61
1252 706 m 1,71,72
 1184 734 1184 734 1078 734 c 0,73,74
 970 734 970 734 886 706 c 1,75,76
 1008 646 1008 646 1068 530 c 1,77,78
 1136 654 1136 654 1252 706 c 1,71,72
790 702 m 1,79,80
 676 740 676 740 564 740 c 0,81,82
 364 740 364 740 232 631 c 128,-1,83
 100 522 100 522 100 362 c 0,84,85
 100 168 100 168 216 76 c 0,86,87
 220 70 220 70 230 74 c 1,88,89
 150 150 150 150 150 260 c 0,90,91
 150 376 150 376 226 458 c 128,-1,92
 302 540 302 540 422 540 c 0,93,94
 520 540 520 540 592 478 c 1,95,96
 654 636 654 636 790 702 c 1,79,80
1262 34 m 2,97,-1
 1262 664 l 2,98,99
 1262 674 1262 674 1236 660 c 0,100,101
 1132 604 1132 604 1084 494 c 1,102,103
 1114 438 1114 438 1114 348 c 0,104,105
 1114 238 1114 238 1076 162 c 1,106,107
 1096 116 1096 116 1152 64 c 0,108,109
 1192 28 1192 28 1244 28 c 0,110,111
 1262 28 1262 28 1262 34 c 2,97,-1
810 34 m 2,112,-1
 810 664 l 2,113,114
 810 674 810 674 784 660 c 0,115,116
 658 592 658 592 620 454 c 1,117,118
 692 376 692 376 692 266 c 0,119,120
 692 184 692 184 650 122 c 1,121,122
 678 72 678 72 728 46 c 0,123,124
 750 34 750 34 780 30 c 256,125,126
 810 26 810 26 810 34 c 2,112,-1
402 40 m 2,127,-1
 402 494 l 2,128,129
 402 506 402 506 380 502 c 0,130,131
 308 492 308 492 250 434 c 0,132,133
 182 364 182 364 182 262 c 0,134,135
 182 182 182 182 234 120 c 128,-1,136
 286 58 286 58 366 38 c 0,137,138
 380 34 380 34 388 34 c 0,139,140
 402 32 402 32 402 40 c 2,127,-1
EndSplineSet
Ligature2: "'abvs' Above Base Substitutions lookup 6 subtable" tm_nna tm_iikaar
EndChar

StartChar: tm_t_iikaar
Encoding: 65568 -1 148
Width: 1252
GlyphClass: 2
Flags: W
LayerCount: 2
Fore
SplineSet
1194 238 m 0,0,1
 1194 -122 1194 -122 692 -122 c 2,2,-1
 416 -122 l 2,3,4
 374 -122 374 -122 374 -148 c 2,5,-1
 374 -318 l 1,6,-1
 74 -318 l 1,7,-1
 74 -290 l 2,8,9
 74 -178 74 -178 142 -130 c 0,10,11
 204 -88 204 -88 342 -88 c 2,12,-1
 756 -88 l 2,13,14
 816 -88 816 -88 865 -73 c 128,-1,15
 914 -58 914 -58 914 -40 c 2,16,-1
 914 420 l 2,17,18
 914 458 914 458 886 458 c 2,19,-1
 788 458 l 1,20,-1
 788 242 l 2,21,22
 788 224 788 224 748 170 c 0,23,24
 696 100 696 100 620 54 c 0,25,26
 518 -6 518 -6 390 -6 c 256,27,28
 262 -6 262 -6 178 50 c 0,29,30
 74 122 74 122 74 266 c 0,31,32
 74 340 74 340 120 400 c 0,33,34
 174 470 174 470 264 484 c 1,35,-1
 264 768 l 1,36,-1
 710 768 l 1,37,38
 632 802 632 802 632 916 c 0,39,40
 632 1010 632 1010 690 1066 c 0,41,42
 760 1136 760 1136 902 1136 c 0,43,44
 1068 1136 1068 1136 1142 1072 c 0,45,46
 1190 1030 1190 1030 1190 974 c 0,47,48
 1190 912 1190 912 1138 869 c 128,-1,49
 1086 826 1086 826 986 826 c 0,50,51
 878 826 878 826 850 844 c 1,52,53
 850 784 850 784 870 768 c 1,54,-1
 1028 768 l 1,55,-1
 1028 736 l 1,56,-1
 788 736 l 1,57,-1
 788 492 l 1,58,-1
 902 492 l 2,59,60
 1048 492 1048 492 1126 414 c 0,61,62
 1194 344 1194 344 1194 238 c 0,0,1
1160 982 m 0,63,64
 1160 1030 1160 1030 1104 1064 c 0,65,66
 1040 1102 1040 1102 934 1102 c 0,67,68
 882 1102 882 1102 850 1098 c 1,69,-1
 850 878 l 1,70,71
 888 856 888 856 984 856 c 0,72,73
 1160 856 1160 856 1160 982 c 0,63,64
490 492 m 1,74,-1
 490 736 l 1,75,-1
 296 736 l 1,76,-1
 296 492 l 1,77,-1
 490 492 l 1,74,-1
490 50 m 2,78,-1
 490 458 l 1,79,-1
 338 458 l 2,80,81
 210 458 210 458 150 386 c 0,82,83
 106 334 106 334 106 260 c 0,84,85
 106 26 106 26 398 26 c 0,86,87
 490 26 490 26 490 50 c 2,78,-1
EndSplineSet
Ligature2: "'abvs' Above Base Substitutions lookup 6 subtable" tm_ta tm_iikaar
EndChar

StartChar: tm_n_iikaar
Encoding: 65569 -1 149
Width: 1092
GlyphClass: 2
Flags: W
LayerCount: 2
Fore
SplineSet
1022 974 m 0,0,1
 1022 912 1022 912 972 870 c 0,2,3
 916 826 916 826 818 826 c 0,4,5
 710 826 710 826 682 844 c 1,6,7
 682 782 682 782 702 768 c 1,8,-1
 854 768 l 1,9,-1
 854 736 l 1,10,-1
 614 736 l 1,11,-1
 614 444 l 1,12,13
 668 502 668 502 764 502 c 0,14,15
 870 502 870 502 940 442 c 0,16,17
 1020 370 1020 370 1020 238 c 0,18,19
 1020 -122 1020 -122 518 -122 c 2,20,-1
 394 -122 l 2,21,22
 352 -122 352 -122 352 -148 c 2,23,-1
 352 -318 l 1,24,-1
 54 -318 l 1,25,-1
 54 -290 l 2,26,27
 54 -178 54 -178 122 -130 c 0,28,29
 184 -88 184 -88 322 -88 c 2,30,-1
 562 -88 l 2,31,32
 740 -88 740 -88 740 -32 c 2,33,-1
 740 438 l 2,34,35
 740 458 740 458 710 458 c 0,36,37
 666 458 666 458 640 432 c 128,-1,38
 614 406 614 406 614 382 c 2,39,-1
 614 -2 l 1,40,-1
 316 0 l 1,41,-1
 316 736 l 1,42,-1
 122 736 l 1,43,-1
 122 0 l 1,44,-1
 88 0 l 1,45,-1
 88 768 l 1,46,-1
 542 768 l 1,47,48
 464 802 464 802 464 916 c 0,49,50
 464 1010 464 1010 522 1066 c 0,51,52
 592 1136 592 1136 732 1136 c 0,53,54
 900 1136 900 1136 974 1072 c 0,55,56
 1022 1030 1022 1030 1022 974 c 0,0,1
990 982 m 0,57,58
 990 1030 990 1030 934 1064 c 0,59,60
 870 1102 870 1102 764 1102 c 0,61,62
 710 1102 710 1102 682 1098 c 1,63,-1
 682 878 l 1,64,65
 716 856 716 856 814 856 c 0,66,67
 990 856 990 856 990 982 c 0,57,58
EndSplineSet
Ligature2: "'abvs' Above Base Substitutions lookup 6 subtable" tm_na tm_iikaar
EndChar

StartChar: tm_nnn_iikaar
Encoding: 65570 -1 150
Width: 1660
GlyphClass: 2
Flags: W
LayerCount: 2
Fore
SplineSet
1604 974 m 0,0,1
 1604 912 1604 912 1554 870 c 0,2,3
 1498 826 1498 826 1400 826 c 0,4,5
 1292 826 1292 826 1264 844 c 1,6,7
 1264 782 1264 782 1284 768 c 1,8,-1
 1600 768 l 1,9,-1
 1600 736 l 1,10,-1
 1524 736 l 1,11,-1
 1524 0 l 1,12,-1
 1226 0 l 1,13,-1
 1226 736 l 1,14,-1
 1090 736 l 2,15,16
 972 736 972 736 886 706 c 1,17,-1
 886 706 l 1,18,19
 996 652 996 652 1058 548 c 0,20,21
 1114 452 1114 452 1114 348 c 0,22,23
 1114 198 1114 198 1040 100 c 0,24,25
 958 -10 958 -10 818 -10 c 0,26,27
 698 -10 698 -10 628 94 c 1,28,29
 550 -10 550 -10 374 -10 c 0,30,31
 252 -10 252 -10 168 78 c 0,32,33
 68 178 68 178 68 356 c 0,34,35
 68 530 68 530 204 648 c 0,36,37
 350 776 350 776 594 776 c 0,38,39
 714 776 714 776 844 728 c 1,40,41
 974 768 974 768 1106 768 c 2,42,-1
 1124 768 l 1,43,44
 1044 804 1044 804 1044 916 c 0,45,46
 1044 1008 1044 1008 1102 1066 c 0,47,48
 1172 1136 1172 1136 1314 1136 c 0,49,50
 1482 1136 1482 1136 1556 1072 c 0,51,52
 1604 1030 1604 1030 1604 974 c 0,0,1
1572 982 m 0,53,54
 1572 1030 1572 1030 1516 1064 c 0,55,56
 1452 1102 1452 1102 1346 1102 c 0,57,58
 1292 1102 1292 1102 1264 1098 c 1,59,-1
 1264 878 l 1,60,61
 1298 856 1298 856 1396 856 c 0,62,63
 1572 856 1572 856 1572 982 c 0,53,54
792 702 m 1,64,65
 668 740 668 740 564 740 c 0,66,67
 364 740 364 740 232 631 c 128,-1,68
 100 522 100 522 100 362 c 0,69,70
 100 168 100 168 216 76 c 0,71,72
 220 70 220 70 230 74 c 1,73,74
 150 150 150 150 150 260 c 0,75,76
 150 376 150 376 226 458 c 128,-1,77
 302 540 302 540 422 540 c 0,78,79
 520 540 520 540 592 478 c 1,80,81
 648 638 648 638 792 702 c 1,64,65
810 34 m 2,82,-1
 810 664 l 2,83,84
 810 676 810 676 784 660 c 0,85,86
 658 598 658 598 620 454 c 1,87,88
 692 376 692 376 692 266 c 0,89,90
 692 184 692 184 650 122 c 1,91,92
 678 72 678 72 728 46 c 0,93,94
 750 34 750 34 780 30 c 256,95,96
 810 26 810 26 810 34 c 2,82,-1
402 40 m 2,97,-1
 402 494 l 2,98,99
 402 506 402 506 380 502 c 0,100,101
 308 492 308 492 250 434 c 0,102,103
 182 364 182 364 182 262 c 0,104,105
 182 182 182 182 234 120 c 128,-1,106
 286 58 286 58 366 38 c 0,107,108
 380 34 380 34 388 34 c 0,109,110
 402 32 402 32 402 40 c 2,97,-1
EndSplineSet
Ligature2: "'abvs' Above Base Substitutions lookup 6 subtable" tm_nnna tm_iikaar
EndChar

StartChar: tm_p_iikaar
Encoding: 65571 -1 151
Width: 1176
GlyphClass: 2
Flags: W
LayerCount: 2
Fore
SplineSet
1104 0 m 1,0,-1
 78 0 l 1,1,-1
 78 768 l 1,2,-1
 376 768 l 1,3,-1
 376 34 l 1,4,-1
 806 34 l 1,5,-1
 806 506 l 1,6,7
 694 528 694 528 622 604 c 0,8,9
 546 688 546 688 546 810 c 0,10,11
 546 950 546 950 624 1038 c 0,12,13
 710 1140 710 1140 870 1140 c 0,14,15
 988 1140 988 1140 1050 1082 c 0,16,17
 1092 1042 1092 1042 1092 998 c 0,18,19
 1092 930 1092 930 1041 889 c 128,-1,20
 990 848 990 848 894 848 c 0,21,22
 850 848 850 848 768 866 c 1,23,-1
 768 570 l 2,24,25
 768 536 768 536 806 542 c 1,26,-1
 806 768 l 1,27,-1
 1104 768 l 1,28,-1
 1104 0 l 1,0,-1
1060 996 m 0,29,30
 1060 1042 1060 1042 1009 1075 c 128,-1,31
 958 1108 958 1108 876 1108 c 0,32,33
 770 1108 770 1108 770 1084 c 2,34,-1
 770 908 l 2,35,36
 770 900 770 900 815 890 c 128,-1,37
 860 880 860 880 894 880 c 0,38,39
 1060 880 1060 880 1060 996 c 0,29,30
EndSplineSet
Ligature2: "'abvs' Above Base Substitutions lookup 6 subtable" tm_pa tm_iikaar
EndChar

StartChar: tm_m_iikaar
Encoding: 65572 -1 152
Width: 1304
GlyphClass: 2
Flags: W
LayerCount: 2
Fore
SplineSet
1248 390 m 0,0,1
 1248 222 1248 222 1132 111 c 128,-1,2
 1016 0 1016 0 854 0 c 2,3,-1
 78 0 l 1,4,-1
 78 768 l 1,5,-1
 376 768 l 1,6,-1
 376 34 l 1,7,-1
 552 34 l 1,8,-1
 552 768 l 1,9,-1
 750 768 l 1,10,11
 672 802 672 802 672 916 c 0,12,13
 672 1010 672 1010 730 1066 c 0,14,15
 800 1136 800 1136 942 1136 c 0,16,17
 1108 1136 1108 1136 1182 1072 c 0,18,19
 1230 1030 1230 1030 1230 974 c 0,20,21
 1230 912 1230 912 1178 869 c 128,-1,22
 1126 826 1126 826 1026 826 c 0,23,24
 918 826 918 826 890 844 c 1,25,26
 890 778 890 778 916 764 c 1,27,28
 1058 744 1058 744 1153 642 c 128,-1,29
 1248 540 1248 540 1248 390 c 0,0,1
1198 982 m 0,30,31
 1198 1030 1198 1030 1142 1064 c 0,32,33
 1080 1102 1080 1102 974 1102 c 0,34,35
 922 1102 922 1102 890 1098 c 1,36,-1
 890 878 l 1,37,38
 928 856 928 856 1022 856 c 0,39,40
 1198 856 1198 856 1198 982 c 0,30,31
1214 390 m 0,41,42
 1214 546 1214 546 1106 644 c 0,43,44
 1002 736 1002 736 858 736 c 0,45,46
 854 736 854 736 854 730 c 2,47,-1
 854 38 l 2,48,49
 854 32 854 32 858 32 c 0,50,51
 1000 32 1000 32 1107 134 c 128,-1,52
 1214 236 1214 236 1214 390 c 0,41,42
EndSplineSet
Ligature2: "'abvs' Above Base Substitutions lookup 6 subtable" tm_ma tm_iikaar
EndChar

StartChar: tm_y_iikaar
Encoding: 65573 -1 153
Width: 1332
GlyphClass: 2
Flags: W
LayerCount: 2
Fore
SplineSet
1262 0 m 1,0,-1
 374 0 l 1,1,-1
 374 144 l 1,2,3
 310 66 310 66 280 40 c 0,4,5
 230 -4 230 -4 180 -4 c 0,6,7
 110 -4 110 -4 84 44 c 0,8,9
 66 78 66 78 66 156 c 2,10,-1
 66 768 l 1,11,-1
 100 768 l 1,12,-1
 100 124 l 2,13,14
 100 32 100 32 180 32 c 0,15,16
 224 32 224 32 288 96 c 0,17,18
 340 148 340 148 374 208 c 1,19,-1
 374 768 l 1,20,-1
 674 768 l 1,21,-1
 674 34 l 1,22,-1
 964 34 l 1,23,-1
 964 506 l 1,24,25
 852 528 852 528 780 604 c 0,26,27
 704 688 704 688 704 810 c 0,28,29
 704 948 704 948 782 1038 c 0,30,31
 870 1140 870 1140 1030 1140 c 0,32,33
 1148 1140 1148 1140 1208 1082 c 0,34,35
 1250 1042 1250 1042 1250 998 c 0,36,37
 1250 930 1250 930 1199 889 c 128,-1,38
 1148 848 1148 848 1054 848 c 0,39,40
 1000 848 1000 848 928 866 c 1,41,-1
 928 570 l 2,42,43
 928 536 928 536 964 542 c 1,44,-1
 964 768 l 1,45,-1
 1262 768 l 1,46,-1
 1262 0 l 1,0,-1
1218 996 m 0,47,48
 1218 1042 1218 1042 1167 1075 c 128,-1,49
 1116 1108 1116 1108 1034 1108 c 0,50,51
 928 1108 928 1108 928 1084 c 2,52,-1
 928 908 l 2,53,54
 928 900 928 900 973 890 c 128,-1,55
 1018 880 1018 880 1052 880 c 0,56,57
 1218 880 1218 880 1218 996 c 0,47,48
EndSplineSet
Ligature2: "'abvs' Above Base Substitutions lookup 6 subtable" tm_ya tm_iikaar
EndChar

StartChar: tm_r_iikaar
Encoding: 65574 -1 154
Width: 816
GlyphClass: 2
Flags: W
LayerCount: 2
Fore
SplineSet
770 974 m 0,0,1
 770 912 770 912 720 870 c 0,2,3
 664 826 664 826 566 826 c 0,4,5
 458 826 458 826 430 844 c 1,6,7
 430 782 430 782 450 768 c 1,8,-1
 748 768 l 1,9,-1
 748 736 l 1,10,-1
 602 736 l 1,11,-1
 602 0 l 1,12,-1
 64 -324 l 1,13,-1
 64 -286 l 1,14,-1
 304 -140 l 1,15,-1
 304 736 l 1,16,-1
 110 736 l 1,17,-1
 110 0 l 1,18,-1
 78 0 l 1,19,-1
 78 768 l 1,20,-1
 288 768 l 1,21,22
 210 802 210 802 210 916 c 0,23,24
 210 1010 210 1010 268 1066 c 0,25,26
 338 1136 338 1136 480 1136 c 0,27,28
 646 1136 646 1136 722 1072 c 0,29,30
 770 1030 770 1030 770 974 c 0,0,1
736 982 m 0,31,32
 736 1030 736 1030 680 1064 c 0,33,34
 618 1102 618 1102 512 1102 c 0,35,36
 458 1102 458 1102 430 1098 c 1,37,-1
 430 878 l 1,38,39
 464 856 464 856 560 856 c 0,40,41
 736 856 736 856 736 982 c 0,31,32
EndSplineSet
Ligature2: "'abvs' Above Base Substitutions lookup 5 subtable" tm_ra tm_iikaar
EndChar

StartChar: tm_rr_iikaar
Encoding: 65575 -1 155
Width: 1162
GlyphClass: 2
Flags: W
LayerCount: 2
Fore
SplineSet
1118 974 m 0,0,1
 1118 912 1118 912 1068 870 c 0,2,3
 1012 826 1012 826 914 826 c 0,4,5
 806 826 806 826 778 844 c 1,6,7
 778 786 778 786 794 772 c 0,8,9
 800 772 800 772 812 774 c 0,10,11
 824 774 824 774 830 774 c 0,12,13
 954 774 954 774 1030 723 c 128,-1,14
 1106 672 1106 672 1106 582 c 0,15,16
 1106 400 1106 400 910 400 c 1,17,-1
 910 380 l 1,18,19
 1000 380 1000 380 1055 325 c 128,-1,20
 1110 270 1110 270 1110 184 c 0,21,22
 1110 -122 1110 -122 604 -122 c 2,23,-1
 384 -122 l 2,24,25
 342 -122 342 -122 342 -148 c 2,26,-1
 342 -318 l 1,27,-1
 44 -318 l 1,28,-1
 44 -290 l 2,29,30
 44 -178 44 -178 112 -130 c 0,31,32
 172 -88 172 -88 310 -88 c 2,33,-1
 580 -88 l 2,34,35
 834 -88 834 -88 834 -28 c 2,36,-1
 834 338 l 2,37,38
 834 364 834 364 821 369 c 128,-1,39
 808 374 808 374 748 374 c 1,40,-1
 748 408 l 1,41,42
 834 408 834 408 834 438 c 2,43,-1
 834 732 l 2,44,45
 834 740 834 740 814 740 c 0,46,47
 740 740 740 740 682 690 c 0,48,49
 618 634 618 634 618 554 c 2,50,-1
 618 0 l 1,51,-1
 330 0 l 1,52,-1
 330 724 l 2,53,54
 330 736 330 736 288 736 c 0,55,56
 210 736 210 736 160 688 c 128,-1,57
 110 640 110 640 110 550 c 2,58,-1
 110 0 l 1,59,-1
 78 0 l 1,60,-1
 78 536 l 2,61,62
 78 774 78 774 332 774 c 0,63,64
 458 774 458 774 528 720 c 0,65,66
 564 692 564 692 598 628 c 1,67,68
 628 698 628 698 704 742 c 1,69,70
 558 772 558 772 558 916 c 0,71,72
 558 1010 558 1010 616 1066 c 0,73,74
 686 1136 686 1136 828 1136 c 0,75,76
 994 1136 994 1136 1070 1072 c 0,77,78
 1118 1030 1118 1030 1118 974 c 0,0,1
1086 982 m 0,79,80
 1086 1030 1086 1030 1030 1064 c 0,81,82
 966 1102 966 1102 860 1102 c 0,83,84
 806 1102 806 1102 778 1098 c 1,85,-1
 778 878 l 1,86,87
 812 856 812 856 908 856 c 0,88,89
 1086 856 1086 856 1086 982 c 0,79,80
EndSplineSet
Ligature2: "'abvs' Above Base Substitutions lookup 6 subtable" tm_rra tm_iikaar
EndChar

StartChar: tm_l_iikaar
Encoding: 65576 -1 156
Width: 1468
GlyphClass: 2
Flags: W
LayerCount: 2
Fore
SplineSet
1458 998 m 0,0,1
 1458 930 1458 930 1407 889 c 128,-1,2
 1356 848 1356 848 1262 848 c 0,3,4
 1216 848 1216 848 1134 866 c 1,5,-1
 1134 558 l 2,6,7
 1134 548 1134 548 1156 540 c 0,8,9
 1184 526 1184 526 1232 526 c 0,10,11
 1290 526 1290 526 1344 560 c 1,12,13
 1284 714 1284 714 1160 780 c 1,14,-1
 1176 812 l 1,15,16
 1284 750 1284 750 1344 640 c 128,-1,17
 1404 530 1404 530 1404 408 c 0,18,19
 1404 238 1404 238 1330 130 c 0,20,21
 1234 -10 1234 -10 1026 -10 c 0,22,23
 750 -10 750 -10 750 302 c 2,24,-1
 750 694 l 2,25,26
 750 740 750 740 536 740 c 0,27,28
 340 740 340 740 220 632 c 128,-1,29
 100 524 100 524 100 362 c 0,30,31
 100 168 100 168 216 76 c 0,32,33
 220 70 220 70 230 74 c 1,34,35
 150 150 150 150 150 260 c 0,36,37
 150 384 150 384 230 462 c 128,-1,38
 310 540 310 540 420 540 c 0,39,40
 546 540 546 540 624 448 c 0,41,42
 692 368 692 368 692 268 c 0,43,44
 692 156 692 156 620 80 c 0,45,46
 534 -10 534 -10 374 -10 c 0,47,48
 252 -10 252 -10 168 78 c 0,49,50
 68 178 68 178 68 356 c 0,51,52
 68 532 68 532 188 646 c 0,53,54
 320 772 320 772 548 772 c 0,55,56
 824 772 824 772 958 614 c 0,57,58
 1048 508 1048 508 1048 384 c 2,59,-1
 1048 52 l 2,60,61
 1048 26 1048 26 1088 30 c 0,62,63
 1242 46 1242 46 1314 166 c 0,64,65
 1374 260 1374 260 1374 404 c 0,66,67
 1374 470 1374 470 1354 530 c 1,68,69
 1300 496 1300 496 1244 496 c 0,70,71
 1082 496 1082 496 996 594 c 0,72,73
 920 680 920 680 920 810 c 0,74,75
 920 948 920 948 992 1036 c 0,76,77
 1072 1136 1072 1136 1218 1136 c 0,78,79
 1358 1136 1358 1136 1420 1080 c 0,80,81
 1458 1046 1458 1046 1458 998 c 0,0,1
1426 996 m 0,82,83
 1426 1042 1426 1042 1375 1075 c 128,-1,84
 1324 1108 1324 1108 1240 1108 c 0,85,86
 1134 1108 1134 1108 1134 1084 c 2,87,-1
 1134 908 l 2,88,89
 1134 900 1134 900 1180 890 c 128,-1,90
 1226 880 1226 880 1260 880 c 0,91,92
 1426 880 1426 880 1426 996 c 0,82,83
402 40 m 2,93,-1
 402 494 l 2,94,95
 402 506 402 506 380 502 c 0,96,97
 308 492 308 492 250 434 c 0,98,99
 182 364 182 364 182 262 c 0,100,101
 182 182 182 182 234 120 c 128,-1,102
 286 58 286 58 366 38 c 0,103,104
 380 34 380 34 388 34 c 0,105,106
 402 32 402 32 402 40 c 2,93,-1
EndSplineSet
Ligature2: "'abvs' Above Base Substitutions lookup 5 subtable" tm_la tm_iikaar
EndChar

StartChar: tm_ll_iikaar
Encoding: 65577 -1 157
Width: 1632
GlyphClass: 2
Flags: W
LayerCount: 2
Fore
SplineSet
1592 974 m 0,0,1
 1592 912 1592 912 1540 869 c 128,-1,2
 1488 826 1488 826 1388 826 c 0,3,4
 1280 826 1280 826 1252 844 c 1,5,6
 1252 782 1252 782 1272 768 c 1,7,-1
 1582 768 l 1,8,-1
 1582 736 l 1,9,-1
 1504 736 l 1,10,-1
 1504 0 l 1,11,-1
 1206 0 l 1,12,-1
 1206 736 l 1,13,-1
 1012 736 l 1,14,-1
 1012 0 l 1,15,-1
 756 0 l 1,16,-1
 756 686 l 2,17,18
 756 704 756 704 702 720 c 0,19,20
 638 740 638 740 536 740 c 0,21,22
 340 740 340 740 220 632 c 128,-1,23
 100 524 100 524 100 362 c 0,24,25
 100 168 100 168 216 76 c 0,26,27
 220 70 220 70 230 74 c 1,28,29
 150 150 150 150 150 260 c 0,30,31
 150 384 150 384 230 462 c 128,-1,32
 310 540 310 540 420 540 c 0,33,34
 546 540 546 540 624 448 c 0,35,36
 692 368 692 368 692 268 c 0,37,38
 692 156 692 156 620 80 c 0,39,40
 534 -10 534 -10 374 -10 c 0,41,42
 252 -10 252 -10 168 78 c 0,43,44
 68 178 68 178 68 356 c 0,45,46
 68 532 68 532 188 646 c 0,47,48
 320 772 320 772 548 772 c 0,49,50
 856 772 856 772 980 572 c 1,51,-1
 980 768 l 1,52,-1
 1112 768 l 1,53,54
 1034 802 1034 802 1034 916 c 0,55,56
 1034 1010 1034 1010 1092 1066 c 0,57,58
 1162 1136 1162 1136 1304 1136 c 0,59,60
 1470 1136 1470 1136 1544 1072 c 0,61,62
 1592 1030 1592 1030 1592 974 c 0,0,1
1560 982 m 0,63,64
 1560 1030 1560 1030 1504 1064 c 0,65,66
 1442 1102 1442 1102 1336 1102 c 0,67,68
 1284 1102 1284 1102 1252 1098 c 1,69,-1
 1252 878 l 1,70,71
 1290 856 1290 856 1384 856 c 0,72,73
 1560 856 1560 856 1560 982 c 0,63,64
402 40 m 2,74,-1
 402 494 l 2,75,76
 402 506 402 506 380 502 c 0,77,78
 308 492 308 492 250 434 c 0,79,80
 182 364 182 364 182 262 c 0,81,82
 182 182 182 182 234 120 c 128,-1,83
 286 58 286 58 366 38 c 0,84,85
 380 34 380 34 388 34 c 0,86,87
 402 32 402 32 402 40 c 2,74,-1
EndSplineSet
Ligature2: "'abvs' Above Base Substitutions lookup 6 subtable" tm_lla tm_iikaar
EndChar

StartChar: tm_lll_iikaar
Encoding: 65578 -1 158
Width: 1304
GlyphClass: 2
Flags: W
LayerCount: 2
Fore
SplineSet
1248 394 m 0,0,1
 1248 226 1248 226 1132 115 c 128,-1,2
 1016 4 1016 4 854 4 c 1,3,-1
 854 -60 l 2,4,5
 854 -108 854 -108 896 -108 c 2,6,-1
 1084 -108 l 1,7,-1
 1084 -146 l 1,8,-1
 786 -146 l 2,9,10
 766 -146 766 -146 736 -190 c 0,11,12
 700 -246 700 -246 648 -274 c 0,13,14
 562 -318 562 -318 402 -318 c 0,15,16
 256 -318 256 -318 165 -248 c 128,-1,17
 74 -178 74 -178 74 -64 c 1,18,-1
 108 -64 l 1,19,20
 108 -166 108 -166 186 -224 c 128,-1,21
 264 -282 264 -282 380 -282 c 0,22,23
 408 -282 408 -282 414 -280 c 1,24,25
 418 -246 418 -246 450 -176 c 1,26,27
 492 -124 492 -124 590 -124 c 2,28,-1
 716 -124 l 1,29,-1
 716 -118 l 1,30,31
 662 -118 662 -118 613 -78 c 128,-1,32
 564 -38 564 -38 558 4 c 1,33,-1
 78 4 l 1,34,-1
 78 772 l 1,35,-1
 376 772 l 1,36,-1
 376 38 l 1,37,-1
 552 38 l 1,38,-1
 552 772 l 1,39,-1
 742 772 l 1,40,41
 672 808 672 808 672 916 c 0,42,43
 672 1010 672 1010 730 1066 c 0,44,45
 800 1136 800 1136 942 1136 c 0,46,47
 1108 1136 1108 1136 1182 1072 c 0,48,49
 1230 1030 1230 1030 1230 974 c 0,50,51
 1230 912 1230 912 1178 869 c 128,-1,52
 1126 826 1126 826 1026 826 c 0,53,54
 918 826 918 826 890 844 c 1,55,56
 890 782 890 782 910 768 c 1,57,58
 1056 750 1056 750 1150 650 c 0,59,60
 1248 544 1248 544 1248 394 c 0,0,1
1198 982 m 0,61,62
 1198 1030 1198 1030 1142 1064 c 0,63,64
 1080 1102 1080 1102 974 1102 c 0,65,66
 922 1102 922 1102 890 1098 c 1,67,-1
 890 878 l 1,68,69
 928 856 928 856 1022 856 c 0,70,71
 1198 856 1198 856 1198 982 c 0,61,62
1214 394 m 256,72,73
 1214 548 1214 548 1106 648 c 0,74,75
 1002 740 1002 740 858 740 c 0,76,77
 854 738 854 738 854 734 c 2,78,-1
 854 40 l 2,79,80
 854 34 854 34 858 34 c 0,81,82
 1000 34 1000 34 1107 137 c 128,-1,83
 1214 240 1214 240 1214 394 c 256,72,73
EndSplineSet
Ligature2: "'abvs' Above Base Substitutions lookup 6 subtable" tm_llla tm_iikaar
EndChar

StartChar: tm_v_iikaar
Encoding: 65579 -1 159
Width: 1562
GlyphClass: 2
Flags: W
LayerCount: 2
Fore
SplineSet
1486 0 m 1,0,-1
 718 0 l 1,1,-1
 718 34 l 1,2,3
 788 34 788 34 788 66 c 2,4,-1
 788 664 l 2,5,6
 788 694 788 694 728 716 c 0,7,8
 660 740 660 740 536 740 c 0,9,10
 340 740 340 740 220 632 c 128,-1,11
 100 524 100 524 100 362 c 0,12,13
 100 168 100 168 216 76 c 0,14,15
 220 70 220 70 230 74 c 1,16,17
 150 150 150 150 150 260 c 0,18,19
 150 384 150 384 230 462 c 128,-1,20
 310 540 310 540 420 540 c 0,21,22
 546 540 546 540 624 448 c 0,23,24
 692 368 692 368 692 268 c 0,25,26
 692 156 692 156 620 80 c 0,27,28
 534 -10 534 -10 374 -10 c 0,29,30
 252 -10 252 -10 168 78 c 0,31,32
 68 178 68 178 68 356 c 0,33,34
 68 532 68 532 188 646 c 0,35,36
 320 772 320 772 548 772 c 0,37,38
 836 772 836 772 976 632 c 0,39,40
 1084 526 1084 526 1084 366 c 0,41,42
 1084 248 1084 248 1032 152 c 0,43,44
 990 68 990 68 930 32 c 1,45,-1
 1188 32 l 1,46,-1
 1188 506 l 1,47,48
 1074 528 1074 528 1004 604 c 0,49,50
 928 688 928 688 928 810 c 0,51,52
 928 948 928 948 1006 1038 c 0,53,54
 1094 1140 1094 1140 1252 1140 c 0,55,56
 1370 1140 1370 1140 1430 1082 c 0,57,58
 1474 1042 1474 1042 1474 998 c 0,59,60
 1474 930 1474 930 1422 889 c 128,-1,61
 1370 848 1370 848 1276 848 c 0,62,63
 1238 848 1238 848 1148 866 c 1,64,-1
 1148 570 l 2,65,66
 1148 536 1148 536 1188 542 c 1,67,-1
 1188 768 l 1,68,-1
 1486 768 l 1,69,-1
 1486 0 l 1,0,-1
1440 996 m 0,70,71
 1440 1042 1440 1042 1390 1075 c 128,-1,72
 1340 1108 1340 1108 1256 1108 c 0,73,74
 1150 1108 1150 1108 1150 1084 c 2,75,-1
 1150 908 l 2,76,77
 1150 900 1150 900 1196 890 c 128,-1,78
 1242 880 1242 880 1276 880 c 0,79,80
 1440 880 1440 880 1440 996 c 0,70,71
402 40 m 2,81,-1
 402 494 l 2,82,83
 402 506 402 506 380 502 c 0,84,85
 308 492 308 492 250 434 c 0,86,87
 182 364 182 364 182 262 c 0,88,89
 182 182 182 182 234 120 c 128,-1,90
 286 58 286 58 366 38 c 0,91,92
 380 34 380 34 388 34 c 0,93,94
 402 32 402 32 402 40 c 2,81,-1
EndSplineSet
Ligature2: "'abvs' Above Base Substitutions lookup 6 subtable" tm_va tm_iikaar
EndChar

StartChar: tm_ss_iikaar
Encoding: 65580 -1 160
Width: 1988
GlyphClass: 2
Flags: W
LayerCount: 2
Fore
SplineSet
1936 0 m 1,0,-1
 1832 0 l 1,1,-1
 1832 -318 l 1,2,-1
 1534 -318 l 1,3,-1
 1534 0 l 1,4,-1
 718 0 l 1,5,-1
 718 34 l 1,6,7
 788 34 788 34 788 66 c 2,8,-1
 788 664 l 2,9,10
 788 694 788 694 728 716 c 0,11,12
 660 740 660 740 536 740 c 0,13,14
 340 740 340 740 220 632 c 128,-1,15
 100 524 100 524 100 362 c 0,16,17
 100 168 100 168 216 76 c 0,18,19
 220 70 220 70 230 74 c 1,20,21
 150 150 150 150 150 260 c 0,22,23
 150 384 150 384 230 462 c 128,-1,24
 310 540 310 540 420 540 c 0,25,26
 546 540 546 540 624 448 c 0,27,28
 692 368 692 368 692 268 c 0,29,30
 692 156 692 156 620 80 c 0,31,32
 534 -10 534 -10 374 -10 c 0,33,34
 252 -10 252 -10 168 78 c 0,35,36
 68 178 68 178 68 356 c 0,37,38
 68 532 68 532 188 646 c 0,39,40
 320 772 320 772 548 772 c 0,41,42
 836 772 836 772 976 632 c 0,43,44
 1084 526 1084 526 1084 366 c 0,45,46
 1084 248 1084 248 1032 152 c 0,47,48
 988 68 988 68 930 34 c 1,49,-1
 1188 34 l 1,50,-1
 1188 396 l 2,51,52
 1188 672 1188 672 1358 754 c 1,53,54
 1246 794 1246 794 1246 916 c 0,55,56
 1246 1010 1246 1010 1304 1066 c 0,57,58
 1374 1136 1374 1136 1516 1136 c 0,59,60
 1682 1136 1682 1136 1756 1072 c 0,61,62
 1804 1030 1804 1030 1804 974 c 0,63,64
 1804 912 1804 912 1752 869 c 128,-1,65
 1700 826 1700 826 1600 826 c 0,66,67
 1492 826 1492 826 1464 844 c 1,68,69
 1464 800 1464 800 1472 784 c 1,70,71
 1480 784 1480 784 1492 786 c 0,72,73
 1506 786 1506 786 1512 786 c 0,74,75
 1676 786 1676 786 1766 650 c 0,76,77
 1832 546 1832 546 1832 426 c 2,78,-1
 1832 34 l 1,79,-1
 1936 34 l 1,80,-1
 1936 0 l 1,0,-1
1774 982 m 0,81,82
 1774 1030 1774 1030 1718 1064 c 0,83,84
 1654 1102 1654 1102 1548 1102 c 0,85,86
 1496 1102 1496 1102 1464 1098 c 1,87,-1
 1464 878 l 1,88,89
 1502 856 1502 856 1596 856 c 0,90,91
 1774 856 1774 856 1774 982 c 0,81,82
1534 34 m 1,92,-1
 1534 736 l 2,93,94
 1534 752 1534 752 1516 752 c 0,95,96
 1220 752 1220 752 1220 396 c 2,97,-1
 1220 34 l 1,98,-1
 1534 34 l 1,92,-1
402 40 m 2,99,-1
 402 494 l 2,100,101
 402 506 402 506 380 502 c 0,102,103
 308 492 308 492 250 434 c 0,104,105
 182 364 182 364 182 262 c 0,106,107
 182 182 182 182 234 120 c 128,-1,108
 286 58 286 58 366 38 c 0,109,110
 380 34 380 34 388 34 c 0,111,112
 402 32 402 32 402 40 c 2,99,-1
EndSplineSet
Ligature2: "'abvs' Above Base Substitutions lookup 6 subtable" tm_ssa tm_iikaar
EndChar

StartChar: tm_s_iikaar
Encoding: 65581 -1 161
Width: 2014
GlyphClass: 2
Flags: W
LayerCount: 2
Fore
SplineSet
1958 1012 m 0,0,1
 1958 944 1958 944 1906 903 c 128,-1,2
 1854 862 1854 862 1760 862 c 0,3,4
 1716 862 1716 862 1634 880 c 1,5,-1
 1634 572 l 2,6,7
 1634 564 1634 564 1659 552 c 128,-1,8
 1684 540 1684 540 1730 540 c 0,9,10
 1790 540 1790 540 1844 574 c 1,11,12
 1782 734 1782 734 1658 792 c 1,13,-1
 1674 828 l 1,14,15
 1904 696 1904 696 1904 408 c 0,16,17
 1904 238 1904 238 1828 130 c 0,18,19
 1732 -10 1732 -10 1524 -10 c 0,20,21
 1248 -10 1248 -10 1248 302 c 2,22,-1
 1248 714 l 2,23,24
 1248 730 1248 730 1218 730 c 0,25,26
 1148 730 1148 730 1102 678 c 128,-1,27
 1056 626 1056 626 1056 556 c 2,28,-1
 1056 0 l 1,29,-1
 756 0 l 1,30,-1
 756 688 l 2,31,32
 756 710 756 710 678 726 c 0,33,34
 610 740 610 740 536 740 c 0,35,36
 340 740 340 740 220 632 c 128,-1,37
 100 524 100 524 100 362 c 0,38,39
 100 168 100 168 216 76 c 0,40,41
 220 70 220 70 230 74 c 1,42,43
 150 150 150 150 150 260 c 0,44,45
 150 384 150 384 230 462 c 128,-1,46
 310 540 310 540 420 540 c 0,47,48
 546 540 546 540 624 448 c 0,49,50
 692 368 692 368 692 268 c 0,51,52
 692 156 692 156 620 80 c 0,53,54
 534 -10 534 -10 374 -10 c 0,55,56
 252 -10 252 -10 168 78 c 0,57,58
 68 178 68 178 68 356 c 0,59,60
 68 532 68 532 188 646 c 0,61,62
 322 772 322 772 548 772 c 0,63,64
 716 772 716 772 846 710 c 0,65,66
 970 650 970 650 1016 556 c 1,67,68
 1034 772 1034 772 1250 772 c 0,69,70
 1372 772 1372 772 1468 674 c 0,71,72
 1548 588 1548 588 1548 520 c 2,73,-1
 1548 52 l 2,74,75
 1548 26 1548 26 1588 30 c 0,76,77
 1740 46 1740 46 1814 166 c 0,78,79
 1872 260 1872 260 1872 404 c 0,80,81
 1872 482 1872 482 1854 544 c 1,82,83
 1796 510 1796 510 1744 510 c 0,84,85
 1622 510 1622 510 1516 626 c 0,86,87
 1420 732 1420 732 1420 824 c 0,88,89
 1420 962 1420 962 1492 1050 c 0,90,91
 1572 1150 1572 1150 1718 1150 c 0,92,93
 1858 1150 1858 1150 1920 1094 c 0,94,95
 1958 1060 1958 1060 1958 1012 c 0,0,1
1924 1010 m 0,96,97
 1924 1056 1924 1056 1874 1089 c 128,-1,98
 1824 1122 1824 1122 1740 1122 c 0,99,100
 1634 1122 1634 1122 1634 1098 c 2,101,-1
 1634 922 l 2,102,103
 1634 914 1634 914 1680 904 c 128,-1,104
 1726 894 1726 894 1760 894 c 0,105,106
 1924 894 1924 894 1924 1010 c 0,96,97
402 40 m 2,107,-1
 402 494 l 2,108,109
 402 506 402 506 380 502 c 0,110,111
 308 492 308 492 250 434 c 0,112,113
 182 364 182 364 182 262 c 0,114,115
 182 182 182 182 234 120 c 128,-1,116
 286 58 286 58 366 38 c 0,117,118
 380 34 380 34 388 34 c 0,119,120
 402 32 402 32 402 40 c 2,107,-1
EndSplineSet
Ligature2: "'abvs' Above Base Substitutions lookup 5 subtable" tm_sa tm_iikaar
EndChar

StartChar: tm_h_iikaar
Encoding: 65582 -1 162
Width: 2318
GlyphClass: 2
Flags: W
LayerCount: 2
Fore
SplineSet
2258 974 m 0,0,1
 2258 912 2258 912 2206 869 c 128,-1,2
 2154 826 2154 826 2054 826 c 0,3,4
 1938 826 1938 826 1920 844 c 1,5,6
 1920 784 1920 784 1936 772 c 1,7,8
 1944 772 1944 772 1958 774 c 0,9,10
 1972 774 1972 774 1978 774 c 0,11,12
 2102 774 2102 774 2179 723 c 128,-1,13
 2256 672 2256 672 2256 582 c 0,14,15
 2256 400 2256 400 2058 400 c 1,16,-1
 2058 380 l 1,17,18
 2148 380 2148 380 2202 325 c 128,-1,19
 2256 270 2256 270 2256 184 c 0,20,21
 2256 32 2256 32 2123 -45 c 128,-1,22
 1990 -122 1990 -122 1752 -122 c 2,23,-1
 1062 -122 l 2,24,25
 1020 -122 1020 -122 1020 -148 c 2,26,-1
 1020 -318 l 1,27,-1
 722 -318 l 1,28,-1
 722 -290 l 2,29,30
 722 -178 722 -178 790 -130 c 0,31,32
 850 -88 850 -88 988 -88 c 2,33,-1
 1726 -88 l 2,34,35
 1980 -88 1980 -88 1980 -28 c 2,36,-1
 1980 338 l 2,37,38
 1980 364 1980 364 1967 369 c 128,-1,39
 1954 374 1954 374 1896 374 c 1,40,-1
 1896 408 l 1,41,42
 1980 408 1980 408 1980 438 c 2,43,-1
 1980 732 l 2,44,45
 1980 740 1980 740 1962 740 c 0,46,47
 1888 740 1888 740 1830 690 c 0,48,49
 1766 634 1766 634 1766 554 c 2,50,-1
 1766 0 l 1,51,-1
 1480 0 l 1,52,-1
 1480 724 l 2,53,54
 1480 736 1480 736 1434 736 c 0,55,56
 1358 736 1358 736 1312 690 c 0,57,58
 1260 640 1260 640 1260 550 c 2,59,-1
 1260 0 l 1,60,-1
 718 0 l 1,61,-1
 718 34 l 1,62,63
 788 34 788 34 788 66 c 2,64,-1
 788 664 l 2,65,66
 788 694 788 694 728 716 c 0,67,68
 660 740 660 740 536 740 c 0,69,70
 340 740 340 740 220 632 c 128,-1,71
 100 524 100 524 100 362 c 0,72,73
 100 168 100 168 216 76 c 0,74,75
 220 70 220 70 230 74 c 1,76,77
 150 150 150 150 150 260 c 0,78,79
 150 384 150 384 230 462 c 128,-1,80
 310 540 310 540 420 540 c 0,81,82
 546 540 546 540 624 448 c 0,83,84
 692 368 692 368 692 268 c 0,85,86
 692 156 692 156 620 80 c 0,87,88
 534 -10 534 -10 374 -10 c 0,89,90
 252 -10 252 -10 168 78 c 0,91,92
 68 178 68 178 68 356 c 0,93,94
 68 532 68 532 188 646 c 0,95,96
 320 772 320 772 548 772 c 0,97,98
 836 772 836 772 976 632 c 0,99,100
 1084 526 1084 526 1084 366 c 0,101,102
 1084 248 1084 248 1032 152 c 0,103,104
 990 68 990 68 930 32 c 1,105,-1
 1226 32 l 1,106,-1
 1226 536 l 2,107,108
 1226 774 1226 774 1482 774 c 0,109,110
 1672 774 1672 774 1744 628 c 1,111,112
 1776 700 1776 700 1852 740 c 1,113,114
 1700 768 1700 768 1700 916 c 0,115,116
 1700 1008 1700 1008 1758 1066 c 0,117,118
 1828 1136 1828 1136 1970 1136 c 0,119,120
 2138 1136 2138 1136 2210 1072 c 0,121,122
 2258 1030 2258 1030 2258 974 c 0,0,1
2228 982 m 0,123,124
 2228 1030 2228 1030 2172 1064 c 0,125,126
 2108 1102 2108 1102 2002 1102 c 0,127,128
 1948 1102 1948 1102 1920 1098 c 1,129,-1
 1920 878 l 1,130,131
 1954 856 1954 856 2050 856 c 0,132,133
 2228 856 2228 856 2228 982 c 0,123,124
402 40 m 2,134,-1
 402 494 l 2,135,136
 402 506 402 506 380 502 c 0,137,138
 308 492 308 492 250 434 c 0,139,140
 182 364 182 364 182 262 c 0,141,142
 182 182 182 182 234 120 c 128,-1,143
 286 58 286 58 366 38 c 0,144,145
 380 34 380 34 388 34 c 0,146,147
 402 32 402 32 402 40 c 2,134,-1
EndSplineSet
Ligature2: "'abvs' Above Base Substitutions lookup 6 subtable" tm_ha tm_iikaar
EndChar

